<?xml version="1.0" encoding="UTF-8"?>
<svg xmlns="http://www.w3.org/2000/svg" width="272" height="64" viewBox="0 0 272 64" fill="none">
  <circle cx="125.79" cy="31.7311" r="31.7311" fill="#2D4387"></circle>
  <path d="M105.282 36.7662C105.385 37.2309 105.6 37.6956 105.927 38.1603C106.271 38.6077 106.736 38.9863 107.321 39.2961C107.923 39.5887 108.689 39.735 109.619 39.735C110.944 39.735 111.925 39.4252 112.562 38.8056C113.198 38.1861 113.517 37.4546 113.517 36.6113C113.517 35.9402 113.336 35.3894 112.975 34.9592C112.613 34.5289 112.123 34.1761 111.503 33.9008C110.884 33.6082 110.187 33.35 109.412 33.1263C108.724 32.937 108.035 32.7305 107.347 32.5067C106.676 32.2658 106.065 31.9732 105.514 31.629C104.963 31.2676 104.524 30.8029 104.197 30.235C103.87 29.6671 103.707 28.9615 103.707 28.1182C103.707 27.1028 103.948 26.2251 104.43 25.485C104.912 24.7278 105.591 24.1426 106.469 23.7296C107.347 23.3166 108.371 23.11 109.541 23.11C110.557 23.11 111.443 23.2563 112.2 23.5489C112.957 23.8415 113.586 24.2545 114.085 24.788C114.601 25.3043 114.98 25.9067 115.22 26.5951L113.388 27.2921C113.267 26.8963 113.035 26.5176 112.691 26.1562C112.346 25.7776 111.899 25.4678 111.348 25.2269C110.797 24.9859 110.169 24.8655 109.464 24.8655C108.775 24.8655 108.147 24.9859 107.579 25.2269C107.028 25.4678 106.59 25.812 106.263 26.2595C105.936 26.7069 105.772 27.2491 105.772 27.8858C105.772 28.5742 105.961 29.125 106.34 29.538C106.736 29.9338 107.252 30.2608 107.889 30.519C108.543 30.7599 109.257 30.9923 110.032 31.216C110.737 31.4397 111.417 31.6807 112.071 31.9388C112.742 32.197 113.336 32.5153 113.852 32.894C114.386 33.2726 114.807 33.7459 115.117 34.3138C115.427 34.8817 115.582 35.5787 115.582 36.4048C115.582 37.317 115.367 38.1689 114.936 38.9605C114.506 39.735 113.852 40.3631 112.975 40.845C112.114 41.3097 111.004 41.542 109.644 41.542C108.509 41.542 107.51 41.3699 106.65 41.0257C105.789 40.6643 105.084 40.1824 104.533 39.5801C103.982 38.9777 103.604 38.2893 103.397 37.5149L105.282 36.7662ZM126.43 25.0978H125.578L119.615 41.3613H117.524L124.132 23.2907H127.85L134.433 41.3613H132.342L126.43 25.0978ZM120.751 34.8043H131.283V36.6113H120.751V34.8043ZM143.594 32.1711C144.557 32.1711 145.341 32.0249 145.943 31.7323C146.545 31.4397 146.984 31.0267 147.259 30.4932C147.552 29.9596 147.698 29.3401 147.698 28.6345C147.698 27.5158 147.371 26.6467 146.717 26.0271C146.081 25.4076 145.039 25.0978 143.594 25.0978H139.283V32.1711H143.594ZM149.738 28.6345C149.738 29.3401 149.617 30.0199 149.376 30.6739C149.153 31.3106 148.791 31.8786 148.292 32.3777C147.793 32.8768 147.156 33.2726 146.382 33.5652C145.607 33.8405 144.678 33.9782 143.594 33.9782H139.283V41.3613H137.217V23.2907H143.594C145.005 23.2907 146.158 23.5317 147.053 24.0136C147.965 24.4954 148.636 25.1408 149.067 25.9497C149.514 26.7586 149.738 27.6535 149.738 28.6345Z" fill="white"></path>
  <path d="M9.61756 25.0978H8.76566L2.80237 41.3613H0.71134L7.32001 23.2907H11.0374L17.6202 41.3613H15.5292L9.61756 25.0978ZM3.93823 34.8043H14.4708V36.6113H3.93823V34.8043ZM19.3208 32.326C19.3208 30.9664 19.5445 29.7273 19.992 28.6087C20.4395 27.4728 21.0676 26.5004 21.8765 25.6915C22.7026 24.8655 23.6492 24.2287 24.7162 23.7812C25.8004 23.3338 26.9793 23.11 28.2529 23.11C30.1115 23.11 31.7379 23.5403 33.1319 24.4008C34.5431 25.2613 35.6102 26.4832 36.333 28.0665L34.655 28.6861C34.2592 27.8428 33.7343 27.1544 33.0803 26.6209C32.4263 26.0702 31.6863 25.6571 30.8602 25.3818C30.0341 25.1064 29.165 24.9687 28.2529 24.9687C26.9621 24.9687 25.8004 25.2613 24.7678 25.8464C23.7352 26.4316 22.9177 27.2749 22.3154 28.3763C21.7302 29.4778 21.4377 30.7943 21.4377 32.326C21.4377 33.8405 21.7302 35.1485 22.3154 36.2499C22.9177 37.3514 23.7352 38.2033 24.7678 38.8056C25.8004 39.3908 26.9621 39.6833 28.2529 39.6833C29.1822 39.6833 30.0685 39.5371 30.9118 39.2445C31.7551 38.9519 32.5123 38.4958 33.1835 37.8763C33.8719 37.2567 34.4227 36.4823 34.8357 35.5529L36.5137 36.1725C35.7737 37.9451 34.6894 39.2875 33.261 40.1996C31.8325 41.0946 30.1632 41.542 28.2529 41.542C26.9793 41.542 25.8004 41.3183 24.7162 40.8708C23.6492 40.4234 22.7026 39.7866 21.8765 38.9605C21.0676 38.1344 20.4395 37.1621 19.992 36.0434C19.5445 34.9075 19.3208 33.6684 19.3208 32.326ZM39.4475 32.326C39.4475 30.9664 39.6713 29.7273 40.1187 28.6087C40.5662 27.4728 41.1944 26.5004 42.0032 25.6915C42.8293 24.8655 43.7759 24.2287 44.8429 23.7812C45.9271 23.3338 47.106 23.11 48.3796 23.11C50.2383 23.11 51.8646 23.5403 53.2586 24.4008C54.6699 25.2613 55.7369 26.4832 56.4597 28.0665L54.7817 28.6861C54.3859 27.8428 53.861 27.1544 53.207 26.6209C52.553 26.0702 51.813 25.6571 50.9869 25.3818C50.1608 25.1064 49.2917 24.9687 48.3796 24.9687C47.0888 24.9687 45.9271 25.2613 44.8945 25.8464C43.8619 26.4316 43.0444 27.2749 42.4421 28.3763C41.8569 29.4778 41.5644 30.7943 41.5644 32.326C41.5644 33.8405 41.8569 35.1485 42.4421 36.2499C43.0444 37.3514 43.8619 38.2033 44.8945 38.8056C45.9271 39.3908 47.0888 39.6833 48.3796 39.6833C49.3089 39.6833 50.1952 39.5371 51.0385 39.2445C51.8818 38.9519 52.6391 38.4958 53.3103 37.8763C53.9987 37.2567 54.5494 36.4823 54.9624 35.5529L56.6404 36.1725C55.9004 37.9451 54.8161 39.2875 53.3877 40.1996C51.9593 41.0946 50.2899 41.542 48.3796 41.542C47.106 41.542 45.9271 41.3183 44.8429 40.8708C43.7759 40.4234 42.8293 39.7866 42.0032 38.9605C41.1944 38.1344 40.5662 37.1621 40.1187 36.0434C39.6713 34.9075 39.4475 33.6684 39.4475 32.326ZM63.6272 17.1209L68.9968 20.3736V21.9225L63.6272 18.928V17.1209ZM72.5076 25.0978H62.7237V31.2676H70.081V33.0747H62.7237V39.5543H72.5076V41.3613H60.6585V23.2907H72.5076V25.0978ZM77.7836 36.7662C77.8869 37.2309 78.102 37.6956 78.429 38.1603C78.7732 38.6077 79.2379 38.9863 79.823 39.2961C80.4254 39.5887 81.1912 39.735 82.1205 39.735C83.4457 39.735 84.4267 39.4252 85.0635 38.8056C85.7002 38.1861 86.0186 37.4546 86.0186 36.6113C86.0186 35.9402 85.8379 35.3894 85.4765 34.9592C85.1151 34.5289 84.6246 34.1761 84.005 33.9008C83.3855 33.6082 82.6885 33.35 81.914 33.1263C81.2256 32.937 80.5372 32.7305 79.8488 32.5067C79.1776 32.2658 78.5667 31.9732 78.0159 31.629C77.4652 31.2676 77.0264 30.8029 76.6994 30.235C76.3724 29.6671 76.2089 28.9615 76.2089 28.1182C76.2089 27.1028 76.4498 26.2251 76.9317 25.485C77.4136 24.7278 78.0934 24.1426 78.9711 23.7296C79.8488 23.3166 80.8728 23.11 82.0431 23.11C83.0585 23.11 83.9448 23.2563 84.7021 23.5489C85.4593 23.8415 86.0875 24.2545 86.5866 24.788C87.1029 25.3043 87.4815 25.9067 87.7224 26.5951L85.8896 27.2921C85.7691 26.8963 85.5367 26.5176 85.1925 26.1562C84.8483 25.7776 84.4009 25.4678 83.8502 25.2269C83.2994 24.9859 82.6713 24.8655 81.9657 24.8655C81.2772 24.8655 80.6491 24.9859 80.0811 25.2269C79.5304 25.4678 79.0916 25.812 78.7646 26.2595C78.4376 26.7069 78.2741 27.2491 78.2741 27.8858C78.2741 28.5742 78.4634 29.125 78.842 29.538C79.2379 29.9338 79.7542 30.2608 80.3909 30.519C81.0449 30.7599 81.7591 30.9923 82.5336 31.216C83.2392 31.4397 83.919 31.6807 84.573 31.9388C85.2442 32.197 85.8379 32.5153 86.3542 32.894C86.8877 33.2726 87.3094 33.7459 87.6192 34.3138C87.9289 34.8817 88.0838 35.5787 88.0838 36.4048C88.0838 37.317 87.8687 38.1689 87.4385 38.9605C87.0082 39.735 86.3542 40.3631 85.4765 40.845C84.616 41.3097 83.506 41.542 82.1464 41.542C81.0105 41.542 80.0123 41.3699 79.1518 41.0257C78.2913 40.6643 77.5857 40.1824 77.035 39.5801C76.4842 38.9777 76.1056 38.2893 75.8991 37.5149L77.7836 36.7662Z" fill="#B8105C"></path>
  <path d="M174.755 17.0994H173.887V16.3314H175.67V22.7314H174.755V17.0994ZM177.8 15.7762L178.859 16.3797V16.7362L177.8 16.1822V15.7762ZM178.393 19.7698C178.129 19.7698 177.895 19.7095 177.691 19.5888C177.489 19.4645 177.33 19.2944 177.213 19.0786C177.1 18.8629 177.043 18.616 177.043 18.3381C177.043 18.0711 177.1 17.8334 177.213 17.6249C177.327 17.4165 177.482 17.2519 177.68 17.1312C177.881 17.0105 178.108 16.9502 178.36 16.9502C178.616 16.9502 178.843 17.0069 179.04 17.1202C179.238 17.23 179.391 17.3854 179.501 17.5865C179.611 17.784 179.664 18.0126 179.66 18.2722C179.66 18.3161 179.658 18.3618 179.655 18.4094C179.651 18.4533 179.645 18.5026 179.638 18.5575H177.608C177.619 18.7038 177.66 18.8336 177.729 18.947C177.802 19.0567 177.894 19.1426 178.003 19.2048C178.117 19.267 178.245 19.2981 178.387 19.2981C178.57 19.2981 178.729 19.2633 178.865 19.1938C179 19.1207 179.095 19.0238 179.15 18.9031L179.6 19.0622C179.49 19.2853 179.329 19.459 179.117 19.5833C178.908 19.7077 178.667 19.7698 178.393 19.7698ZM179.095 18.1132C179.095 17.9815 179.062 17.8626 178.996 17.7566C178.93 17.6505 178.841 17.5682 178.727 17.5097C178.618 17.4476 178.493 17.4165 178.354 17.4165C178.23 17.4165 178.115 17.4476 178.009 17.5097C177.906 17.5682 177.819 17.6505 177.745 17.7566C177.676 17.859 177.632 17.9778 177.614 18.1132H179.095ZM180.54 16.9886H181.012L181.045 17.3561C181.122 17.261 181.21 17.1824 181.308 17.1202C181.411 17.0544 181.52 17.0087 181.637 16.9831C181.758 16.9575 181.882 16.9593 182.01 16.9886V17.4768C181.89 17.4476 181.773 17.4439 181.659 17.4658C181.546 17.4878 181.444 17.5353 181.352 17.6085C181.264 17.678 181.193 17.7712 181.138 17.8882C181.083 18.0053 181.056 18.1461 181.056 18.3106V19.7314H180.54V16.9886ZM183.917 19.7698C183.654 19.7698 183.419 19.7095 183.215 19.5888C183.014 19.4645 182.854 19.2944 182.737 19.0786C182.624 18.8629 182.567 18.616 182.567 18.3381C182.567 18.0711 182.624 17.8334 182.737 17.6249C182.851 17.4165 183.006 17.2519 183.204 17.1312C183.405 17.0105 183.632 16.9502 183.884 16.9502C184.14 16.9502 184.367 17.0069 184.564 17.1202C184.762 17.23 184.915 17.3854 185.025 17.5865C185.135 17.784 185.188 18.0126 185.184 18.2722C185.184 18.3161 185.182 18.3618 185.179 18.4094C185.175 18.4533 185.169 18.5026 185.162 18.5575H183.132C183.143 18.7038 183.184 18.8336 183.253 18.947C183.326 19.0567 183.418 19.1426 183.527 19.2048C183.641 19.267 183.769 19.2981 183.911 19.2981C184.094 19.2981 184.253 19.2633 184.389 19.1938C184.524 19.1207 184.619 19.0238 184.674 18.9031L185.124 19.0622C185.014 19.2853 184.853 19.459 184.641 19.5833C184.433 19.7077 184.191 19.7698 183.917 19.7698ZM184.619 18.1132C184.619 17.9815 184.586 17.8626 184.52 17.7566C184.454 17.6505 184.365 17.5682 184.251 17.5097C184.142 17.4476 184.017 17.4165 183.878 17.4165C183.754 17.4165 183.639 17.4476 183.533 17.5097C183.43 17.5682 183.343 17.6505 183.27 17.7566C183.2 17.859 183.156 17.9778 183.138 18.1132H184.619ZM189.009 19.5314C189.009 19.0499 189.091 18.6111 189.256 18.2149C189.42 17.8126 189.649 17.4682 189.942 17.1817C190.234 16.8892 190.572 16.6636 190.956 16.5052C191.347 16.3467 191.767 16.2674 192.218 16.2674C192.858 16.2674 193.428 16.4168 193.928 16.7154C194.434 17.0141 194.818 17.4438 195.08 18.0046L194.348 18.2697C194.202 17.9833 194.016 17.7516 193.791 17.5749C193.565 17.3981 193.318 17.2671 193.05 17.1817C192.782 17.0964 192.511 17.0537 192.236 17.0537C191.804 17.0537 191.411 17.1543 191.057 17.3554C190.71 17.5566 190.435 17.8431 190.234 18.2149C190.039 18.5867 189.942 19.0255 189.942 19.5314C189.942 20.0313 190.039 20.4671 190.234 20.8389C190.435 21.2107 190.71 21.5002 191.057 21.7074C191.411 21.9086 191.804 22.0092 192.236 22.0092C192.517 22.0092 192.794 21.9634 193.068 21.872C193.343 21.7806 193.599 21.6343 193.836 21.4332C194.074 21.2259 194.269 20.9577 194.422 20.6286L195.153 20.8846C194.879 21.5307 194.486 22.0122 193.974 22.3292C193.462 22.64 192.876 22.7954 192.218 22.7954C191.767 22.7954 191.347 22.7162 190.956 22.5577C190.572 22.3993 190.234 22.1737 189.942 21.8812C189.649 21.5886 189.42 21.2442 189.256 20.848C189.091 20.4457 189.009 20.0069 189.009 19.5314ZM199.63 22.7954C199.179 22.7954 198.755 22.7162 198.359 22.5577C197.969 22.3993 197.628 22.1768 197.335 21.8903C197.043 21.5977 196.814 21.2534 196.649 20.8572C196.485 20.4549 196.403 20.013 196.403 19.5314C196.403 19.0499 196.485 18.6111 196.649 18.2149C196.814 17.8187 197.043 17.4743 197.335 17.1817C197.628 16.8892 197.969 16.6636 198.359 16.5052C198.755 16.3467 199.179 16.2674 199.63 16.2674C200.075 16.2674 200.493 16.3467 200.883 16.5052C201.273 16.6636 201.614 16.8892 201.907 17.1817C202.199 17.4743 202.428 17.8187 202.592 18.2149C202.757 18.6111 202.839 19.0499 202.839 19.5314C202.839 20.013 202.757 20.4549 202.592 20.8572C202.428 21.2534 202.199 21.5977 201.907 21.8903C201.614 22.1768 201.273 22.3993 200.883 22.5577C200.493 22.7162 200.075 22.7954 199.63 22.7954ZM199.63 22.0092C200.063 22.0092 200.45 21.9086 200.791 21.7074C201.139 21.5063 201.413 21.2198 201.614 20.848C201.815 20.4762 201.916 20.0374 201.916 19.5314C201.916 19.0194 201.815 18.5806 201.614 18.2149C201.413 17.8431 201.139 17.5566 200.791 17.3554C200.45 17.1543 200.063 17.0537 199.63 17.0537C199.191 17.0537 198.798 17.1543 198.451 17.3554C198.103 17.5566 197.829 17.8431 197.628 18.2149C197.433 18.5806 197.335 19.0194 197.335 19.5314C197.335 20.0374 197.433 20.4762 197.628 20.848C197.829 21.2198 198.103 21.5063 198.451 21.7074C198.798 21.9086 199.191 22.0092 199.63 22.0092ZM207.202 22.7954C206.751 22.7954 206.328 22.7162 205.931 22.5577C205.541 22.3993 205.2 22.1768 204.907 21.8903C204.615 21.5977 204.386 21.2534 204.222 20.8572C204.057 20.4549 203.975 20.013 203.975 19.5314C203.975 19.0499 204.057 18.6111 204.222 18.2149C204.386 17.8187 204.615 17.4743 204.907 17.1817C205.2 16.8892 205.541 16.6636 205.931 16.5052C206.328 16.3467 206.751 16.2674 207.202 16.2674C207.647 16.2674 208.065 16.3467 208.455 16.5052C208.845 16.6636 209.186 16.8892 209.479 17.1817C209.771 17.4743 210 17.8187 210.164 18.2149C210.329 18.6111 210.411 19.0499 210.411 19.5314C210.411 20.013 210.329 20.4549 210.164 20.8572C210 21.2534 209.771 21.5977 209.479 21.8903C209.186 22.1768 208.845 22.3993 208.455 22.5577C208.065 22.7162 207.647 22.7954 207.202 22.7954ZM207.202 22.0092C207.635 22.0092 208.022 21.9086 208.363 21.7074C208.711 21.5063 208.985 21.2198 209.186 20.848C209.387 20.4762 209.488 20.0374 209.488 19.5314C209.488 19.0194 209.387 18.5806 209.186 18.2149C208.985 17.8431 208.711 17.5566 208.363 17.3554C208.022 17.1543 207.635 17.0537 207.202 17.0537C206.763 17.0537 206.37 17.1543 206.023 17.3554C205.675 17.5566 205.401 17.8431 205.2 18.2149C205.005 18.5806 204.907 19.0194 204.907 19.5314C204.907 20.0374 205.005 20.4762 205.2 20.848C205.401 21.2198 205.675 21.5063 206.023 21.7074C206.37 21.9086 206.763 22.0092 207.202 22.0092ZM214.29 19.376C214.588 19.376 214.832 19.3303 215.021 19.2389C215.216 19.1414 215.359 19.0073 215.451 18.8366C215.542 18.6659 215.588 18.4678 215.588 18.2423C215.588 17.8827 215.484 17.6023 215.277 17.4012C215.07 17.2 214.741 17.0994 214.29 17.0994H212.818V19.376H214.29ZM216.502 18.2423C216.502 18.4739 216.463 18.7055 216.383 18.9372C216.304 19.1627 216.176 19.3669 215.999 19.5497C215.823 19.7326 215.591 19.8789 215.305 19.9886C215.024 20.0922 214.686 20.144 214.29 20.144H212.818V22.7314H211.903V16.3314H214.29C214.79 16.3314 215.201 16.4198 215.524 16.5966C215.853 16.7673 216.097 16.9989 216.255 17.2914C216.42 17.5779 216.502 17.8949 216.502 18.2423ZM221.047 14.0549V14.8503L219.081 15.8652V15.1886L221.047 14.0549ZM222.281 17.0994H218.917V19.1017H221.44V19.8697H218.917V21.9634H222.281V22.7314H218.002V16.3314H222.281V17.0994ZM227.634 18.2423C227.634 17.8949 227.53 17.6175 227.323 17.4103C227.116 17.2031 226.787 17.0994 226.336 17.0994H224.873V19.376H226.345C226.643 19.376 226.887 19.3303 227.076 19.2389C227.265 19.1414 227.405 19.0073 227.497 18.8366C227.588 18.6659 227.634 18.4678 227.634 18.2423ZM226.336 16.3314C226.842 16.3314 227.256 16.4198 227.579 16.5966C227.908 16.7673 228.152 16.9958 228.31 17.2823C228.475 17.5688 228.557 17.8888 228.557 18.2423C228.557 18.4739 228.518 18.7025 228.438 18.928C228.359 19.1535 228.231 19.3608 228.054 19.5497C227.878 19.7326 227.646 19.8789 227.36 19.9886C227.079 20.0922 226.741 20.144 226.345 20.144H224.873V22.7314H223.958V16.3314H226.336ZM226.921 19.8332L228.685 22.7314H227.652L225.952 19.8332H226.921ZM232.797 17.0994H232.477L230.466 22.7314H229.533L231.837 16.3314H233.419L235.723 22.7314H234.79L232.797 17.0994ZM230.713 20.336H234.443V21.104H230.713V20.336ZM236.014 16.3314H240.924V17.0994H238.931V22.7314H238.016V17.0994H236.014V16.3314ZM242.416 16.3314H243.33V22.7314H242.416V16.3314ZM249.591 16.3314H250.551L248.147 22.7314H247.095L244.7 16.3314H245.669L247.626 21.7897L249.591 16.3314ZM256.214 17.0994H252.85V19.1017H255.373V19.8697H252.85V21.9634H256.214V22.7314H251.935V16.3314H256.214V17.0994ZM176.438 28.3314C177.132 28.3314 177.73 28.4625 178.23 28.7246C178.735 28.9867 179.126 29.3585 179.4 29.84C179.68 30.3215 179.82 30.8945 179.82 31.5589C179.82 32.2172 179.68 32.784 179.4 33.2594C179.126 33.7288 178.735 34.0914 178.23 34.3474C177.73 34.6034 177.132 34.7314 176.438 34.7314H174.243V28.3314H176.438ZM176.438 33.9634C177.242 33.9634 177.852 33.7532 178.266 33.3326C178.687 32.9059 178.897 32.3147 178.897 31.5589C178.897 30.7909 178.687 30.1905 178.266 29.7577C177.852 29.3189 177.242 29.0994 176.438 29.0994H175.158V33.9634H176.438ZM186.554 29.0994H183.19V31.1017H185.713V31.8697H183.19V33.9634H186.554V34.7314H182.275V28.3314H186.554V29.0994ZM193.674 33.04C193.711 33.2107 193.784 33.3692 193.893 33.5154C194.009 33.6617 194.165 33.7806 194.36 33.872C194.555 33.9634 194.796 34.0092 195.082 34.0092C195.509 34.0092 195.823 33.9116 196.024 33.7166C196.231 33.5154 196.335 33.2808 196.335 33.0126C196.335 32.7932 196.271 32.6134 196.143 32.4732C196.021 32.3269 195.85 32.205 195.631 32.1074C195.417 32.0038 195.17 31.9124 194.89 31.8332C194.646 31.76 194.405 31.6838 194.168 31.6046C193.936 31.5193 193.726 31.4156 193.537 31.2937C193.348 31.1657 193.199 31.0042 193.089 30.8092C192.979 30.608 192.924 30.3581 192.924 30.0594C192.924 29.6876 193.013 29.3676 193.189 29.0994C193.366 28.8313 193.613 28.6271 193.93 28.4869C194.253 28.3406 194.625 28.2674 195.045 28.2674C195.399 28.2674 195.716 28.3193 195.996 28.4229C196.277 28.5204 196.511 28.6636 196.7 28.8526C196.895 29.0354 197.039 29.2579 197.13 29.52L196.298 29.8217C196.261 29.6876 196.185 29.5627 196.069 29.4469C195.954 29.325 195.807 29.2274 195.631 29.1543C195.454 29.0812 195.256 29.0446 195.036 29.0446C194.811 29.0385 194.607 29.0751 194.424 29.1543C194.247 29.2274 194.104 29.3341 193.994 29.4743C193.89 29.6145 193.839 29.7821 193.839 29.9772C193.839 30.1905 193.9 30.3581 194.021 30.48C194.143 30.6019 194.305 30.7025 194.506 30.7817C194.713 30.861 194.939 30.9372 195.183 31.0103C195.439 31.0895 195.688 31.1749 195.932 31.2663C196.176 31.3577 196.396 31.4735 196.591 31.6137C196.792 31.7539 196.953 31.9307 197.075 32.144C197.197 32.3513 197.258 32.6134 197.258 32.9303C197.258 33.2716 197.179 33.5825 197.02 33.8629C196.862 34.1433 196.621 34.3688 196.298 34.5394C195.981 34.7101 195.582 34.7954 195.1 34.7954C194.704 34.7954 194.348 34.7345 194.031 34.6126C193.714 34.4907 193.452 34.3231 193.244 34.1097C193.043 33.8903 192.909 33.6374 192.842 33.3509L193.674 33.04ZM204.061 29.0994H200.697V31.1017H203.22V31.8697H200.697V33.9634H204.061V34.7314H199.783V28.3314H204.061V29.0994ZM210.374 30.2423C210.374 29.8949 210.27 29.6175 210.063 29.4103C209.856 29.2031 209.527 29.0994 209.076 29.0994H207.613V31.376H209.085C209.384 31.376 209.627 31.3303 209.816 31.2389C210.005 31.1414 210.145 31.0073 210.237 30.8366C210.328 30.6659 210.374 30.4678 210.374 30.2423ZM209.076 28.3314C209.582 28.3314 209.996 28.4198 210.319 28.5966C210.648 28.7673 210.892 28.9958 211.051 29.2823C211.215 29.5688 211.297 29.8888 211.297 30.2423C211.297 30.4739 211.258 30.7025 211.179 30.928C211.099 31.1535 210.971 31.3608 210.795 31.5497C210.618 31.7326 210.386 31.8789 210.1 31.9886C209.819 32.0922 209.481 32.144 209.085 32.144H207.613V34.7314H206.699V28.3314H209.076ZM209.661 31.8332L211.425 34.7314H210.392L208.692 31.8332H209.661ZM218.289 28.3314H219.249L216.845 34.7314H215.793L213.398 28.3314H214.367L216.324 33.7897L218.289 28.3314ZM221.593 28.3314H222.508V34.7314H221.593V28.3314ZM224.965 31.5314C224.965 31.0499 225.048 30.6111 225.212 30.2149C225.377 29.8126 225.605 29.4682 225.898 29.1817C226.19 28.8892 226.529 28.6636 226.913 28.5052C227.303 28.3467 227.723 28.2674 228.174 28.2674C228.814 28.2674 229.384 28.4168 229.884 28.7154C230.39 29.0141 230.774 29.4438 231.036 30.0046L230.305 30.2697C230.158 29.9833 229.973 29.7516 229.747 29.5749C229.521 29.3981 229.275 29.2671 229.006 29.1817C228.738 29.0964 228.467 29.0537 228.193 29.0537C227.76 29.0537 227.367 29.1543 227.013 29.3554C226.666 29.5566 226.392 29.8431 226.19 30.2149C225.995 30.5867 225.898 31.0255 225.898 31.5314C225.898 32.0313 225.995 32.4671 226.19 32.8389C226.392 33.2107 226.666 33.5002 227.013 33.7074C227.367 33.9086 227.76 34.0092 228.193 34.0092C228.473 34.0092 228.75 33.9634 229.025 33.872C229.299 33.7806 229.555 33.6343 229.793 33.4332C230.03 33.2259 230.225 32.9577 230.378 32.6286L231.109 32.8846C230.835 33.5307 230.442 34.0122 229.93 34.3292C229.418 34.64 228.833 34.7954 228.174 34.7954C227.723 34.7954 227.303 34.7162 226.913 34.5577C226.529 34.3993 226.19 34.1737 225.898 33.8812C225.605 33.5886 225.377 33.2442 225.212 32.848C225.048 32.4457 224.965 32.0069 224.965 31.5314ZM237.954 29.0994H234.59V31.1017H237.113V31.8697H234.59V33.9634H237.954V34.7314H233.675V28.3314H237.954V29.0994ZM241.14 33.04C241.177 33.2107 241.25 33.3692 241.359 33.5154C241.475 33.6617 241.631 33.7806 241.826 33.872C242.021 33.9634 242.262 34.0092 242.548 34.0092C242.975 34.0092 243.289 33.9116 243.49 33.7166C243.697 33.5154 243.801 33.2808 243.801 33.0126C243.801 32.7932 243.737 32.6134 243.609 32.4732C243.487 32.3269 243.316 32.205 243.097 32.1074C242.883 32.0038 242.636 31.9124 242.356 31.8332C242.112 31.76 241.871 31.6838 241.634 31.6046C241.402 31.5193 241.192 31.4156 241.003 31.2937C240.814 31.1657 240.665 31.0042 240.555 30.8092C240.445 30.608 240.39 30.3581 240.39 30.0594C240.39 29.6876 240.479 29.3676 240.655 29.0994C240.832 28.8313 241.079 28.6271 241.396 28.4869C241.719 28.3406 242.091 28.2674 242.511 28.2674C242.865 28.2674 243.182 28.3193 243.462 28.4229C243.743 28.5204 243.977 28.6636 244.166 28.8526C244.361 29.0354 244.505 29.2579 244.596 29.52L243.764 29.8217C243.727 29.6876 243.651 29.5627 243.535 29.4469C243.42 29.325 243.273 29.2274 243.097 29.1543C242.92 29.0812 242.722 29.0446 242.502 29.0446C242.277 29.0385 242.073 29.0751 241.89 29.1543C241.713 29.2274 241.57 29.3341 241.46 29.4743C241.356 29.6145 241.305 29.7821 241.305 29.9772C241.305 30.1905 241.366 30.3581 241.487 30.48C241.609 30.6019 241.771 30.7025 241.972 30.7817C242.179 30.861 242.405 30.9372 242.649 31.0103C242.905 31.0895 243.155 31.1749 243.398 31.2663C243.642 31.3577 243.862 31.4735 244.057 31.6137C244.258 31.7539 244.419 31.9307 244.541 32.144C244.663 32.3513 244.724 32.6134 244.724 32.9303C244.724 33.2716 244.645 33.5825 244.486 33.8629C244.328 34.1433 244.087 34.3688 243.764 34.5394C243.447 34.7101 243.048 34.7954 242.566 34.7954C242.17 34.7954 241.814 34.7345 241.497 34.6126C241.18 34.4907 240.918 34.3231 240.71 34.1097C240.509 33.8903 240.375 33.6374 240.308 33.3509L241.14 33.04ZM252.572 26.0549L254.538 27.1886V27.8652L252.572 26.832V26.0549ZM253.797 29.0994H253.477L251.466 34.7314H250.533L252.837 28.3314H254.419L256.723 34.7314H255.791L253.797 29.0994ZM251.713 32.336H255.443V33.104H251.713V32.336ZM175.158 40.3314V45.9634H178.083V46.7314H174.243V40.3314H175.158ZM183.856 41.0994H183.536L181.525 46.7314H180.592L182.896 40.3314H184.478L186.782 46.7314H185.849L183.856 41.0994ZM181.771 44.336H185.502V45.104H181.771V44.336ZM196.909 43.376C197.208 43.376 197.451 43.3303 197.64 43.2389C197.835 43.1414 197.979 43.0073 198.07 42.8366C198.161 42.6659 198.207 42.4678 198.207 42.2423C198.207 41.8827 198.104 41.6023 197.896 41.4012C197.689 41.2 197.36 41.0994 196.909 41.0994H195.437V43.376H196.909ZM199.121 42.2423C199.121 42.4739 199.082 42.7055 199.003 42.9372C198.923 43.1627 198.795 43.3669 198.619 43.5497C198.442 43.7326 198.21 43.8789 197.924 43.9886C197.643 44.0922 197.305 44.144 196.909 44.144H195.437V46.7314H194.523V40.3314H196.909C197.409 40.3314 197.82 40.4198 198.143 40.5966C198.472 40.7673 198.716 40.9989 198.875 41.2914C199.039 41.5779 199.121 41.8949 199.121 42.2423ZM206.683 41.0994H203.319V43.1017H205.842V43.8697H203.319V45.9634H206.683V46.7314H202.404V40.3314H206.683V41.0994ZM213.819 42.2423C213.819 41.8949 213.715 41.6175 213.508 41.4103C213.301 41.2031 212.971 41.0994 212.52 41.0994H211.058V43.376H212.53C212.828 43.376 213.072 43.3303 213.261 43.2389C213.45 43.1414 213.59 43.0073 213.682 42.8366C213.773 42.6659 213.819 42.4678 213.819 42.2423ZM212.52 40.3314C213.026 40.3314 213.441 40.4198 213.764 40.5966C214.093 40.7673 214.337 40.9958 214.495 41.2823C214.66 41.5688 214.742 41.8888 214.742 42.2423C214.742 42.4739 214.703 42.7025 214.623 42.928C214.544 43.1535 214.416 43.3608 214.239 43.5497C214.063 43.7326 213.831 43.8789 213.544 43.9886C213.264 44.0922 212.926 44.144 212.53 44.144H211.058V46.7314H210.143V40.3314H212.52ZM213.106 43.8332L214.87 46.7314H213.837L212.136 43.8332H213.106ZM218.699 45.04C218.735 45.2107 218.808 45.3692 218.918 45.5154C219.034 45.6617 219.189 45.7806 219.384 45.872C219.579 45.9634 219.82 46.0092 220.107 46.0092C220.533 46.0092 220.847 45.9116 221.048 45.7166C221.256 45.5154 221.359 45.2808 221.359 45.0126C221.359 44.7932 221.295 44.6134 221.167 44.4732C221.045 44.3269 220.875 44.205 220.655 44.1074C220.442 44.0038 220.195 43.9124 219.915 43.8332C219.671 43.76 219.43 43.6838 219.192 43.6046C218.961 43.5193 218.75 43.4156 218.561 43.2937C218.373 43.1657 218.223 43.0042 218.113 42.8092C218.004 42.608 217.949 42.3581 217.949 42.0594C217.949 41.6876 218.037 41.3676 218.214 41.0994C218.391 40.8313 218.638 40.6271 218.955 40.4869C219.278 40.3406 219.649 40.2674 220.07 40.2674C220.424 40.2674 220.741 40.3193 221.021 40.4229C221.301 40.5204 221.536 40.6636 221.725 40.8526C221.92 41.0354 222.063 41.2579 222.155 41.52L221.323 41.8217C221.286 41.6876 221.21 41.5627 221.094 41.4469C220.978 41.325 220.832 41.2274 220.655 41.1543C220.478 41.0812 220.28 41.0446 220.061 41.0446C219.835 41.0385 219.631 41.0751 219.448 41.1543C219.272 41.2274 219.128 41.3341 219.019 41.4743C218.915 41.6145 218.863 41.7821 218.863 41.9772C218.863 42.1905 218.924 42.3581 219.046 42.48C219.168 42.6019 219.329 42.7025 219.531 42.7817C219.738 42.861 219.963 42.9372 220.207 43.0103C220.463 43.0895 220.713 43.1749 220.957 43.2663C221.201 43.3577 221.42 43.4735 221.615 43.6137C221.816 43.7539 221.978 43.9307 222.1 44.144C222.222 44.3513 222.283 44.6134 222.283 44.9303C222.283 45.2716 222.203 45.5825 222.045 45.8629C221.886 46.1433 221.646 46.3688 221.323 46.5394C221.006 46.7101 220.606 46.7954 220.125 46.7954C219.729 46.7954 219.372 46.7345 219.055 46.6126C218.738 46.4907 218.476 46.3231 218.269 46.1097C218.068 45.8903 217.934 45.6374 217.867 45.3509L218.699 45.04ZM228.501 46.7954C228.05 46.7954 227.626 46.7162 227.23 46.5577C226.84 46.3993 226.499 46.1768 226.206 45.8903C225.913 45.5977 225.685 45.2534 225.52 44.8572C225.356 44.4549 225.273 44.013 225.273 43.5314C225.273 43.0499 225.356 42.6111 225.52 42.2149C225.685 41.8187 225.913 41.4743 226.206 41.1817C226.499 40.8892 226.84 40.6636 227.23 40.5052C227.626 40.3467 228.05 40.2674 228.501 40.2674C228.946 40.2674 229.363 40.3467 229.753 40.5052C230.144 40.6636 230.485 40.8892 230.777 41.1817C231.07 41.4743 231.299 41.8187 231.463 42.2149C231.628 42.6111 231.71 43.0499 231.71 43.5314C231.71 44.013 231.628 44.4549 231.463 44.8572C231.299 45.2534 231.07 45.5977 230.777 45.8903C230.485 46.1768 230.144 46.3993 229.753 46.5577C229.363 46.7162 228.946 46.7954 228.501 46.7954ZM228.501 46.0092C228.934 46.0092 229.321 45.9086 229.662 45.7074C230.009 45.5063 230.284 45.2198 230.485 44.848C230.686 44.4762 230.787 44.0374 230.787 43.5314C230.787 43.0194 230.686 42.5806 230.485 42.2149C230.284 41.8431 230.009 41.5566 229.662 41.3554C229.321 41.1543 228.934 41.0537 228.501 41.0537C228.062 41.0537 227.669 41.1543 227.321 41.3554C226.974 41.5566 226.7 41.8431 226.499 42.2149C226.304 42.5806 226.206 43.0194 226.206 43.5314C226.206 44.0374 226.304 44.4762 226.499 44.848C226.7 45.2198 226.974 45.5063 227.321 45.7074C227.669 45.9086 228.062 46.0092 228.501 46.0092ZM240.023 40.3314V46.7314H239.09L235.899 41.776V46.7314H234.985V40.3314H235.918L239.108 45.2686V40.3314H240.023ZM248.699 40.3314V46.7314H247.767L244.576 41.776V46.7314H243.661V40.3314H244.594L247.785 45.2686V40.3314H248.699ZM256.617 41.0994H253.252V43.1017H255.776V43.8697H253.252V45.9634H256.617V46.7314H252.338V40.3314H256.617V41.0994Z" fill="#2D4387"></path>
</svg>
