<svg xmlns="http://www.w3.org/2000/svg" width="2000" height="2000"><path fill="#FCFCFC" d="M0 0h2000v2000H0V0Z"/><path fill="#101C28" d="M803 1008c5.88396542.69361692 10.50748198 1.74414439 16 4v2l1.765625.04296875c5.14168195.29912301 9.21704115 1.20623794 13.921875 3.33203125 5.8112797 2.59938989 11.48018353 3.81767005 17.7265625 4.9453125 3.0807189.58392711 6.01650798 1.30379512 9.0234375 2.1796875 4.49784975 1.28222284 9.02806871 2.21787186 13.625 3.0625l2.08325195.3828125c2.96111641.53922331 5.92401972 1.06680999 8.8894043 1.58203125C890.90266906 1030.41568319 894.55255663 1031.77627832 899 1034c7.13429072 2.12100535 14.48792661 2.35838414 21.875 2.65625 2.89990836.17594168 5.59051469.63050583 8.421875 1.2734375 8.20900918 1.72084233 16.60185672 2.12027853 24.953125 2.6953125l2.83361816.1980896c16.88625171 1.14588573 33.74428751 1.47747662 50.66638184 1.4894104l3.4732666.01031494c11.57196215.0197417 22.93875461-.10901932 34.39538574-1.84136963 4.88340157-.69531176 9.76141782-.96051529 14.68603516-1.23535156 2.66298197-.07824754 2.66298197-.07824754 4.6953125-1.24609375 1.97413098-.18780246 3.95347991-.32192819 5.93359375-.4296875l3.65820313-.22265625c2.52831903-.14638312 5.05696924-.28717277 7.5859375-.421875 6.75085575-.42125911 12.82353221-1.28338693 19.29565429-3.23925781 3.949466-1.07313735 7.8953173-1.33312069 11.96411133-1.62402344 6.60996571-.58009385 12.31923762-1.70690319 18.55859375-4.05859375 3.53598968-1.18172867 7.09075538-1.86687463 10.75390625-2.50390625 15.15183628-2.70180753 29.44617563-7.09672355 43.95556641-12.14672852l1.94041442-.66596984c1.76400419-.60550588 3.52528867-1.21891824 5.28639222-1.83280945 2.89819218-.80729588 5.09188842-.92334088 8.06762695-.85449219.04675043 25.77366166.08200378 51.54731695.10362434 77.3210125.01030627 11.96755453.02435421 23.9350827.04725457 35.90262031.01995372 10.43264157.03284225 20.86526404.03729808 31.29792416.00260401 5.52240866.00871111 11.04476269.02328312 16.56715381.0136152 5.20212866.01775456 10.40418037.01475525 15.60632515.0005484 1.90507171.0045023 3.81014609.01219559 5.71520234.03498699 9.1137974.02503085 17.70239658-2.23841095 26.58976173-.18623324 1.85054548-.34157702 3.70508239-.4375 5.5625-.3439326 4.35443243-1.21130177 8.08981047-2.74609375 12.171875-1.32657191 3.68139573-2.31259028 7.45944137-3.36352539 11.22705078C1184.3467982 1280.43546787 1184.3467982 1280.43546787 1176 1286c-1.22196109 2.17610667-1.22196109 2.17610667-2.1875 4.625l-1.04296875 2.4765625L1172 1295h-2l-.66796875 2.09375c-1.66996416 3.64355816-4.02359991 6.42307612-6.64453125 9.40625l-1.60766602 1.84472656C1151.5838233 1319.11698549 1141.60938178 1328.55158851 1130 1337l-3.15625 2.359375c-7.40276288 5.49362929-7.40276288 5.49362929-10.84375 6.640625l-2 3c-1.83984375.80859375-1.83984375.80859375-3.9375 1.4375-3.57014905 1.22221319-4.98870142 2.34811221-7.0625 5.5625-3.04497553 1.96450034-4.1849907 2-8 2v2c-7.35946633 2.48369265-14.72630063 4.94796721-22.125 7.3125l-3.0703125.98828125c-2.72759383.67999902-5.00820208.83750649-7.8046875.69921875v2c-5.96818984 1.85362999-11.97146849 2.99777711-18.125 4.0625l-2.8984375.52539062c-14.43187793 2.51786106-28.98552617 2.7927146-43.6015625 2.91210938l-3.00946045.02459717c-15.90242808.06308327-29.54225714-1.60772567-44.66656494-6.70843506-3.72527261-1.12651166-7.48021413-1.7730142-11.3203125-2.37792969-2.87092716-.52892479-5.41328154-1.43164264-8.10522461-2.53588867-1.78630337-.7089967-3.60022426-1.34844699-5.421875-1.9609375-11.72866168-3.94839052-21.97160887-9.58267932-32.3046875-16.33203125-2.30486969-1.4564514-4.62752194-2.73180214-7.046875-3.984375-16.72858258-9.1246814-32.11017885-25.56922426-43.5-40.625l-1.9921875-2.58203125C833.52239301 1292.80018371 827.11620861 1283.40310046 824 1273h-2c-2.66658372-4.88873682-4.48563423-9.13371356-5.41015625-14.62890625-.64044944-2.57452194-1.6676399-4.86319949-2.73608398-7.28442383-1.75235824-4.2829299-3.02865593-8.71961975-4.35375977-13.14916992l-.89453125-2.81445312c-5.09355939-17.06454591-6.0582815-34.82144818-5.94604492-52.5209961.00084951-1.92440273.00036483-3.84880644-.00132752-5.77320862-.00084873-5.14531604.01659168-10.29041543.03772188-15.43568182.01895737-5.40644259.02053206-10.81289203.02407622-16.21936273.00926516-10.20265459.0338028-20.40521091.06404847-30.60782254.0337178-11.6302629.05007339-23.2605309.0650863-34.89083064.03122353-23.89176895.08387455-47.78345115.15097082-71.67514443Z"/><path fill="#101D2A" d="M1012 764c2.52113092-.05447822 5.0410585-.09389852 7.5625-.125l2.13476562-.05078125c4.77640401-.04402216 8.725046.64799897 13.30273438 2.17578125 2.60401752.86800584 4.51654259 1.21303208 7.2109375 1.4296875l2.50415039.21679688L1047.375 767.875c7.07388319.65326599 13.83378869 1.64054743 20.73046875 3.40234375 2.91156201.72690819 5.81259872 1.27699599 8.76953125 1.78515625 4.14172573.72420349 8.0903724 1.74205478 12.125 2.9375 1.33853196.31471741 2.68000008.61708499 4.0234375.91015625l2.40380859.52783203L1098 778c3.66815911.80589882 7.33444637 1.61983852 11 2.4375l2.828125.61914062c5.18099022 1.16138119 10.17722303 2.53530633 15.19287109 4.27612305 2.56388557.86443366 5.15593069 1.49768728 7.79150391 2.10473633 21.04626168 5.14107155 42.95248885 14.7685138 55.1875 33.5625 1.90175229 3.24416567 3.48244801 6.56084192 5 10l1.60546875 3.546875c.55097707 1.27483517 1.0991664 2.55087889 1.64453125 3.828125l1.515625 3.5234375c3.20991374 9.16987213 2.38022671 19.87489485 2.36376953 29.45751953l.00531006 3.8674469c.00450996 3.46006703.00281286 6.92010383-.00037909 10.3801713-.00255173 3.63319012-.00017879 7.26637785.00138617 10.89956808.00181121 6.08717306-.00055942 12.17433392-.00534058 18.26150513-.00546512 7.03933782-.00365953 14.07864678.00182641 21.11798393.00453193 6.05797503.00518203 12.11594136.00256133 18.17391754-.00155919 3.61270723-.0017658 7.22540086.00153649 10.83810723.00341464 4.01446129-.00131215 8.0288723-.00690079 12.04333114l.00613403 3.63304138-.00854492 3.29594422-.0011425 2.87457466C1202 989 1202 989 1201 991c-2.06640625.4140625-2.06640625.4140625-4.5625.625l-2.50390625.2265625L1192 992v2l-1.6171875.515625c-6.76327811 2.19982056-13.35110449 4.75470308-19.88671875 7.55859375-4.93508346 2.0775234-9.61093283 3.4938599-14.87890625 4.4375-8.47010042 1.58024261-16.75279997 4.06114397-25 6.5234375-10.50245489 2.80141075-21.23940017 4.08317845-31.9921875 5.52734375-2.45973653.3313872-4.91932919.66372105-7.37857056.99876404-1.52002577.20701046-3.04033987.41191806-4.56097412.6144104-3.9305993.53336327-3.9305993.53336327-7.80654907 1.36094665-5.0043447 1.23417961-10.37854376 1.18635081-15.50390625 1.52587891l-2.02786255.13592529c-16.4627555 1.07725064-32.84872637.93849098-49.34713745.80157471v-62l8-1v-2l1.90625-.77734375C1032.03740203 953.6911018 1038.57115009 946.1080028 1043 936c3.18080649-9.33078156 3.44421339-18.5282876 3.3984375-28.2734375.00202642-1.53789406.00494256-3.07578717.00869751-4.61367798.00438872-3.19869272-.00190028-6.39713175-.01602173-9.59579468-.01717763-4.08868527-.00717525-8.1767833.01071739-12.26544761.01085765-3.16567832.00738396-6.33121799-.00038337-9.49690056-.00199203-1.50781068.00042201-3.0156342.00743866-4.52342987.00765738-2.10527466-.00404404-4.20960338-.02070237-6.31480789l-.00723266-3.61825562C1045.95628676 853.62153359 1044.7038671 851.25329845 1043 848v-4h-2l-1-3.0625c-2.11197557-4.93126371-5.8491468-7.71076996-10-10.9375l-1.76171875-1.48046875c-3.9170639-3.11356361-7.38460304-4.28943707-12.3203125-5.0625C1014 823 1014 823 1012 821c-.24050903-2.40444946-.24050903-2.40444946-.22705078-5.45947266l.00045776-3.45767212.03128052-3.74691772.00857544-3.82528687c.00931575-3.35712007.02728871-6.71396975.04940796-10.0710144.0204536-3.42516745.0295927-6.85036282.03967285-10.27557373.02209167-6.72142921.05559248-13.44273023.09765625-20.1640625Z"/><path fill="#101E2B" d="M994 764v56l-9 2v2l-2.1796875.7265625c-3.2339542 1.46020647-5.33873953 3.24911498-7.9453125 5.6484375l-2.5703125 2.3359375C968.76665863 836.22497974 966.69382046 839.33544041 964.9375 844c-1.83685327 4.83926001-1.83685327 4.83926001-2.98361206 6.67071533-1.35674723 3.31302073-1.21590007 6.51357149-1.18093872 10.03533936l-.00088501 2.3367157c.00139086 2.54315021.01694052 5.08600571.03262329 7.62910461.003731 1.76548096.00657756 3.53096399.00857544 5.29644775.00762963 4.64263647.02727239 9.28514744.04940796 13.92773438.02047284 4.73905744.02959684 9.47813519.03967285 14.21722412.02143808 9.295628.05556598 18.59116293.09765625 27.88671875h2l.41015625 1.65234375C966.35608079 943.97189976 973.45470544 951.70496634 982 958c3.8702556 2.11884246 7.82355079 3.60785026 12 5v62c-10.38541817 0-20.49858011-.04711982-30.8125-.8125l-3.73803711-.2722168c-21.71116322-1.64120879-43.00287775-4.27673838-64.39575195-8.34399414-3.48840545-.65261182-6.98394409-1.24985095-10.48388672-1.83666992-9.03086894-1.52306732-17.61865084-3.68908148-26.25732422-6.73461914-5.5239549-1.90157086-11.0325152-2.99761639-16.79370117-3.87304688C837.33546766 1002.44481434 834.55166868 1001.2443404 831 999c-2.35541499-.86764132-4.73315817-1.67600547-7.125-2.4375-1.32849278-.4298546-2.65661512-.86085563-3.984375-1.29296875l-1.98242188-.64208984c-2.77784392-.91339034-5.53195557-1.88713634-8.28320312-2.87744141l-2.6484375-.953125C805 990 805 990 804 989c-.10713658-1.70549253-.14409605-3.41542615-.15390015-5.12425232l-.02606201-3.36749268-.01290893-3.72871398-.02478028-3.90292359c-.02628943-4.29088227-.04155572-8.58177451-.05578613-12.87271118a198746.91575303 198746.91575303 0 0 0-.01613235-4.44246101c-.02165778-6.17212485-.04038343-12.34424705-.0516224-18.51640034-.01615776-8.81441287-.04910041-17.62837904-.10640084-26.44262356-.03897201-6.21001628-.05826495-12.41991463-.06351972-18.63004982-.00362264-3.69965189-.01530423-7.39882823-.04810274-11.09834618-.32419041-38.46564845-.32419041-38.46564845 7.14701462-46.60350227L812 833c.66302488-1.88962091 1.32516766-3.77956169 1.98046875-5.671875C815.96336475 822.80013259 819.08048708 818.96068862 822 815l2-3h2l.71484375-1.75390625c5.55457902-9.70785087 19.02724532-15.03646838 29.09765625-18.44921875 2.13459305-.60317945 2.13459305-.60317945 3.1875-1.796875 2.24325917-.4708445 4.49516438-.90064737 6.75-1.3125 6.04596526-1.15277168 11.81887359-2.70059188 17.68359375-4.5859375 6.67179085-2.06072839 13.44355472-3.75542337 20.20605469-5.49023438 2.24128949-.58049119 4.47688088-1.1791401 6.71191406-1.78320312 6.95280658-1.85074708 13.61176614-3.14419871 20.8203125-3.55859375 2.90900953-.27723986 5.51076689-.877234 8.328125-1.64453125 6.50278164-1.7664014 13.07128388-2.69347626 19.734375-3.62255859l2.51953125-.35400391 2.26000977-.30712891C966.20080133 767.01694582 966.20080133 767.01694582 969 766c1.66251952-.21360708 3.33035051-.38727214 5-.53515625l2.9375-.26367187L980 764.9375l3.0625-.27539062C990.54981203 764 990.54981203 764 994 764Z"/><path fill="#03B19C" d="M993.94702148 490.79418945c2.98324195.01826624 5.96617068.0205086 8.9494629.02026367 9.0572489.01604104 18.10019886.14141342 27.14648437.60742188l2.17063903.10554504c5.19102527.30588964 9.98083947 1.28446176 14.96607972 2.71476746 4.02698443 1.08204291 8.10181028 1.64834646 12.2265625 2.23046875 2.5513875.5187309 4.28897368 1.3616588 6.59375 2.52734375 1.98927542.50284462 3.99128355.9565174 6 1.375 9.09442964 2.03910978 17.70117904 4.43772278 25.671875 9.37890625 2.63754788 1.41170767 5.3676347 2.38343891 8.1743164 3.4050293 3.61079731 1.41002003 7.02393501 3.19124294 10.4663086 4.96606445 5.22263056 2.71205662 5.22263056 2.71205662 10.6875 4.875l1 2c1.57439288.9275035 3.18611281 1.79202916 4.8125 2.625 6.31047075 3.36227181 12.52680044 6.98869877 18.1875 11.375v2l2.19921875.73828125c3.14518008 1.41686634 5.10282405 3.09287686 7.61328125 5.44921875 2.95437948 2.7519587 5.92725275 5.46094936 8.984375 8.09765625C1180.77089063 564.85598361 1191.23564576 575.35618646 1200 587l1.99609375 2.62109375c13.45182451 18.06687541 24.67306663 37.69522166 33.23779296 58.52246093.74432503 1.80364802 1.50691142 3.59972612 2.27001954 5.39550782C1246.18534648 674.7094433 1253.5702075 702.92932784 1251 726c-1.526646 3.09819337-3.1802183 5.9558226-6 8-5.53274255.88619686-10.52147253.7262942-15.5625-1.75-4.61554504-4.2605031-5.83852332-7.0036968-6.53515625-13.32421875l-.24180603-2.07051087c-.25276475-2.17977572-.48881267-4.36093143-.72303772-6.54277038-.31771946-2.85883519-.6423783-5.71680785-.97265625-8.57421875l-.23925782-2.0729065c-.84986684-7.11058868-2.22904662-13.66454418-4.86230468-20.3489685C1211 666.26696832 1211 666.26696832 1211 661h-2l-6-18h-2c-3.28571429-7.42857143-3.28571429-7.42857143-4-11h-2l-.875-2.9375c-.76714682-3.16914204-.76714682-3.16914204-3.125-4.0625-.89208369-1.85278919-1.78409625-3.70561266-2.67578125-5.55859375C1185.71305295 614.62731 1182.30022735 610.3563001 1179 606l-1.58203125-2.17578125c-10.2736402-13.81089354-22.93312867-26.26524409-36.80078125-36.4140625L1139 566v-2l-1.78100586-.35668946c-2.3271249-.67465883-3.76619085-1.52650149-5.72290039-2.93627929l-1.9790039-1.40234375L1127.4375 557.8125c-6.2683829-4.40765693-12.58029885-8.36631686-19.4375-11.8125l-2.00390625-1.0234375c-1.326088-.67073593-2.65976988-1.326459-3.99609375-1.9765625v-2l-2.12109375-.359375c-3.13336419-.69724794-5.95263106-1.72029915-8.94140625-2.890625l-3.46484375-1.35546875c-4.0984175-1.6458212-8.1713875-3.34547092-12.23046875-5.0859375L1072 530l-2.26831055-.93041993c-7.25783847-2.82635356-14.61898117-4.46785016-22.25683594-5.8798828-2.03996626-.377681-4.07674107-.76986156-6.11352539-1.16430665-13.72539148-2.62619448-27.05372077-3.27165116-40.98632812-3.58789062-1.78516463-.04327574-3.57032102-.08689264-5.35546875-.13085938C990.67977251 518.2004911 986.33992821 518.09896742 982 518v2l-3.40234375.1484375c-10.41925544.46704608-10.41925544.46704608-20.64453125 2.390625-2.08289354.49156287-4.07041194.67483327-6.203125.8359375-6.16450257.61108982-11.89556892 2.68937023-17.75 4.625l-3.4296875 1.08203125C924.79000293 530.68112355 924.79000293 530.68112355 920 534c-2.27734375.8515625-2.27734375.8515625-4.9375 1.625l-2.65234375.7890625C910 537 910 537 907 537v2h-4v2h-4v2l-2.97265625 1.19140625c-4.38443935 1.8847038-8.40351574 4.25125261-12.46484375 6.74609375-.77988282.47872558-1.55976563.95745117-2.36328125 1.4506836-11.0965361 6.92411282-21.54141802 14.7231507-31.0859375 23.6743164C848 578 848 578 845.29296875 580.125 842.93227048 581.79436745 842.93227048 581.79436745 842 584h-2v2c-1.62460249 1.70769503-3.29910183 3.36828282-5 5-21.37670558 21.78423376-47.7871973 60.11396485-49.55859375 91.65625C785 685 785 685 783.59765625 687.62109375c-2.14373152 4.5338087-2.88256893 9.02137292-3.72265625 13.94140625l-.52929688 2.9609375C778.4224252 709.86500716 777.76279922 715.08758747 777.5 720.5c-.34198023 6.09201992-1.73251628 8.96518083-6.265625 13.1171875C766.93709767 736.2766913 761.85972221 735.72928982 757 735c-2.55534169-1.42256136-3.33570866-2.50356299-5-5v-2h-2c-.77308407-18.21042466 1.283411-36.2274706 7.203125-53.53125.92793138-2.60889987.92793138-2.60889987 1.234375-6.03125.72333488-4.42037986 2.40545213-8.12963393 4.19140625-12.22265625 1.30576476-3.06166497 2.4371318-6.14443404 3.55859375-9.27734375C769.63756005 637.8892293 774.35192903 629.47739581 779 621l1.10791015-2.03955078C784.52134105 610.86326913 789.41671816 603.34196264 795 596c.71027343-.96550782 1.42054687-1.93101563 2.15234375-2.92578125C801.1217307 587.69566456 805.1997946 582.41889148 809.4375 577.25l2.49609375-3.046875L814 572h2l.82055664-1.80395508c1.1654985-2.1700805 2.32137302-3.59589117 4.05053711-5.33276367l1.72216796-1.73486328 1.8442383-1.81591797 1.91455077-1.89404297C831.63535548 554.24991976 837.13072716 549.49643373 843 545c.6060205-.4664795 1.21204101-.93295899 1.83642578-1.41357422 11.815879-9.07098184 23.58078736-17.55225075 37.02294922-24.05126953 2.46720006-1.20598212 4.83963291-2.45525114 7.203125-3.84765625 2.6320558-1.51203206 5.12841383-2.56386554 7.9375-3.6875 2.02293773-.9748116 4.0436138-1.95432494 6.0625-2.9375 5.33080406-2.48168506 10.44846782-4.13335925 16.171875-5.421875 4.95826058-1.14852364 9.706878-2.9072516 14.49609375-4.61328125 19.69353318-6.8420069 39.54586335-8.36354204 60.21655273-8.2331543Z"/><path fill="#03B19B" d="M1067 564v2l1.79296875.3671875C1077.37393768 568.18696884 1077.37393768 568.18696884 1081 570l1 2c2.33751549 1.22742126 4.67615504 2.37538151 7.0625 3.5 14.46994619 7.06724808 27.18725743 15.47902224 38.9375 26.5l2.24804688 2.09912109C1141.61432868 614.81822073 1151.45586416 625.91096947 1160 639l2.125 3.2421875C1166 648.43142361 1166 648.43142361 1166 652h2c6.00018599 11.86493922 11.00070221 23.0136787 14 36 .5378566 1.71625153 1.09706887 3.42611798 1.6875 5.125 1.86744493 5.43994827 2.42602096 10.08543082 2.3125 15.875h2c1.20382796 16.73655263 1.20382796 16.73655263-1.5 21.8203125-3.21716402 3.00352422-6.20980866 4.52057558-10.625 4.7421875-8.70616883-1.2637987-8.70616883-1.2637987-12.125-5.0625-2.71448661-5.42897321-3.4150387-10.8513245-4.171875-16.8359375C1158.43528847 704.73811514 1157.08092814 695.62139222 1152 688c-.4921875-1.9453125-.4921875-1.9453125-.875-4.125-1.01406743-4.90937407-2.63111383-9.5106992-5.125-13.875l-2-1c-1.21865705-2.40147124-2.36846695-4.80807957-3.5-7.25-3.91806999-8.12683842-8.69140046-14.87951586-14.5-21.75l-2.25-2.67578125c-6.53736616-7.50629722-13.71969382-14.66306338-21.9375-20.32421875L1099 615v-2l-2.25390625-.83203125c-2.54076103-1.08063663-4.45773692-2.24668114-6.68359375-3.85546875-6.01667948-4.097309-12.51349146-7.17956422-19.0625-10.3125l-1.98291016-.95996094C1062.44339677 593.8612335 1056.08131206 590.90169511 1049 589c-1.3786551-.46854648-2.75423305-.94635476-4.125-1.4375-17.45287599-5.82748571-34.69924209-5.82964396-52.88818359-5.59521484-2.57590554.0282141-5.14917699.02381633-7.72509766.01318359-37.66058223.39584473-74.74066658 22.35973351-100.66015625 48.390625C873.24557842 641.05514965 864.71429915 652.69165781 858 666l-1.40234375 2.65625C854.14155503 673.38335496 852.36566394 677.82998652 851 683c-2.62134503 6.19590643-2.62134503 6.19590643-4.01171875 9.1484375-2.73813696 6.4534529-3.42476022 12.49816131-3.92578125 19.4140625-1.22997969 15.99393864-1.22997969 15.99393864-7.6640625 21.91015625-3.52113769 2.37154251-7.23147813 3.26195648-11.40625 3.05078125-4.46856253-1.1740929-7.7416817-4.5672007-10.17578125-8.375-1.0281226-2.70558578-1.04586459-4.88212648-1.00390625-7.7734375l.01953125-2.9140625c.42176282-8.69027588 1.73827187-16.54882771 4.23046875-24.8984375l.93115234-3.15283203C822.04024279 676.09803335 827.43789805 663.2723926 834 651h2l.31640625-2.1875c3.41029631-14.03093338 18.42541459-28.05965455 28.25488281-38.32080078 1.31536312-1.37335418 2.61871944-2.75818162 3.92089844-4.14404297C883.47251568 590.80249602 901.83731122 579.64978256 921 570l3.40625-1.72265625C931.50178645 564.8393874 938.32742804 562.70398139 946 561c1.92609495-.50739072 3.85214376-1.01497505 5.77685547-1.52758789C990.14045588 549.3914996 1029.39705905 553.16823949 1067 564Z"/><path fill="#04B29D" d="M997.82202148 620.73925781c2.10844797.0107065 4.21604091.00005773 6.3244629-.0126953 10.78258878-.0121933 20.6582409 1.54079307 31.04101562 4.3984375l2.01757812.55078124c1.5994469.43725886 3.19736774.88009438 4.79492188 1.32421875v2l2.30078125.33203125L1047.3125 629.8125l2.98828125.45703125C1053.2425959 631.06565185 1054.00023023 631.81496546 1056 634c1.5166462.79938752 3.06204802 1.54543117 4.625 2.25 5.40837636 2.63785167 9.7741301 5.90147361 14.375 9.75 1.05691403.8598394 2.11423168 1.71918281 3.171875 2.578125 18.87450383 15.47139848 36.58542756 38.02450341 40.578125 62.8125 1.42068831 14.82843427 1.42068831 14.82843427-1.5859375 19.40234375-2.20603833 2.24984053-3.94558876 4.02197705-7.14453125 4.5078125-2.36064942.01253442-4.66736183-.09905798-7.01953125-.30078125l-2.2265625-.11328125C1098.11571627 734.39399515 1096.94807616 733.9080472 1095 732c-1.42147609-3.83798544-2.26487586-7.632203-3.06640625-11.63671875-1.06442118-5.31034432-2.89336199-10.2044432-4.78515625-15.27734375C1086.02884192 702.07750041 1084.998509 699.0504908 1084 696h-2l-1.03125-2.08984375c-7.62985808-14.7929961-19.15965718-24.6684202-33.73046875-32.5L1045 660v-2l-3.0625-.3125c-4.05898942-.70871244-7.21059122-1.96207927-10.9375-3.6875-4.81544465-2.2125016-9.81698012-3.05397307-15-4v-2c-31.43888422-.85803267-31.43888422-.85803267-59 12l-2.9375 1.125c-15.60269618 6.54410604-30.65024975 22.74445844-37.09375 38.2421875-1.50873414 4.10035004-2.89085906 8.2430855-4.21923829 12.4050293-.827594 2.57791161-1.6574599 5.04527216-2.87841796 7.46606445-1.0912796 1.94194685-1.0912796 1.94194685-1.18359375 5.13671875-.89423277 4.7150455-2.31732957 6.25482957-5.6875 9.625-4.19067367 2.53691608-8.21475675 2.7276309-13 2-2.875-1.9375-2.875-1.9375-5-4l-3-1c-4.50525095-13.51575284 2.57222837-29.85955992 8.45703125-42.0078125C896.18137646 677.86524012 903.35286045 667.07949653 912 658h2v-2h2v-2c8.26589215-8.77643256 18.99337923-16.19095339 30-21l2.7265625-1.234375c5.69735363-2.48779323 11.47761787-4.57500804 17.3984375-6.453125l1.9165039-.61328125C970.01845625 624.09076971 972.00146638 623.53328808 974 623l2.1574707-.57958985c7.17394014-1.68507833 14.3326315-1.72536663 21.66455078-1.68115234Z"/><path fill="#00B19C" d="M1116 1189c2.5380395 1.44278594 3.33739289 2.50608934 5 5v2l3 1c1.0968482 11.45597009-1.24204355 18.33485882-7 28h-2l-.8125 2.75c-1.09920619 3.00835378-2.27358273 4.75358617-4.1875 7.25-.70514846 2.14733927-.70514846 2.14733927-1 4h-2l-.75390625 2.17578125c-4.08029317 9.24781179-14.79215076 20.90924726-24.07421875 25.1015625L1080 1267v2c-2.01171875 1.34765625-2.01171875 1.34765625-5 3-1.23614039.70622091-2.471784 1.41331181-3.70703125 2.12109375-1.36805506.77290503-2.73655461 1.54502378-4.10546875 2.31640625l-2.04101562 1.15820312c-3.97672656 2.2414277-7.98905691 4.35194516-12.09375 6.3491211-1.42998147.73505946-2.83291163 1.52416469-4.2109375 2.35253906-5.51454259 3.31428359-10.27900448 4.78669838-16.65429688 5.51513672l-2.89355469.35205078c-9.66232067 1.01969471-19.33740726 1.15742019-29.04394531 1.21044922l-2.34585571.02407837c-10.06482637.0793956-19.74495154-.12291201-28.84164429-4.96157837-3.16391574-1.4851033-5.61920364-1.893361-9.0625-2.375-5.00329907-.7455655-7.94821615-1.93157612-12-5.0625-3.50609309-1.93150038-7.012886-3.670962-10.8125-4.9375-3.08801225-1.49989166-3.8812407-2.89997749-5.1875-6.0625-.60461536-4.66687484-.31721016-8.82902171 2-13 2.52550854-3.03061024 4.16382577-4.29061769 8-5 5.30643457-.371019 10.19138034-.56459715 15 2v2l2.37890625.55078125c4.57579574 1.09482229 8.91674057 2.14561824 13.24609375 4.01171875 9.13512167 3.89088516 18.71022934 3.80098915 28.5 3.75l2.0763855-.00350952c12.63233083-.04229184 24.39359851-.40112901 35.7986145-6.30899048 2.32548007-.69356423 4.65880445-1.36149212 7-2 8.89868411-3.22683913 17.69687845-9.69687845 24.375-16.375L1072 1238h2l.72265625-1.66015625c1.58977675-2.91215986 3.57457694-5.24346465 5.71484375-7.77734375 2.31580466-2.74310305 4.41339862-5.30674728 6.22265625-8.41015625L1088 1218h2l.25-2.5625c.73886865-3.38648132 1.97481872-5.60516093 3.7890625-8.51953125 1.08453793-2.16466717 1.40868835-4.03088822 1.7734375-6.41796875.90587527-4.4380276 2.55164471-7.2008258 5.921875-10.23828125 4.52573758-2.52036765 9.2994784-2.28871224 14.265625-1.26171875Z"/><path fill="#0C1D29" d="M1014.125 837.1875c3.08977351 1.94790069 4.69903923 3.91121898 6.875 6.8125l2.625 1.25c3.29076141 2.42477157 3.3733957 4.78022984 4.015625 8.69140625.26770622 2.11420142.26770622 2.11420142 1.359375 4.05859375.10705875 2.07614187.14888204 4.1557549.16113281 6.23461914l.02911377 3.97633362c.00485023 1.44139939.0091285 2.88280081.01287842 4.32420349a924000.7109216 924000.7109216 0 0 0 .01727295 4.43321228c.01051633 3.1045415.01635362 6.20905708.01983643 9.31361389.0054604 3.9585902.02943247 7.91683218.05797195 11.87531376.01872894 3.05684016.02383758 6.11359856.02536392 9.17049122.00300828 1.45790111.01097445 2.91580142.02418518 4.37364578.09722281 11.56228794-.93281815 20.80064209-8.53525543 29.92356682-6.10302963 5.15366946-12.09020798 5.90258765-19.8515625 5.6484375C994.12672038 946.64230927 989.73521572 945.23581911 985.125 940c-1.04401402-1.33149614-2.08584281-2.66470993-3.125-4l-1.5703125-1.375c-3.57368923-4.06189814-3.68687903-9.31162048-3.72021484-14.48144531l-.02035523-1.99336243c-.01888694-2.15951748-.02289975-4.31872248-.02505493-6.47831726-.00643564-1.51446659-.01316456-3.02893195-.02017212-4.543396-.01195042-3.17062254-.01568326-6.34113632-.01449585-9.51177978.00020278-4.03922792-.02706598-8.07774902-.06154442-12.11680985-.02237192-3.12809499-.02628995-6.25602284-.02523613-9.3841896-.00234178-1.48778207-.0110841-2.97556977-.02666473-4.4632721C976.40840801 860.32107011 977.82135646 851.13645541 985 842c7.40399306-7.01430922 19.62324649-8.4400675 29.125-4.8125Z"/><path fill="#05101D" d="M818 825c1 2 1 2 .109375 5.01171875L816.75 833.6875l-.70410156 1.93041992c-1.15145123 3.12485286-2.3698892 6.18570058-3.79589844 9.19458008-1.34903926 3.44005011-1.76606971 6.41481543-2.0390625 10.07421875C810 857 810 857 809.49670506 858.80067825c-.57704549 2.5550549-.63680023 4.88165215-.65492344 7.50175095a3576230331.071881 3576230331.071881 0 0 0-.02966309 3.25483704l-.0174408 3.55503845-.02999877 3.75541687c-.02616765 3.39427782-.04803797 6.78853237-.06800199 10.18284893-.02188723 3.54878153-.04926252 7.09752062-.07605624 10.64626789-.0498899 6.71825254-.09484244 13.4365287-.13802237 20.15482736-.04940404 7.64931015-.10431042 15.29857771-.15967959 22.94784665C808.20915558 956.53296888 808.10230424 972.26646457 808 988l2 1-5-1c-.04675567-17.22014187-.08200632-34.44026389-.10362434-51.66045475-.01030517-7.99593448-.02435098-15.99182947-.04725457-23.98773861-.01995713-6.97060165-.03284305-13.94117471-.03729808-20.91180414-.00260345-3.68964748-.00870683-7.37921315-.02328312-11.06883436-.01615393-4.12253867-.01651808-8.2449358-.01559067-12.36750603l-.02178955-3.69236755c.01836933-7.54131755.81919655-12.99452098 3.81134033-19.93629456 1.51705057-3.21106455 1.51705057-3.21106455 1.9375-6.1875C811 836 811 836 814 834v-3l2-1c.72159424-1.64363134 1.39351421-3.31050386 2-5Z"/><path fill="#6B7278" d="M803 1008c5.88396542.69361692 10.50748198 1.74414439 16 4-4 1-4 1-14-2v201h-1c-.77938758-5.5028726-1.14224847-10.81197232-1.12025452-16.36499023l-.00258916-2.43372155c-.0016368-2.66998392.00383687-5.33990391.00931829-8.00988197.00028229-1.92233783.00012333-3.84467578-.00044251-5.76701355-.00028635-5.20391525.00558424-10.40780734.01257396-15.61171722.00626047-5.44390495.00683947-10.88781046.00802541-16.33171845.00310537-10.30224357.01130807-20.6044765.02134949-30.90671539.01118578-11.73152074.0166778-23.46304199.02169543-35.19456673.01044642-24.1265642.02803049-48.25311896.05032361-72.37967491Z"/><path fill="#777E83" d="M1196 1009h7c.93619252 43.96116253 1.16199137 87.92831972 1.23591423 131.89808893.00943332 5.18087377.02680884 10.36168407.04753304 15.54252386.02546935 6.41734865.0396975 12.83461047.04029107 19.25201136.00054675 3.32998583.00735581 6.65963485.02387976 9.98960203.01714546 3.67320882.01523664 7.34595666.00882721 11.01918984l.02793122 3.20915031c-.03661164 6.63946598-.98199754 12.62443362-2.63689804 19.05549717-.76946821 3.12319047-1.31643439 6.23145428-1.80997849 9.4089365-1.19571098 7.47809408-3.50545053 14.47477455-5.9375 21.625-1.43323928-4.7194522-.02584842-8.40809575 1.734375-12.85546875 2.51701579-6.63927125 3.12767201-13.33750091 3.8359375-20.3515625C1200 1213 1200 1213 1200.51696682 1211.26517868c.72786706-3.41332441.6367956-6.8266137.64125156-10.30100632l.01496357-2.47286248c.01537263-2.73766114.023735-5.47529883.03214032-8.21298957.0095787-1.96115831.01958878-3.92231455.02999877-5.88346863.02705592-5.3280924.0480618-10.65619367.06800199-15.98431682.02185529-5.56673203.04924622-11.13343671.07605624-16.70014668.04993306-10.5431853.09486963-21.08638577.13802237-31.62960076.04936712-12.00230085.1042872-24.00457426.15967959-36.00684857.11382946-24.69128736.22066642-49.38260103.32291877-74.07393885l-7 1 1-2Z"/><path fill="#000713" d="M805 1010h5c0 3 0 3-1 5-1.26651922 10.71004439-1.16834298 21.5293079-1.20532227 32.29638672-.00960246 1.79514784-.01961384 3.59029353-.02999877 5.38543701-.0267989 4.82958155-.04794224 9.65917262-.06800199 14.48878622-.02201576 5.06351871-.04932745 10.12700892-.07605624 15.19050455-.04971778 9.56891246-.09473332 19.13784091-.13802237 28.70678437-.04955227 10.90219171-.10440311 21.80435481-.15967959 32.70651877-.11349855 22.4085007-.2204063 44.8170289-.32291877 67.22558236h-1c-.13161535-21.33453865-.26205226-42.66908424-.39115143-64.00363827-.05999259-9.90984207-.12034613-19.81968168-.18160248-29.72951603-.05349749-8.65479178-.10626373-17.30958769-.15821313-25.9643889-.02743571-4.56681996-.05519575-9.13363732-.08383704-13.70044989C805.04414169 1055.06766951 804.967337 1032.53480355 805 1010Z"/><path fill="#46515B" d="m1115 1033-2.15234375.40234375-2.78515625.53515625-2.77734375.52734375c-2.23805469.31230613-2.23805469.31230613-3.28515625 1.53515625-7.85524377 2.18361855-15.96690839 2.56223507-24.0625 3.0625-2.42864776.15345503-4.85705506.31078284-7.28515625.47265625l-3.21899414.19946289c-2.37918912.00246159-2.37918912.00246159-3.43334961 1.26538086-18.53923595 3.11971053-37.4506978 3.45628519-56.19384766 3.33618164-3.93689422-.02371623-7.87311009-.02050771-11.81005859-.01391602C958.20846971 1044.27739772 958.20846971 1044.27739772 943 1041v-1c3.00007078.14447062 6.00004925.29057259 9 .4375l2.484375.11914062c3.94536151.19427917 7.88516541.3953957 11.82421875.69506836 12.02591464.88524094 24.03593462.93441605 36.09082031.93359375 3.59354392.00219297 7.18678323.02043224 10.78027344.03930665 10.94667007.02624114 21.6676975-.06763283 32.50048828-1.73876954 4.86146395-.71145118 9.7194369-.96600046 14.62451172-1.23974609 2.66298197-.07824754 2.66298197-.07824754 4.6953125-1.24609375 1.97413098-.18780246 3.95347991-.32192819 5.93359375-.4296875l3.65820313-.22265625c2.52831903-.14638312 5.05696924-.28717277 7.5859375-.421875 6.79753392-.42417187 13.02423447-1.23040399 19.54345703-3.23583984 4.61030308-1.39583421 8.5839112-2.02844347 13.27880859-.68994141Z"/><path fill="#D0D3D4" d="M1203 1079h1c.07029151 16.72535451.12308634 33.45066061.15543652 50.17612743.01542451 7.76710627.0364288 15.53412039.07088184 23.30116749.03003842 6.77509084.04928868 13.55011489.05594712 20.32527048.00388799 3.58257547.01293135 7.16496002.03492469 10.74747389.02443659 4.01359597.02477065 8.02686662.023386 12.04053688l.03268433 3.54199219c-.02570984 6.93063884-.88011716 13.16112843-2.62522412 19.8725481-.77671057 3.10968524-1.31950478 6.20356773-1.81053638 9.36988354-1.19571098 7.47809408-3.50545053 14.47477455-5.9375 21.625-1.43323928-4.7194522-.02584842-8.40809575 1.734375-12.85546875 2.22409646-5.8666218 2.94365219-11.64511297 3.53125-17.85302734l.20703125-2.10791016.16430664-1.85766602C1200 1213 1200 1213 1201.00276184 1209.6342926c1.41994343-5.66113764 1.30517334-11.30239601 1.31608582-17.10890198l.03044128-3.72763061c.02548003-3.35069565.04240285-6.70122421.05542803-10.05197716.01569898-3.51007645.04246738-7.02006864.06803083-10.53008461.04666858-6.63665398.08347011-13.27332402.11667288-19.91005754.03830596-7.55994882.08769374-15.11981277.13798415-22.67968989.1031424-15.54192213.19245994-31.08389198.27259517-46.62595081Z"/><path fill="#0C1923" d="m1013 993 2 1v27h44v1c-10.20138745 1.97676257-19.96522153 2.24493565-30.3125 2.125-1.53059302-.01006222-3.06119254-.01918227-4.59179688-.02734375-3.69886606-.02000468-7.39680224-.05919281-11.09570312-.09765625v-31Z"/><path fill="#59626D" d="M959 1373c2.29199177.14063135 4.58359186.28765943 6.875.4375l3.8671875.24609375C973 1374 973 1374 975 1375c1.65406141.09542133 3.31193912.12795125 4.96875.12939453l3.13476562.009552L986.5 1375.1328125l3.47460938.00289917c2.42773493.00068144 4.85547167-.00117032 7.28320312-.00534058 3.72660393-.00534872 7.45308734-.00005374 11.1796875.00634766 2.35416693-.00066079 4.70833379-.00194196 7.0625-.00390625l3.39648438.00613403 3.13476562-.009552 2.76757812-.00241089c2.24455439.01589103 2.24455439.01589103 4.20117188-1.12698364 2.37402501-.07116382 4.75000677-.08409085 7.125-.0625l3.8828125.02734375L1043 1374c-3.96413211 2.54832292-8.24981334 2.67843436-12.82421875 3.1015625l-2.66252136.25357056c-9.46852681.83157908-18.92330174 1.01707796-28.42414856 1.01547241-2.9176487.00441882-5.83383247.04106395-8.75122071.07861328C979.22964553 1378.51326756 969.55086198 1377.63538729 959 1374v-1Z"/><path fill="#000009" d="M806 862h1l.01003075 1.9465847c.08114339 15.61465573.17320709 31.22920283.27749633 46.84371948.05016841 7.5509977.09661072 15.1019843.13434792 22.6530552.03289277 6.57984098.07270873 13.15959696.12091506 19.73934423.02529219 3.48544506.04706527 6.97083354.0605539 10.45634592.01517006 3.88653266.04579362 7.77285802.07780838 11.65929031l.00654602 3.52015686.03382874 3.19551087.01675987 2.78772545C807.79483136 987.207201 807.79483136 987.207201 810 989l-5-1 1-126Z"/><path fill="#09232B" d="M1107 1239h2c-.75 3.375-.75 3.375-2 7-1.31647119.69937532-2.65022151 1.36729133-4 2-.70626239 1.98636298-1.36893571 3.98848259-2 6-2.29137321 3.28430161-4.60657125 5.85082846-8 8h-2v2c-4.35294118 4-4.35294118 4-8 4v2c-4.28853694 1.88695626-8.52761347 3.58192622-13 5 1.40205505-2.80411009 3.26727293-3.53830878 6-5 2.3125-.6875 2.3125-.6875 4-1v-2c1.3984375-1.19140625 1.3984375-1.19140625 3.375-2.5625 8.3971712-6.16088751 15.14748715-12.49562174 20.75756836-21.27172852.91259663-1.41736542 1.88500668-2.7958815 2.86743164-4.16577148Z"/><path fill="#03101C" d="M989 964h4v60h-2l-.03123474-2.18844604c-.09788456-6.79831511-.20038607-13.59654652-.30810452-20.39471245-.05521846-3.49519748-.1086367-6.99040335-.15797519-10.48568917-.05676991-4.0162073-.12130774-8.03225679-.1862793-12.04833984l-.05064392-3.8132019-.06044006-3.51834107-.04710389-3.1088562C990.1583369 965.99295812 990.1583369 965.99295812 989 964Z"/><path fill="#008274" d="M1050 1286c-5.93787667 3.31098192-11.02173709 4.92511156-17.75 5.75l-2.90722656.36572266c-9.68217827 1.059316-19.36324978 1.21019092-29.09277344 1.25927734l-2.34558105.02380371C988.88990179 1293.47003259 980.59591464 1293.07130211 972 1290c3.31803928-.91585285 5.81670039-.96907495 9.25-.5625l2.703125.30859375L986 1290v2c28.99692261-.31296624 28.99692261-.31296624 57.1796875-6.29296875 2.91122096-.72982132 4.03703911-.53754214 6.8203125.29296875Z"/><path fill="#00A394" d="M1093 1208c1.28934684 2.57869369.82144674 3.65999235.1875 6.4375l-.51953125 2.37109375C1092 1219 1092 1219 1090 1222l-3 1-.4375 1.875c-.5625 2.125-.5625 2.125-2.5 3.5-2.31014553 1.4912773-2.31014553 1.4912773-2.8125 4.3125-1.82706012 4.84170932-5.21595128 8.12331809-9.25 11.3125-2.54008764.8962196-4.27105796 1-7 1 1.11878383-1.17262904 2.24523051-2.33795138 3.375-3.5l1.8984375-1.96875C1072 1238 1072 1238 1074 1238l.72265625-1.66015625c1.58977675-2.91215986 3.57457694-5.24346465 5.71484375-7.77734375 2.31580466-2.74310305 4.41339862-5.30674728 6.22265625-8.41015625L1088 1218h2l.375-2.75c.54609677-2.83970323 1.19763803-4.77590591 2.625-7.25Z"/><path fill="#017270" d="m976 1263 1.62719727.21435547c7.39893569.86491924 14.76729326.93869509 22.20703125.91601562 2.12368706-.00542322 4.24716842.00000904 6.3708496.00634766 1.35742234-.00065979 2.71484456-.0019389 4.07226563-.00390625a15000452154.6418 15000452154.6418 0 0 0 3.69506836-.00341797c3.07501281.00781441 3.07501281.00781441 6.02758789-1.12939453 1.39439664-.06665376 2.79169875-.08538199 4.1875-.0625L1028 1263c-7.0509402 4.7006268-14.34692078 4.31705155-22.5625 4.25l-3.5-.01611328C979.99009524 1266.99009524 979.99009524 1266.99009524 976 1263Z"/><path fill="#14BBA1" d="m882 594 2 1c-3.08136085 5.09431014-6.7373898 8.87639442-11.125 12.875l-1.91796875 1.796875C866.25991863 614 866.25991863 614 864 614v2h-2l-1 2-1-3c2.53741915-2.56673522 5.08069115-5.12759557 7.625-7.6875l2.16015625-2.18554688C873.70445473 601.18967621 877.6605938 597.47015607 882 594Z"/><path fill="#21BCAE" d="M834 554v3h-2l-1 3c-1.6015625 1.578125-1.6015625 1.578125-3.625 3.25-3.52870094 2.97654809-6.76009741 6.11097517-9.9296875 9.46484375C816 574 816 574 814 574l-.75 2.8125c-1.31454245 3.35208325-2.22963384 4.3752803-5.25 6.1875l-2-1c1.28419041-1.67243402 2.57757185-3.33781447 3.875-5l2.1796875-2.8125L814 572h2l.80078125-1.78417969c1.24290819-2.29654615 2.54928356-3.82415197 4.38671875-5.66894531l1.8671875-1.875L825 560.75l1.9453125-1.96875 1.8671875-1.859375 1.70703125-1.70019531C832 554 832 554 834 554Z"/><path fill="#93999D" d="m1115 1033-2.15234375.40234375-2.78515625.53515625-2.77734375.52734375c-2.23805469.31230613-2.23805469.31230613-3.28515625 1.53515625-7.85524377 2.18361855-15.96690839 2.56223507-24.0625 3.0625-2.42864776.15345503-4.85705506.31078284-7.28515625.47265625l-3.21899414.19946289c-2.37918912.00246159-2.37918912.00246159-3.43334961 1.26538086-2.86267567.07325168-5.700719.09238205-8.5625.0625l-2.44335938-.01367188c-1.99807818-.01182294-3.99611845-.02975898-5.99414062-.04882812v-1l2.9921875-.18359375L1055.875 1039.5625l3.8671875-.24609375c3.14081402-.10846652 3.14081402-.10846652 5.2578125-1.31640625 1.97413098-.18780246 3.95347991-.32192819 5.93359375-.4296875l3.65820313-.22265625c2.52831903-.14638312 5.05696924-.28717277 7.5859375-.421875 6.79753392-.42417187 13.02423447-1.23040399 19.54345703-3.23583984 4.61030308-1.39583421 8.5839112-2.02844347 13.27880859-.68994141Z"/><path fill="#010813" d="M867 792c-1.31100583 2.62201165-2.30439197 2.86500715-5 4-1.64209824.45978751-3.28452015.91850549-4.9296875 1.3671875C851.78200188 798.98361452 846.60496568 800.93002288 842 804c-2.1875-.375-2.1875-.375-4-1 2.93932305-3.32150454 5.3595681-4.76405062 9.5625-6.125 3.25845446-1.06994027 5.5583553-1.9555702 8.4375-3.875 3.70347185-1.00093834 7.17630101-1.08892323 11-1Z"/><path fill="#869097" d="M994 764h1c.04629419 7.3973076.08185426 14.79458407.10362434 22.19200706.01044736 3.43474753.02462371 6.86939611.04725457 10.30408669.02584172 3.94660263.03558602 7.89316488.04443359 11.83984375l.03128052 3.74691772.00045776 3.45767212.01345825 3.0550232C995 821 995 821 993 823c-2.65537372.56520003-5.29144713.73788198-8 1v-2c3.37097383-1.49821059 5.20442119-2 9-2v-56Z"/><path fill="#A0A6AE" d="M959 1373c2.29199177.14063135 4.58359186.28765943 6.875.4375l3.8671875.24609375C973 1374 973 1374 975 1375v2h44v1c-6.13398665.10002111-12.26748273.17200492-18.40209961.21972656-2.08016241.01992585-4.16027023.04707664-6.24023437.08203125C981.90314719 1378.50558628 970.83646061 1378.17245526 959 1374v-1Z"/><path fill="#08101B" d="M928.72265625 773.90234375 932.0625 773.9375l3.34765625.02734375L938 774c-1 2-1 2-2.78515625 2.81640625C927.02759592 779.49867784 919.58770064 780.17891043 911 780c3.01216408-2.00810938 5.15386662-2.68784766 8.625-3.5625 3.23890395-.82035231 5.94375041-2.42203194 9.09765625-2.53515625Z"/><path fill="#404751" d="M926 775c-4.0188515 1.81242323-7.61110675 3.33501617-12 4l1 2c-4.4100813 1.4700271-8.97188116 1.91036877-13.25390625-.01171875L900 780c2.72838435-.81520635 5.45764417-1.62724843 8.1875-2.4375l2.33007812-.69726562C921.67940341 773.55980114 921.67940341 773.55980114 926 775Z"/><path fill="#0A0F1C" d="M1061 1282v2l-8 4-2.05859375 1.0625c-5.24931837 2.53488211-10.16650517 3.17321025-15.94140625 2.9375v-2l2.8125-.1875c6.15045644-.85353273 11.89439901-3.97750752 17.26953125-6.97265625C1057 1282 1057 1282 1061 1282Z"/><path fill="#83888C" d="M1201 1209h1c.14179409 5.71687971-.31858355 10.95028761-1.375 16.5625l-.3828125 2.16992188c-1.13269171 6.22414095-2.83918029 12.21323864-4.8671875 18.20507812l-.7890625 2.33984375L1194 1250c-1.43323928-4.7194522-.02584842-8.40809575 1.734375-12.85546875 2.51701579-6.63927125 3.12767201-13.33750091 3.8359375-20.3515625.30929177-2.73020285.64688203-5.17675046 1.4296875-7.79296875Z"/><path fill="#010A15" d="m1013 993 2 1 1 29-3 1v-31Z"/><path fill="#061220" d="m1068 1042-1 2c-2.5263765.28628332-4.96566825.46717192-7.5.5625-4.62221389-.20955349-4.62221389-.20955349-8.5 1.4375-1.99958364.04080783-4.00045254.04254356-6 0v-1l-8-1v-1c10.33807949-1.1555538 20.61562308-1.09776087 31-1Z"/><path fill="#06101E" d="m1156 1026-1 2c-2.50662185.81763618-4.94350881 1.50708576-7.5 2.125l-2.19335938.54199219C1140.08753888 1031.89350446 1135.3725903 1032.38375645 1130 1032l1-2c2.50662185-.81763618 4.94350881-1.50708576 7.5-2.125l2.19335938-.54199219C1145.91246112 1026.10649554 1150.6274097 1025.61624355 1156 1026Z"/><path fill="#4E5860" d="M1120 784c8.51574969 1.43185172 16.67375727 3.35291087 24.875 6.0625l2.39599609.77978516C1152.87383449 792.74766898 1152.87383449 792.74766898 1154 795l-11-1v-2c-5.69398894-2.09570426-10.95198929-3.45018084-17-4v-2h-5l-1-2Z"/><path fill="#000613" d="M992 765h1l1 55-3-1 1-54Z"/><path fill="#06111D" d="M1016 941v2c-3.62346069 2.41564046-6.31603982 2.29781669-10.5 2.25l-2.05078125.0234375C999.75080743 945.25884811 998.15396663 945.10264442 995 943c2.09683513-2.09683513 6.47029404-1.41773933 9.375-1.5625l2.3671875-.13085938C1009.83143943 941.14001145 1012.90578084 941 1016 941Z"/><path fill="#2F3845" d="M819 819c1 2 1 2 .22265625 4.3828125L818.0625 826.125l-1.15234375 2.7578125L816 831h-2l1 4-4 1 .1875 2.3125C811 841 811 841 809.5 842.8125L808 844c.63864188-7.79143088.63864188-7.79143088 4-11 .84741788-1.8307618.84741788-1.8307618 1.4375-3.8125 1.35191515-3.89035158 3.14993136-6.85981912 5.5625-10.1875Z"/><path fill="#00978A" d="M1093 1208c1.28934684 2.57869369.82144674 3.65999235.1875 6.4375l-.51953125 2.37109375C1092 1219 1092 1219 1090 1222l-3 1-.3125 1.8125c-1.07752541 3.42848994-3.71014882 4.41375887-6.6875 6.1875 1.4639923-3.06875309 3.14009636-5.90434743 5-8.75l1.5625-2.421875L1088 1218h2l.375-2.75c.54609677-2.83970323 1.19763803-4.77590591 2.625-7.25Z"/><path fill="#3B434E" d="M1195 989h6v2l-9 1v2c-5.93317878 2.10396411-11.82777121 3.75971762-18 5v-2h5l1-3 5 1v-2h5v-2h5v-2Z"/><path fill="#27333E" d="m1003.1875 835.75 3.66796875-.015625C1010 836 1010 836 1013 838l-1 3h-7l-1-2 1-2-2.265625.47265625L999.75 838.0625l-2.953125.59765625c-2.664994.3238191-4.28559223.19487574-6.796875-.66015625 4.53633712-1.75062321 8.33376649-2.27080915 13.1875-2.25Z"/><path fill="#030B16" d="m1097.625 1014.9375 3.0390625.02734375L1103 1015c-1 2-1 2-2.828125 2.6328125-7.0996986 1.44284197-13.94271158 1.57114509-21.171875 1.3671875l1-2c2.21484375-.37890625 2.21484375-.37890625 4.9375-.5625 4.49522248-.31692935 8.14105792-1.55286561 12.6875-1.5Z"/><path fill="#020F1F" d="M1014 785h1c1.63618952 17.46946965 1.63618952 17.46946965 0 24l-2 1c-.02886984-3.97915159-.04675406-7.95827653-.0625-11.9375l-.02539062-3.44335938-.00976563-3.27148437-.01586914-3.03100586C1013 786 1013 786 1014 785Z"/><path fill="#2A3643" d="M850 1313c4.30091912.20004275 5.68367343.66160413 8.6875 3.875L861 1320l1.875 1.625L864 1323c-.4296875 2.0859375-.4296875 2.0859375-1 4-2.16968191-2.14285892-4.33583475-4.28908232-6.5-6.4375l-1.87890625-1.85351562-1.77734375-1.76757813-1.65039062-1.63452148C850 1314 850 1314 850 1313Z"/><path fill="#061220" d="m1015 813 .625 1.875c1.2611233 2.4340939 1.2611233 2.4340939 4.375 3.125 3 1 3 1 4.375 3.125L1025 823c-8.57142857-.85714286-8.57142857-.85714286-12-3v-4h2v-3Z"/><path fill="#677077" d="m870 790-1.80078125.2265625c-6.35095926 1.00746166-10.97765761 3.14741889-16.50390625 6.375C847.85280436 798.59521165 844.2549659 799.30246461 840 800c2.73831132-3.49082436 6.60956729-4.62298664 10.625-6.125 4.52128578-1.41159119 4.52128578-1.41159119 8.375-3.875 4.02720283-.75984959 7.07240184-1.16180608 11 0Z"/><path fill="#BCEDE4" d="m898 616 2 1-18 18-2-1c5.45466718-6.66474693 11.5575694-12.31481712 18-18Z"/><path fill="#030C1A" d="M1049 770c6.28260706-.23268915 11.88019467.59545452 18 2l-1 3h-7v-2l-10-1v-2Z"/><path fill="#030E1B" d="M1005 837v2c-3.94213201 1.90748323-7.51172472 2.35783187-11.81640625 2.65625-2.38488332.3754378-4.0897445 1.16625655-6.18359375 2.34375.66083014-2.39550925 1.45929568-3.69084131 3.6328125-4.93359375C995.56574414 837.04487152 999.70202653 836.71617999 1005 837Z"/><path fill="#050E1B" d="M887 786c-1.30636994 2.61273988-2.28409758 2.97236124-5 4-3.25.125-3.25.125-6 0v2h-7l1-3c5.3579607-2.21803143 11.20142893-3.47015441 17-3Z"/><path fill="#35424E" d="m869 1331 1.75.9375c2.13635294 1.13613436 2.13635294 1.13613436 4.1875 1.375 3.09784384 1.03261461 4.78312175 3.40812175 7.0625 5.6875h3l1 5c-4.30001343-1.44380013-7.27623738-3.60832733-10.75-6.5l-2.921875-2.40625C870 1333 870 1333 869 1331Z"/><path fill="#313F4B" d="M1041 940h1c.49193953 4.13229203.2100111 5.69398383-2.1875 9.1875-2.52704385 2.52704385-4.57621608 4.32555874-7.8125 5.8125l-2-1 1.64453125-1.79296875L1033.8125 949.8125l2.14453125-2.35546875C1037.93120161 945.08274223 1039.43201155 942.65098348 1041 940Z"/><path fill="#004E50" d="M1050 1286c-6.09372767 3.47003937-11.04526538 4.73720851-18 5.25l-2.63671875.234375c-2.11987001.1863622-4.24145323.3530656-6.36328125.515625 3.37647836-2.25098557 5.84811937-2.72316716 9.8125-3.5 3.58644439-.7072945 6.94655905-1.41292 10.38671875-2.65625 2.95702736-.89081996 3.95135058-.70677489 6.80078125.15625Z"/><path fill="#606972" d="m1103 1353 2 1c-5.5 4-5.5 4-10 4v2l-11 3 1-4h8v-3l2.1875.1875c3.34109947-.22273996 5.00935279-1.44500308 7.8125-3.1875Z"/><path fill="#00B0A1" d="m1101 1192 1 2c-.7421875 1.6640625-.7421875 1.6640625-1.875 3.625-2.22596132 4.19094787-2.78852819 7.66439462-3.125 12.375h-3c.32297514-1.66870487.66013333-3.33465333 1-5l.37109375-2.1953125c.88829602-4.7637822 1.60091046-7.7165574 5.62890625-10.8046875Z"/><path fill="#00C4AF" d="M1114 1191v1c-6.88528785 1.98614072-6.88528785 1.98614072-9.1015625 2.25390625-2.13414952.60118447-2.13414952.60118447-3.09375 2.99609375L1100.875 1200c-1.68632075 4.90566038-1.68632075 4.90566038-3.875 6 .47036242-4.79769665 1.26933764-8.01778406 4-12l1-2c3.795878-1.5183512 7.9877022-1.06687163 12-1Z"/><path fill="#040E1C" d="M1174 1022c-3.43535849 3.17175425-6.15330091 3.45766505-10.75 3.6875l-3.546875.19921875L1157 1026c4.30861518-4.30861518 11.19608827-6.00904637 17-4Z"/><path fill="#6E787F" d="M1192 827c3.58551313 1.79275656 4.29782204 6.21716083 5.6875 9.8125l1.00976562 2.48632812.93945313 2.40820313.8659668 2.20239258C1201 846 1201 846 1200 850l-2-9h-2c-3.25968109-9.41002278-3.25968109-9.41002278-4-14Z"/><path fill="#000916" d="M1026.57421875 1371.70703125c1.37140038.01987537 2.7426453.05555764 4.11328125.10546875l2.12695313.04101563c1.72884516.03528255 3.45729452.08908854 5.18554687.14648437v2l-18 1c3-3 3-3 6.57421875-3.29296875Z"/><path fill="#4ED1C4" d="M884 705c1.09651823 3.41139003.94215473 6.20655581.5625 9.75l-.30859375 2.984375L884 720h-1c-.12469099 5.57830016-.12469099 5.57830016 1 11h-2c-2.87600139-8.62800418-.47671619-17.55262872 2-26Z"/><path fill="#636B73" d="m1132 1008 9 1c-2.51884651 2.51884651-4.43644242 2.8257588-7.875 3.6875l-3.1796875.82421875c-2.79698088.46369046-4.3175045.43403823-6.9453125-.51171875l1.71484375-.5859375L1126.9375 1011.625l2.21484375-.7734375c2.03447741-.70427663 2.03447741-.70427663 2.84765625-2.8515625Z"/><path fill="#00030F" d="M928 776v2c-5.83799592 1.69832609-10.93107371 2.25287193-17 2 5.64915606-3.76610404 10.40077399-4.22755952 17-4Z"/><path fill="#00BEAE" d="M1120 1199h2c.02712153 1.916588.04645097 3.8332873.0625 5.75l.03515625 3.234375c-.08255538 2.54931001-.35148067 4.59496091-1.09765625 7.015625l-3-1 1-2.4375c1.20717135-4.30054795 1.17721353-8.13216181 1-12.5625Z"/><path fill="#3CC0B4" d="M834 730h2c-.91513319 2.28783297-1.65484646 3.73449728-3.625 5.25-3.64306872 1.15044275-6.54641454 1.05385599-10.375.75l-3-3h14l1-3Z"/><path fill="#006862" d="m972 1289 14 1v2h5v1c-6.8218683.38614349-12.49577707-.99134292-19-3v-1Z"/><path fill="#000D1B" d="m1014 765 19 2v1l-3.6484375.11328125c-1.57555261.06564803-3.15107204.13209576-4.7265625.19921875l-2.40625.06835938c-2.08090581.09699137-4.15316332.34908887-6.21875.61914062l-2 3v-7Z"/><path fill="#51D4C5" d="M818 690h1c.28938128 5.40178394-.18099083 9.12597339-2.265625 14.1015625C815.73670761 706.68063883 815.34179985 709.26560123 815 712h-1c-.62599202-7.82490023 1.67485871-14.60937233 4-22Z"/><path fill="#1ABDA6" d="M852 629c-1.12312966 3.36938898-2.53174093 4.53174093-5 7l-1 3c-2.0625.6875-2.0625.6875-4 1 1.6320125-4.76003646 4.23396027-11 10-11Z"/><path fill="#B8EEE5" d="M846 578h2c-1.46966358 3.39859703-3.38037514 5.64963709-6 8.25l-2.125 2.140625C838 590 838 590 836 590l2-4h2v-2h2l.875-1.875C844 580 844 580 846 578Z"/><path fill="#030C1B" d="M905 1353c4.77576339.4682121 8.04476345 1.24331998 12 4l-1 2c-3.91593446-.78318689-7.36406635-2.39179858-11-4v-2Z"/><path fill="#044D4D" d="m1083 1265 2 1c-.5625 1.8125-.5625 1.8125-2 4-4.1937042 2.0968521-8.53529227 3.58436096-13 5 1.40205505-2.80411009 3.26727293-3.53830878 6-5 2.3125-.6875 2.3125-.6875 4-1v-2l3-2Z"/><path fill="#04383B" d="M1107 1239h2c-.75 3.375-.75 3.375-2 7-1.875 1.1875-1.875 1.1875-4 2-1.37086915 1.29470975-2.71340837 2.62150897-4 4 1.55240237-4.96768758 4.51054781-9.17867057 8-13Z"/><path fill="#172330" d="m1024 929 2 3c-1.02840115 4.01076447-2.95987596 6.26388836-6 9l-1-3h3l-.625-2.3125C1021 933 1021 933 1023 930l1-1Z"/><path fill="#30C7B7" d="m922 505-1.79296875.5859375L917.8125 506.375l-2.4921875.8203125c-2.4309207.80652454-2.4309207.80652454-5.1328125 2.0546875-2.51004566.86058708-3.73152984.65961858-6.1875-.25 5.61091405-3.08600273 11.59361068-5.9930989 18-4Z"/><path fill="#05484D" d="m950.6875 1250.4375 3.57421875.30859375L957 1251v3l-2.10546875-.49609375c-3.12981285-.54486621-6.03251208-.60129108-9.20703125-.56640625l-3.23828125.02734375L940 1253c2.13034518-4.26069037 6.61670494-2.92524411 10.6875-2.5625Z"/><path fill="#15BBA3" d="M897 588c-1.09758507.84198307-2.20335317 1.67330671-3.3125 2.5l-1.86328125 1.40625C889.24224509 593.45432842 886.96942211 593 884 593c7.65217391-6.7826087 7.65217391-6.7826087 13-5Z"/><path fill="#06101E" d="m1192 1014-1 4c-3.375.625-3.375.625-7 1l-2-2c6.625-3 6.625-3 10-3Z"/><path fill="#24C5B1" d="m914 656 2 1-1 2h-2l-.125 1.6875c-1.34430374 3.55280274-3.88474189 5.02208953-6.875 7.3125 0-3.54404336.60989485-4.10267905 2.875-6.6875l1.6171875-1.88671875C912 658 912 658 914 658v-2Z"/><path fill="#1ABFA9" d="m925 646 2 1c-.87500817 1.34709162-1.77590933 2.67738986-2.6875 4l-1.51171875 2.25C921 655 921 655 918.29296875 655.25L916 655l9-9Z"/><path fill="#020E1B" d="M941 1366h6v2h7v2c-1.6045556-.14148989-3.20863767-.28835686-4.8125-.4375l-2.70703125-.24609375C944 1369 944 1369 941 1368v-2Z"/><path fill="#92999E" d="m898 1033 13 1v2h6v1c-6.14040005.22742222-12.09858129-.13639409-18-2l-1-2Z"/><path fill="#192430" d="m1119.6875 1031.875 2.44921875.0546875L1124 1032l-3 4-1.6875-.4375c-2.42634195-.59019128-4.86156345-1.085929-7.3125-1.5625 3.20380017-2.13586678 4.01939967-2.23132175 7.6875-2.125Z"/><path fill="#54CEC1" d="M1223 712h1c1.8417395 5.64800112 2.54775239 11.08507728 3 17-3.14934452-2.87915946-3.59485133-4.70542406-4-9-.06743079-2.67314935-.04612155-5.32495006 0-8Z"/><path fill="#535D68" d="M1053 1370h9v1c-6.25948114 2.13391403-12.42208127 2.58955515-19 3 2-2 2-2 3.9453125-2.1953125L1053 1372v-2Z"/><path fill="#28333F" d="M1174 1285c.6875 1.625.6875 1.625 1 4-1.4375 3.25-1.4375 3.25-3 6h-2l-1 2v-4h2v-5h2l1-3Z"/><path fill="#404B57" d="m828 808 2 1-2 3-.875 2.0625c-1.38557214 2.38626313-2.60614687 2.91421592-5.125 3.9375l-2 1c1.20381448-2.49361571 2.45428722-4.68143083 4-7h2l2-4Z"/><path fill="#323B47" d="M1141 791c5.26053037-.31563182 8.44573816.33409063 13 3-2.52053595 1.26026798-3.8542098.91874445-6.625.5625l-2.4765625-.30859375L1143 794v-2l-2-1Z"/><path fill="#3BC9BA" d="M755 683c1.04327633 3.33532281 1.03074612 6.15310627.75 9.625l-.203125 2.9140625C755 698 755 698 752 700c.74660712-5.72398793 1.82877141-11.34853777 3-17Z"/><path fill="#35CABC" d="m886 517 2 1c-4.03084689 4.45514656-8.05465225 6.30868049-14 7 3.28731693-3.83520308 7.25147171-6.32465344 12-8Z"/><path fill="#07101C" d="M1191 1245h1c.25 7.625.25 7.625-2 11l-2-1v-4l2-1c.65555119-2.52733235.65555119-2.52733235 1-5Zm-4 11 1 4Z"/><path fill="#007872" d="M1088 1218c1 2 1 2-.0625 5.375-1.79765752 4.02372874-4.14332043 5.51712246-7.9375 7.625 1.46818668-3.10742423 3.20025-5.90471739 5.125-8.75l1.6328125-2.421875L1088 1218Z"/><path fill="#03101E" d="M981 849h2l-1 10h-3c-.25-6.625-.25-6.625 2-10Z"/><path fill="#1D2A37" d="m1085 776 11 1v1h-8v2l-10-1v-1l7-1v-1Z"/><path fill="#26C2AD" d="M828 663h3c-.30618405 3.67420866-.75771784 4.78135513-3.5625 7.3125L825 672l3-9Z"/><path fill="#010C19" d="M1041 1370c2.1640625-.29296875 2.1640625-.29296875 4.625-.1875l2.4765625.08203125L1050 1370v2l-11 1 2-3Z"/><path fill="#034949" d="M1115 1225c1.26070809 2.9798555.99119908 4.02316031-.1875 7.125-1.80650788 2.86549526-2.68059018 3.7950311-5.8125 4.875 1.56641751-4.30764815 3.68336156-8.06171464 6-12Z"/><path fill="#C5CBD0" d="M978 828c-1.55603771 3.81936528-3.95604931 6.26044438-7 9h-2c1.54334023-3.78819874 4.55323425-9 9-9Z"/><path fill="#646C72" d="M1139.1875 1026.9375 1143 1027c-3.57631229 2.38420819-5.98310739 3.13142447-10.1875 3.0625L1129 1030c3.57631229-2.38420819 5.98310739-3.13142447 10.1875-3.0625Z"/><path fill="#404D57" d="m978 927 1 3h2v4h4v5c-5.69162996-4.1938326-5.69162996-4.1938326-7-8v-4Z"/><path fill="#25C5AD" d="M859 616c1 2 1 2 .8125 3.9375-1.0534732 2.67420119-2.38311578 3.59014593-4.8125 5.0625h-2v2l-2-1 8-10Z"/><path fill="#04111E" d="M1046 930h2c.25 2.75.25 2.75 0 6-2 2.375-2 2.375-4 4 .45822468-3.46941546.89131683-6.67395049 2-10Z"/><path fill="#010714" d="m1146 794 9 1 1 3h-4v-2h-6v-2Z"/><path fill="#192735" d="m1045 768 9 1v1h-5v2l4 1h-6l-2-5Z"/><path fill="#050E1B" d="m1033 1291-1 3h-8c2.61002376-3.48003168 4.8310422-3.27793052 9-3Z"/><path fill="#005D5A" d="M958 1285c4.71403788.47939368 8.66579301.96834048 13 3-4.00931642 1.60372657-7.05823382.38691773-11-1l-2-2Z"/><path fill="#050F1A" d="M827 1019c7.42857143-.28571429 7.42857143-.28571429 11 2v1c-7.50769231.36923077-7.50769231.36923077-10-1.5l-1-1.5Z"/><path fill="#0B0E18" d="M967 1257h4v2h5v2c-5.625.25-5.625.25-9-2v-2Z"/><path fill="#00938A" d="M1118 1215h3c-1.15585285 3.91211733-2.35534962 6.8745041-5 10v-6h2v-4Z"/><path fill="#4C555D" d="m845 999 2 4c-1.79240663-.11389875-3.58394835-.24147687-5.375-.375l-3.0234375-.2109375C836 1002 836 1002 834 1000l11 1v-2Z"/><path fill="#07121D" d="M808 987h4v2h4v2l-9-1 1-3Z"/><path fill="#303D48" d="m988 839 2 1-2 2c-.70710678 1.64991582-1.37943989 3.31562256-2 5h-3c.54226981-3.79588866 2.20127563-5.47211993 5-8Z"/><path fill="#32C6AF" d="M1108 545c6.47556391.61090226 6.47556391.61090226 8.9375 2.4375C1118 549 1118 549 1118 551c-3.59007126-1.33345504-6.79570907-2.8943231-10-5v-1Z"/><path fill="#00C0A8" d="M938 1273c3.91211733 1.15585285 6.8745041 2.35534962 10 5-5.4611399-.35233161-5.4611399-.35233161-8-1-1.5-2.0625-1.5-2.0625-2-4Z"/><path fill="#009F91" d="m1057 1251 1 3c-1.97746603.73080266-3.98072489 1.39421747-6 2l-2-1c4.75-4 4.75-4 7-4Z"/><path fill="#018482" d="m1101 1192 1 2c-1.68474722 3.36949443-2.8191658 4.87944386-6 7 1.09068668-3.77545388 1.9083091-6.47043472 5-9Z"/><path fill="#5B636A" d="M1173 1020c-3.16240582 2.10827055-4.50657469 2.33817465-8.1875 2.625l-2.73046875.2265625L1160 1023c3.45333435-3.45333435 8.36345001-4.85462 13-3Z"/><path fill="#29313C" d="m1180 994 4 2c-6.625 3-6.625 3-10 3v-2h5l1-3Z"/><path fill="#020C1D" d="m824 815 1 3-2 3h-2l-1 3-1-3c1.40445835-2.2636564 3.1967913-4.0208685 5-6Z"/><path fill="#030E1D" d="M816 1249c3 3 3 3 3.1875 6.1875L819 1258h-2l-1-9Z"/><path fill="#008E84" d="M1081 1231v4l-2.375.9375c-2.54830128.99125038-2.54830128.99125038-4.625 2.0625 3.13793103-7 3.13793103-7 7-7Z"/><path fill="#46525E" d="M819 819c1 2 1 2 .3125 4.5-1.46817038 2.79651501-2.40553901 3.43411431-5.3125 4.5 1.2491742-3.45925163 2.67527795-6.14693203 5-9Z"/><path fill="#42CFBD" d="M824 672h1l1 6-5 4 3-10Z"/><path fill="#48CBB7" d="M1175 668c2.18975773 3.28463659 2.99806563 6.20696275 4 10l-4-2v-8Z"/><path fill="#6AD7C8" d="M762 659c1.29567565 2.5913513 1.34250494 4.12295849 1 7-2 2.3125-2 2.3125-4 4-.39253254-4.44870215.84694043-7.14243493 3-11Z"/><path fill="#080E1A" d="m946 1282 7 1 1 3-8-2v-2Z"/><path fill="#035453" d="M938 1276c1.48199902.44909061 2.96055236.90956564 4.4375 1.375l2.49609375.7734375C947 1279 947 1279 948 1281h-7v-3l-3-1v-1Z"/><path fill="#040E1A" d="M1013 963h4c-.60183749 2.02045442-1.27306096 4.02111039-2 6l-2 1v-7Z"/><path fill="#050E1E" d="M1040 836h2v3h2v4l-3-1-1-6Z"/><path fill="#07111C" d="m1090 1356 3 1v2c-2.70879335 1.35439668-5.00933268 1.06501451-8 1 2.3125-2.0625 2.3125-2.0625 5-4Z"/><path fill="#1C2836" d="m1145 1321 3 1-6 5c.375-2.4375.375-2.4375 1-5l2-1Z"/><path fill="#56626A" d="m960 928 1 4h2l1 5-4-1v-8Z"/><path fill="#061422" d="m989 817 3 3c-3.375.625-3.375.625-7 1l-2-2h6v-2Z"/><path fill="#2CCAB4" d="M906 579v2h-2l-1 3h-5c4.83870968-5 4.83870968-5 8-5Z"/></svg>