<?xml version="1.0" encoding="UTF-8"?>
<svg xmlns="http://www.w3.org/2000/svg" width="83" height="62" viewBox="0 0 83 62" fill="none">
  <path opacity="0.35" d="M45.5427 12.9553C44.6449 13.1119 43.7241 13.2725 42.7876 13.4375C42.7226 13.1011 42.6375 12.762 42.5276 12.4192C41.8292 10.1554 40.2328 8.29769 38.1975 7.00073C36.1122 5.67204 33.5512 5 30.8694 5C29.5139 5 28.0636 5.19212 26.7037 5.58071C23.8875 6.35982 21.6477 7.83665 20.0368 9.73683C18.3992 11.6687 17.5136 14.0269 17.5136 16.4921C17.5136 16.9895 17.5616 17.4944 17.6438 17.9889C16.7922 18.1475 16.1362 18.2781 15.7377 18.3701C13.7003 18.8022 10.7832 19.5533 8.23869 21.6267L8.23249 21.6319L8.22633 21.6369C7.10976 22.5612 6.27866 23.8003 5.81239 25.2115L5.7935 25.2686C5.43974 26.3388 5 27.6691 5 29.3944V29.3953V29.3963V29.3973V29.3993V29.4003V29.4013V29.4022V29.4032V29.4042V29.4052V29.4062V29.4072V29.4082V29.4102V29.4112V29.4122V29.4132V29.4142V29.4152V29.4162V29.4173V29.4183V29.4193V29.4204V29.4214V29.4224V29.4234V29.4245V29.4255V29.4265V29.4275V29.4286V29.4296V29.4306V29.4317V29.4327V29.4337V29.4348V29.4359V29.437V29.438V29.4391V29.4401V29.4412V29.4422V29.4433V29.4443V29.4454V29.4464V29.4475V29.4485V29.4496V29.4507V29.4517V29.4528V29.4539V29.455V29.456V29.4571V29.4582V29.4593V29.4603V29.4614V29.4625V29.4636V29.4647V29.4658V29.4668V29.4679V29.469V29.4702V29.4713V29.4724V29.4735V29.4746V29.4757V29.4768V29.4779V29.479V29.4801V29.4812V29.4823V29.4834V29.4846V29.4857V29.4868V29.4879V29.489V29.4901V29.4912V29.4923V29.4934V29.4945V29.4956V29.4968V29.4979V29.499V29.5002V29.5013V29.5024V29.5036V29.5047V29.5058V29.507V29.5081V29.5092V29.5104V29.5115V29.5127V29.5138V29.515V29.5161V29.5173V29.5184V29.5196V29.5207V29.5219V29.523V29.5242V29.5253V29.5265V29.5276V29.5288V29.5299V29.531V29.5322V29.5334V29.5345V29.5357V29.5368V29.538V29.5392V29.5404V29.5415V29.5427V29.5439V29.545V29.5462V29.5474V29.5486V29.5497V29.5509V29.552V29.5532V29.5544V29.5555V29.5567V29.5579V29.5591V29.5603V29.5615V29.5627V29.5638V29.565V29.5662V29.5674V29.5686V29.5697V29.5709V29.5721V29.5733V29.5745V29.5757V29.5769V29.5781V29.5793V29.5805V29.5817V29.5829V29.5841V29.5852V29.5864V29.5876V29.5888V29.59V29.5912V29.5924V29.5936V29.5948V29.596V29.5972V29.5984V29.5996V29.6007V29.6019V29.6031V29.6044V29.6056V29.6068V29.608V29.6092V29.6104V29.6116V29.6129V29.614V29.6152V29.6164V29.6176V29.6188V29.6201V29.6213V29.6225V29.6237V29.6249V29.6261V29.6273V29.6285V29.6297V29.6309V29.6321V29.6334V29.6346V29.6358V29.637V29.6383V29.6394V29.6406V29.6418V29.6431V29.6443V29.6455V29.6467V29.648V29.6492V29.6504V29.6516V29.6528V29.654V29.6552V29.6564V29.6577V29.6589V29.6601V29.6614V29.6626V29.6638V29.6649V29.6662V29.6674V29.6686V29.6699V29.6711V29.6723V29.6735V29.6748V29.6759V29.6771V29.6784V29.6796V29.6808V29.682V29.6833V29.6845V29.6857V29.687V29.6881V29.6893V29.6906V29.6918V29.693V29.6942V29.6955V29.6967V29.6979V29.6992V29.7003V29.7015V29.7027V29.704V29.7052V29.7064V29.7077V29.7089V29.7101V29.7113V29.7125V29.7137V29.7149V29.7162V29.7174V29.7186V29.7198V29.7211V29.7223V29.7235V29.7246V29.7259V29.7271V29.7283V29.7295V29.7308V29.732V29.7332V29.7344V29.7357V29.7368V29.738V29.7392V29.7404V29.7417V29.7429V29.7441V29.7453V29.7465V29.7478V29.749V29.7501V29.7513V29.7525V29.7538V29.755V29.7562V29.7574V29.7586V29.7598V29.761V29.7622V29.7634V29.7646V29.7658V29.767V29.7682V29.7694V29.7706V29.7718V29.7731V29.7743V29.7755V29.7766V29.7778V29.779V29.7802V29.7814V29.7826V29.7838V29.785V29.7862V29.7874V29.7886V29.7898V29.791V29.7921V29.7933V29.7945V29.7957V29.7969V29.7981V29.7993V29.8005V29.8017V29.8029V29.8041V29.8052V29.8064V29.8076V29.8087V29.8099V29.8111V29.8123V29.8135V29.8146V29.8158V29.817V29.8182V29.8194V29.8205V29.8217V29.8229V29.8241V29.8253V29.8264V29.8275V29.8287V29.8298V29.831V29.8322V29.8334V29.8345V29.8357V29.8369V29.838V29.8392V29.8403V29.8415V29.8427V29.8438V29.845V29.8461V29.8473V29.8485V29.8496V29.8507V29.8518V29.853V29.8541V29.8553V29.8564V29.8576V29.8587V29.8598V29.861V29.8621V29.8633V29.8644V29.8655V29.8667V29.8678V29.8689V29.8701V29.8712V29.8723V29.8735V29.8746V29.8757V29.8768V29.878V29.8791V29.8802V29.8813V29.8825V29.8836V29.8847V29.8858V29.8869V29.888V29.8891V29.8902V29.8914V29.8925V29.8936V29.8947V29.8958V29.8969V29.898V29.8991V29.9002V29.9013V29.9023V29.9034V29.9045V29.9056V29.9067V29.9078V29.9089V29.91V29.911V29.9121V29.9132V29.9143V29.9153V29.9164V29.9175V29.9186V29.9196V29.9207V29.9218V29.9228V29.9239V29.9249V29.926V29.9271V29.9282V29.9293V29.9303V29.9314V29.9324V29.9335V29.9345V29.9355V29.9366V29.9376V29.9387V29.9397V29.9407V29.9418V29.9428V29.9438V29.9449V29.9459V29.947V29.948V29.949V29.9501V29.9511V29.9521V29.9531V29.9541V29.9551V29.9561V29.9571V29.9581V29.9592V29.9602V29.9612V29.9622V29.9632V29.9642V29.9652V29.9662V29.9672V29.9682V29.9691V29.9702V29.9712V29.9722V29.9741V29.9751V29.976V29.977C5 32.9392 5.18063 38.8905 5.5401 44.5816C5.65131 46.3422 6.20974 47.7983 6.87602 48.9358C7.57077 50.122 8.49211 50.9953 9.3341 51.5653L9.74001 51.8677L9.913 51.9966L10.0317 52.0519C10.0395 52.0573 10.0486 52.0636 10.06 52.0716L10.067 52.0765C10.1074 52.1048 10.1828 52.1574 10.2641 52.2095C10.313 52.2408 10.3752 52.2792 10.4487 52.3201C10.9438 52.649 11.4261 52.8662 11.9124 53.0498C13.6055 53.7728 15.426 53.949 16.9596 54.0337L27.6491 54.8633C27.6511 54.8635 27.6532 54.8636 27.6552 54.8638C37.6652 55.6962 48.0544 56.5303 58.0028 57.1146L58.0668 57.1183H58.1311H58.1326H58.1342H58.1358H58.1373H58.1389H58.1405H58.1421H58.1436H58.1452H58.1468H58.1483H58.1499H58.1515H58.153H58.1547H58.1562H58.1577H58.1594H58.1609H58.1625H58.164H58.1656H58.1672H58.1687H58.1704H58.1719H58.1734H58.1751H58.1766H58.1781H58.1798H58.1813H58.1829H58.1845H58.186H58.1876H58.1892H58.1908H58.1923H58.1939H58.1955H58.197H58.1986H58.2002H58.2017H58.2034H58.2049H58.2064H58.2081H58.2096H58.2112H58.2128H58.2143H58.2159H58.2174H58.2191H58.2206H58.2221H58.2238H58.2253H58.2268H58.2285H58.23H58.2316H58.2332H58.2347H58.2363H58.2379H58.2395H58.241H58.2426H58.2442H58.2457H58.2474H58.2489H58.2504H58.2521H58.2536H58.2551H58.2568H58.2583H58.2599H58.2615H58.263H58.2646H58.2662H58.2678H58.2693H58.2709H58.2725H58.274H58.2756H58.2772H58.2787H58.2803H58.2819H58.2834H58.285H58.2866H58.2882H58.2897H58.2913H58.2929H58.2944H58.2961H58.2976H58.2991H58.3008H58.3023H58.3039H58.3055H58.307H58.3086H58.3102H58.3117H58.3133H58.3149H58.3165H58.318H58.3196H58.3212H58.3227H58.3243H58.3259H58.3274H58.329H58.3306H58.3322H58.3337H58.3353H58.3369H58.3384H58.34H58.3416H58.3431H58.3448H58.3463H58.3478H58.3495H58.351H58.3526H58.3542H58.3557H58.3573H58.3589H58.3604H58.362H58.3636H58.3652H58.3667H58.3683H58.3699H58.3714H58.3731H58.3746H58.3761H58.3778H58.3793H58.3809H58.3824H58.384H58.3856H58.3871H58.3887H58.3903H58.3918H58.3935H58.395H58.3965H58.3982H58.3997H58.4013H58.4029H58.4044H58.406H58.4076H58.4092H58.4107H58.4123H58.4139H58.4154H58.417H58.4186H58.4201H58.4218H58.4233H58.4248H58.4265H58.428H58.4296H58.4312H58.4327H58.4343H58.4358H58.4375H58.439H58.4405H58.4422H58.4437H58.4452H58.4469H58.4484H58.45H58.4516H58.4531H58.4547H58.4563H58.4579H58.4594H58.461H58.4626H58.4641H58.4658H58.4673H58.4688H58.4705H58.472H58.4735H58.4752H58.4767H58.4783H58.4799H58.4814H58.483H58.4846H58.4862H58.4877H58.4892H58.4909H58.4924H58.494H58.4956H58.4971H58.4987H58.5003H58.5018H58.5034H58.505H58.5066H58.5081H58.5097H58.5113H58.5128H58.5145H58.516H58.5175H58.5192H58.5207H58.5223H58.5239H58.5254H58.527H58.5286H58.5301H58.5317H58.5333H58.5349H58.5364H58.538H58.5396H58.5411H58.5427H58.5443H58.5458H58.5474H58.549H58.5505H58.5521H58.5537H58.5553H58.5568H58.5584H58.56H58.5615H58.5632H58.5647H58.5662H58.5679H58.5694H58.571H58.5726H58.5741H58.5757H58.5773H58.5788H58.5804H58.582H58.5836H58.5851H58.5867H58.5883H58.5898H58.5914H58.593H58.5945H58.5961H58.5977H58.5993H58.6008H58.6024H58.604H58.6055H58.6071H58.6087H58.6102H58.6119H58.6134H58.6149H58.6166H58.6181H58.6197H58.6213H58.6228H58.6244H58.626H58.6276H58.6291H58.6307H58.6323H58.6338H58.6354H58.637H58.6385H58.6402H58.6417H58.6432H58.6448H58.6464H58.648H58.6495H58.6511H58.6527H58.6542H58.6559H58.6574H58.6589H58.6606H58.6621H58.6636H58.6653H58.6668H58.6684H58.67H58.6715H58.6731H58.6747H58.6763H58.6778H58.6794H58.681H58.6825H58.6841H58.6857H58.6872H58.6888H58.6904H58.6919H58.6935H58.6951H58.6967H58.6982H58.6998H58.7014H58.7029H58.7046H58.7061H58.7076H58.7093H58.7108H58.7123H58.714H58.7155H58.7171H58.7187H58.7202H58.7218H58.7234H58.725H58.7265H58.7281H58.7297H58.7312H58.7329H58.7344H58.7359H58.7376H58.7391H58.7406H58.7423H58.7438H58.7454H58.747H58.7485H58.7501H58.7517H58.7533H58.7548H58.7563H58.758H58.7595H58.761H58.7627H58.7642H58.7658H58.7674H58.7689H58.7705H58.7721H58.7737H58.7752H58.7768H58.7784H58.7799H58.7816H58.7831H58.7846H58.7863H58.7878H58.7893H58.791H58.7925H58.7941H58.7957H58.7972H58.7988H58.8004H58.802H58.8035H58.8051H58.8067H58.8082H58.8098H58.8114H58.8129H58.8145H58.8161H58.8176H58.8192H58.8208H58.8224H58.8239H58.8255H58.8271H58.8286H58.8303H58.8318H58.8333H58.835H58.8365H58.8381H58.8397H58.8412H58.8428H58.8444H58.8459H58.8475H58.8491H58.8507H58.8522H58.8538H58.8554H58.8569H58.8585H58.8601H58.8616H58.8632H58.8648H58.8664H58.8679H58.8695H58.8711H58.8726H58.8742H58.8758H58.8773H58.879H58.8805H58.882H58.8837H58.8852H58.8868H58.8884H58.8899H58.8915H58.8931H58.8947H58.8962H58.8978H58.8994H58.9009H58.9025H58.9041H58.9056H58.9073H58.9088H58.9103H58.9119H58.9135H58.9151H58.9166H58.9182H58.9198H58.9213H58.923H58.9245H58.926H58.9277H58.9292H58.9307H58.9324H58.9339H58.9355C61.0913 57.1183 63.0123 56.6101 64.8572 55.7509L64.8788 55.7409L64.9001 55.7305C66.6814 54.8522 68.3421 53.5895 69.7776 51.8707C70.5752 50.9157 71.1095 49.8934 71.5861 48.8282C72.1026 47.6738 72.4976 46.3705 72.7873 44.8535C72.9189 44.2761 73.0825 43.568 73.2689 42.7615C73.9655 39.7466 74.9798 35.3571 75.8264 31.2832C76.3618 28.7071 76.8944 26.2282 77.3359 24.3369L77.3473 24.288L77.3561 24.2384C77.5293 23.2708 77.697 22.4961 77.8566 21.9014C78.0428 21.2076 78.1152 20.4788 78.2159 19.771C78.2291 19.6798 78.2422 19.5887 78.253 19.4972C78.2653 19.392 78.28 19.2414 78.28 19.0726C78.28 17.5232 77.94 16.1111 77.1397 14.7167C76.1326 12.8601 74.3601 11.5498 72.3742 10.6713C71.8271 10.4293 71.2712 10.2356 70.6953 10.0747C69.5394 9.75181 68.3387 9.66145 67.2481 9.66145H67.2076C66.6974 9.66138 65.963 9.66127 65.2037 9.75963C64.7631 9.80664 64.0971 9.90604 63.3162 10.0226C62.6282 10.1253 61.8511 10.2413 61.0604 10.3465L61.0533 10.3474L61.0463 10.3484C59.2425 10.6004 57.076 10.9364 54.8137 11.3571L52.1647 11.7683L52.1272 11.7741L52.09 11.7813C50.157 12.1505 47.9307 12.5388 45.5427 12.9553Z" stroke="white" stroke-opacity="0.12" stroke-width="8.08861"></path>
  <path d="M72.5744 13.1403C71.771 12.6426 70.9675 12.3107 70.0747 12.0619C69.1819 11.813 68.1998 11.73 67.2178 11.73C66.6822 11.73 66.0572 11.73 65.4322 11.813C64.6288 11.896 63.2004 12.1448 61.3255 12.3937C59.54 12.6426 57.3973 12.9744 55.1654 13.3891L52.4871 13.804C49.0053 14.4676 44.4521 15.2143 39.899 16.0438L40.0776 16.7074L40.7917 16.7904C40.8811 16.3756 40.8811 16.0438 40.8811 15.629C40.8811 14.7165 40.7917 13.8869 40.5239 13.0574C39.9883 11.3153 38.7384 9.82204 37.0421 8.74361C35.3458 7.66517 33.2032 7.08447 30.882 7.08447C29.7214 7.08447 28.4715 7.25039 27.3109 7.58222C24.9004 8.24586 23.0256 9.49022 21.6865 11.0664C20.3473 12.6426 19.633 14.5505 19.633 16.5415C19.633 17.3711 19.8116 18.2836 20.0795 19.1132C20.2581 19.6109 20.4366 20.0257 20.6151 20.4405L21.3293 20.1087L21.1508 19.445C18.7403 19.8598 16.9548 20.1916 16.2406 20.3575C14.2765 20.7723 11.7767 21.436 9.63403 23.178C8.83054 23.8417 8.2056 24.7543 7.8485 25.8327C7.49138 26.9111 7.13428 27.9896 7.13428 29.3998C7.13428 29.5657 7.13428 29.8146 7.13428 29.9805C7.13428 32.884 7.31283 38.7738 7.66994 44.4149C7.75922 45.8252 8.2056 46.9866 8.74127 47.8991C9.27693 48.8116 9.99115 49.4752 10.6161 49.89L11.0625 50.2219C11.241 50.3049 11.4196 50.4707 11.5981 50.5537C11.9552 50.8026 12.3124 50.9685 12.7587 51.1344C14.0979 51.7151 15.6156 51.881 17.1333 51.964L27.8466 52.7935C37.8456 53.6231 48.2017 54.4527 58.1116 55.0333C58.3794 55.0333 58.6472 55.0333 58.9151 55.0333C60.7006 55.0333 62.3075 54.6186 63.9145 53.8719C65.4322 53.1254 66.8607 52.0469 68.1106 50.5537C68.7355 49.8071 69.1819 48.9775 69.6283 47.9821C70.0747 46.9866 70.4318 45.8252 70.6996 44.4149C71.3246 41.6774 72.6637 36.0363 73.735 30.893C74.2707 28.3213 74.8064 25.8327 75.2528 23.9246C75.4313 22.9291 75.6099 22.0996 75.7885 21.436C75.8777 21.1041 75.8777 20.8552 75.9669 20.6064C75.9669 20.3575 76.0562 20.1916 76.0562 20.0257C76.0562 19.6938 76.1455 19.3621 76.1455 19.1132C76.1455 17.8688 75.8777 16.7904 75.2528 15.7119C74.8406 14.946 73.7836 13.5667 72.5744 13.1403Z" fill="url(#paint0_linear_34_149075)"></path>
  <path d="M20.1536 41.3461V40.1917C20.1536 39.7794 20.0641 39.4496 19.8854 39.2022C19.7065 38.7074 19.3489 38.625 19.1701 38.625C19.0807 38.625 18.9019 38.625 18.5443 38.625V38.5426V38.625H18.0972C17.829 38.625 17.5609 38.625 17.382 38.7074C17.1138 38.8723 16.935 39.0372 16.935 39.3671C16.935 39.532 17.0244 39.697 17.1138 39.7794L17.2032 39.8618H17.2927C17.6502 39.697 18.0078 39.6145 18.2761 39.6145C18.5443 39.6145 18.8125 39.697 18.9019 39.7794C18.9912 39.8618 19.0807 40.1092 19.0807 40.2741V40.3566V40.604L18.9912 40.5215C18.6337 40.3566 18.3654 40.2741 18.0078 40.2741C17.2927 40.2741 16.8456 40.7689 16.7562 41.5934V42.0881C16.7562 42.8303 16.8456 43.325 17.1138 43.6549C17.2927 43.9022 17.6502 43.9847 18.2761 43.9847C18.5443 43.9847 18.8125 43.9022 19.0807 43.7373L19.1701 43.6549L19.2595 43.8198C19.3489 43.9847 19.4383 43.9847 19.6172 43.9847L19.8854 43.9022C19.9747 43.8198 20.0641 43.6549 20.0641 43.4899C20.0641 43.4899 20.0641 42.8303 20.0641 42.5005V42.0881L20.1536 41.3461ZM19.1701 42.8303C19.0807 42.9952 18.8125 43.0777 18.4549 43.0777C18.0972 43.0777 17.9185 43.0777 17.9185 42.9952H17.829C17.829 42.9128 17.7396 42.8303 17.7396 42.418V42.2531C17.7396 41.7584 17.829 41.5934 17.829 41.511C17.9185 41.511 18.0078 41.4285 18.3654 41.4285C18.7231 41.4285 18.9912 41.511 19.0807 41.7584L19.1701 42.8303ZM16.5774 43.4899C16.5774 43.6549 16.488 43.7373 16.3985 43.8198C16.3092 43.9022 16.1304 43.9847 15.4151 43.9847H15.1469H14.8787H14.6999C14.3423 43.9847 14.2529 43.9847 14.2529 43.9847C14.1635 43.9847 13.9847 43.9022 13.8953 43.6549C13.8058 43.5724 13.8058 43.4899 13.8058 43.4075L13.7164 39.1197V39.0372C13.7164 38.7899 13.8953 38.625 14.1635 38.625C14.3423 38.625 14.4317 38.7074 14.5211 38.7899L14.6105 39.0372V42.8303H15.7727C15.8622 42.8303 15.9516 42.8303 15.9516 42.8303C16.0409 42.8303 16.1304 42.8303 16.3092 42.9952C16.5774 43.2425 16.5774 43.4075 16.5774 43.4899ZM14.2529 30.0494C14.4317 29.967 14.8787 29.8846 15.594 29.8021C16.488 29.7197 16.7562 29.8021 16.8456 29.967C17.0244 30.1319 17.1138 30.3793 17.1138 30.5442C17.1138 30.7091 17.1138 30.9565 16.8456 31.1214C16.8456 31.1214 16.8456 31.1214 16.7562 31.2038H16.6667C16.2198 31.0389 15.7727 31.0389 15.1469 31.0389C14.8787 31.0389 14.7893 31.1214 14.6999 31.2038C14.6999 31.2863 14.5211 31.4512 14.5211 31.8636V32.1109C14.5211 32.2758 14.5211 32.4407 14.6105 32.5232L15.6833 32.4407C16.3092 32.4407 16.6667 32.6881 16.7562 32.9355C17.0244 33.1004 17.1138 33.4302 17.1138 33.76V33.8425V34.667C17.1138 35.8214 16.6667 36.4811 15.8622 36.4811H14.9681C14.5211 36.4811 14.3423 36.4811 14.3423 36.4811C13.9847 36.3987 13.8058 36.1513 13.8058 35.739C13.8058 35.4916 13.8953 35.3268 13.9847 35.1618C13.9847 35.1618 13.9847 35.1618 14.074 35.0794C14.1635 35.0794 14.1635 35.0794 14.1635 35.0794C14.6105 35.2443 15.0575 35.3268 15.5045 35.2443C15.8622 35.2443 15.9516 35.1618 15.9516 35.0794C16.0409 34.9969 16.1304 34.7495 16.1304 34.1724C16.1304 33.76 16.0409 33.5951 15.9516 33.5126L15.8622 33.4302H15.7727H15.3258C14.8787 33.5126 14.7893 33.5126 14.7893 33.5126C14.3423 33.5126 13.9847 33.3477 13.8058 32.9355C13.6271 32.9355 13.5376 32.5232 13.5376 31.7811C13.5376 30.9565 13.8058 30.3793 14.2529 30.0494ZM26.2331 36.2338C26.4118 36.2338 26.5013 36.1513 26.68 36.0688C26.8589 35.9039 26.9482 35.739 26.9482 35.574C26.9482 35.4092 26.8589 35.2443 26.7695 35.0794L26.68 34.9969L26.5013 34.667L25.786 33.5126H25.8754C26.233 33.4302 26.5013 33.2652 26.68 33.018C26.8589 32.7706 27.0377 32.3582 27.0377 31.7811C27.0377 31.6162 27.0377 31.4512 27.0377 31.2863V30.7916C27.0377 30.2144 26.8589 29.8021 26.5906 29.5548C26.3224 29.3898 26.0542 29.3074 25.6072 29.3074C25.0708 29.3074 24.6237 29.5548 24.1768 29.8846L24.0873 29.967L23.9979 29.8021C23.9979 29.7197 23.9086 29.6372 23.9086 29.6372C23.8191 29.4723 23.6403 29.3074 23.3721 29.3074C23.0145 29.3074 22.9251 29.7197 22.9251 29.8021C22.9251 29.8846 22.9251 30.2968 22.8357 35.4916V35.739L22.9251 36.0688C23.0145 36.2338 23.1933 36.3162 23.3721 36.2338C23.7297 36.2338 23.9086 36.0688 23.9086 35.739V35.6565V33.5951V33.5126H24.0873V33.5951L25.6072 35.9864C25.9648 36.1513 26.0542 36.2338 26.2331 36.2338ZM24.892 32.4407L24.0873 32.3582V30.7091C24.2661 30.6267 24.5344 30.5442 24.892 30.4618C25.5178 30.3793 25.6966 30.6267 25.6966 30.7091C25.6966 30.7916 25.786 30.9565 25.786 31.1214C25.786 31.2863 25.786 31.4512 25.786 31.6162V31.6986C25.786 31.8636 25.786 32.3582 24.892 32.4407ZM21.8522 35.4916C21.8522 35.2443 21.7628 35.0794 21.5841 34.9969H21.4946C20.6006 35.1618 19.9747 35.3268 19.7065 35.3268C19.4383 35.3268 19.3489 35.3268 19.2595 35.2443C19.1701 35.1618 19.0807 34.7495 19.0807 34.2548V33.925V33.6776L19.1701 33.76C19.5277 33.925 19.8854 34.0074 20.243 34.0074C20.8688 34.0074 21.4052 33.8425 21.5841 33.5126C21.9417 33.1828 22.031 32.5232 22.031 31.5337C22.031 30.7916 21.8522 30.2144 21.5841 29.967C21.4052 29.5548 20.9581 29.4723 20.4217 29.4723H19.5277C19.0807 29.5548 18.7231 29.7197 18.4549 29.967C18.0972 30.2968 18.0078 30.7916 18.0078 31.5337C18.0078 31.5337 18.0078 31.5337 18.0078 34.667V34.7495C18.0078 35.1618 18.0972 35.574 18.2761 35.8214C18.5443 36.3162 18.9019 36.3987 19.0807 36.3987H20.1536C21.2264 36.3987 21.4946 36.2338 21.6734 36.0688C21.8522 35.9039 21.8522 35.6565 21.8522 35.4916ZM18.9912 31.5337V31.4512C18.9912 31.2038 19.0807 31.0389 19.1701 30.9565C19.3489 30.8741 19.5277 30.7916 19.7959 30.7916L20.243 30.7091C20.5112 30.7091 20.6899 30.7092 20.7794 30.8741C20.9582 30.9565 20.9582 31.2038 20.9582 31.3688V31.6986C20.9582 32.1109 20.8688 32.3582 20.7794 32.4407C20.6899 32.4407 20.6006 32.6056 20.0641 32.6056H19.4383C19.3489 32.6056 19.2595 32.5232 19.0807 32.5232H18.9912V31.5337ZM63.8722 30.4618L64.051 28.4828C64.051 27.8231 63.9615 27.3284 63.6933 26.9161C63.4251 26.4214 62.9781 26.174 62.4417 26.2565C62.3523 26.2565 62.0841 26.2565 61.3688 26.3389H61.1006H60.1172C59.4914 26.3389 59.0443 26.5039 58.6867 26.5863C57.9714 26.8336 57.7927 27.3284 57.7927 27.6582V27.7406C57.7927 27.988 57.8821 28.153 58.1503 28.3179L58.2397 28.4003L58.3291 28.3179C59.0443 27.988 59.849 27.8231 60.4748 27.7406C61.0112 27.7406 61.637 27.7406 61.9946 28.153C62.0841 28.3179 62.1735 28.4828 62.1735 28.7302C62.1735 28.8126 62.1735 28.895 62.1735 29.06L62.0841 29.7197L61.9946 29.6372C61.2794 29.3074 60.4748 29.2249 59.6701 29.2249C58.1503 29.3074 57.3456 30.0494 57.0774 31.4512L56.988 32.2758C56.8987 33.5126 56.988 34.2548 57.435 34.667C57.7927 34.9969 58.5079 35.1618 59.5808 35.0794C60.1172 35.0794 60.743 34.832 61.4583 34.5021L61.5477 34.4196V34.5021C61.5477 34.5846 61.637 34.667 61.637 34.667C61.7264 34.7495 61.9052 34.9144 62.2628 34.9144C62.4417 34.9144 62.6205 34.832 62.7993 34.7495C63.0675 34.5846 63.1569 34.3372 63.2463 34.1724L63.4251 32.2758C63.6039 32.3582 63.6039 32.3582 63.8722 30.4618ZM61.7264 33.1004C61.637 33.2652 61.2794 33.5951 60.0278 33.5951C59.1337 33.5951 58.8655 33.5951 58.7761 33.5126C58.6867 33.4302 58.5974 33.2652 58.5974 32.9355C58.5974 32.7706 58.5974 32.5232 58.5974 32.2758C58.6867 31.2863 58.8656 31.0389 59.0443 30.9565C59.1337 30.9565 59.3125 30.7916 60.3854 30.7916C61.2794 30.7092 61.8159 30.8741 61.9052 31.2863L61.7264 33.1004ZM28.3787 28.895C28.4682 28.895 28.7363 28.895 28.8258 29.2249L30.1668 33.1004L31.5079 29.4723C31.5972 29.2249 31.6867 29.06 31.6867 28.9775C31.7761 28.7302 31.9549 28.5653 32.1337 28.5653C32.3125 28.5653 32.4914 28.6477 32.5807 28.8126C32.6701 28.9775 32.7595 29.1424 32.7595 29.3074V29.3898L32.6701 29.7197L30.5245 35.574C30.435 35.8214 30.2562 35.9864 30.1668 35.9864C29.988 35.9864 29.8986 35.9039 29.8092 35.574L27.8423 30.0494L27.7529 29.7197C27.7529 29.4723 27.8423 29.3074 27.9317 29.1424C28.0211 28.9775 28.2 28.895 28.3787 28.895ZM63.2463 39.3671C63.2463 38.7899 63.0675 38.4601 62.7099 38.2127C62.3523 37.9653 61.9052 37.8828 61.1901 37.8828L60.0278 37.8004C59.3125 37.8004 58.8655 37.9653 58.5079 38.2127C58.0609 38.5426 57.7927 39.0372 57.7032 39.7794L57.3456 42.9952C57.3456 43.1601 57.3456 43.2425 57.3456 43.325C57.3456 43.6549 57.435 43.9847 57.6138 44.232C57.8821 44.6443 58.2397 44.8093 58.6867 44.8917L60.1172 44.9742C61.5477 44.9742 61.9052 44.8917 62.0841 44.7268C62.3523 44.5619 62.4417 44.3145 62.4417 44.1496V44.0672C62.4417 43.8198 62.3523 43.6549 62.1735 43.5724C62.1735 43.5724 62.1735 43.5724 62.0841 43.4899H61.9946C60.743 43.6549 59.9383 43.7373 59.4914 43.7373C59.0443 43.7373 58.9549 43.6549 58.8655 43.6549C58.8655 43.6549 58.7761 43.4899 58.7761 43.0777C58.7761 42.8303 58.7761 42.5829 58.7761 42.2531V42.0057L58.8655 42.0881C59.3125 42.3355 59.849 42.418 60.3854 42.418C61.2794 42.418 61.9052 42.2531 62.2628 42.0057C62.7099 41.6759 62.9781 40.9338 63.1569 39.9443C63.2463 39.697 63.2463 39.532 63.2463 39.3671ZM61.7264 39.7794V40.1917C61.637 40.604 61.5477 40.8514 61.3688 40.9337C61.2794 41.0162 61.0112 41.0162 60.2959 41.0162H59.4914C59.4019 41.0162 59.2232 40.9337 59.0443 40.8513H58.9549L59.0443 39.8618V39.697C59.1337 39.4496 59.2232 39.2846 59.4019 39.2022C59.5808 39.1197 59.849 39.0372 60.2066 39.0372H60.8324C61.1901 39.0372 61.4583 39.1197 61.637 39.2846C61.7264 39.3671 61.8159 39.532 61.8159 39.697V39.7794H61.7264ZM34.7264 43.8198C34.7264 43.6549 34.637 43.4899 34.5476 43.325L34.3688 43.0777L33.6536 42.0057H33.743C34.0112 41.9233 34.2794 41.8408 34.3688 41.5934C34.5476 41.3461 34.637 41.0162 34.7264 40.604C34.7264 40.439 34.7264 40.3566 34.7264 40.1917V39.7794V39.697C34.7264 39.2022 34.5476 38.8723 34.3688 38.625C34.1899 38.4601 33.8324 38.2952 33.4748 38.3776C33.0277 38.3776 32.5807 38.5426 32.2231 38.7899L32.1337 38.8723L32.0443 38.7899L32.1337 38.625C32.0443 38.4601 31.8654 38.2952 31.5972 38.2952C31.2396 38.2952 31.1503 38.7074 31.1503 38.7899L30.9714 43.8198C30.9714 43.8198 31.0609 44.0672 31.0609 44.1496C31.1503 44.3145 31.3291 44.3145 31.5079 44.3145C31.6867 44.3145 31.8654 44.232 31.9549 44.1496L32.0443 43.8198L32.1337 41.8408L32.3125 42.0881L33.6536 44.1496C33.743 44.3145 33.9218 44.3969 34.0112 44.3969C34.1899 44.3969 34.2794 44.3969 34.3688 44.3145C34.637 44.232 34.7264 44.0672 34.7264 43.8198ZM32.9383 41.0987L32.2231 41.0162L32.3125 39.697C32.4914 39.6145 32.6701 39.532 33.0277 39.532C33.5641 39.532 33.743 39.697 33.743 39.7794C33.743 39.8618 33.743 39.9443 33.743 40.0267C33.743 40.1917 33.743 40.3566 33.743 40.5215V40.604C33.6536 40.9338 33.4748 41.0987 32.9383 41.0987ZM59.2232 24.1951C59.3125 23.8652 59.5808 23.7003 59.849 23.7827L62.7993 24.4424C62.8887 24.4424 62.9781 24.5248 63.0675 24.6073C63.1569 24.7722 63.1569 24.9371 63.1569 25.1021C63.0675 25.4319 62.7993 25.5968 62.5311 25.5143L59.5808 24.8547C59.4914 24.8547 59.4019 24.7722 59.3125 24.6898C59.2232 24.6073 59.2232 24.5248 59.2232 24.4424C59.2232 24.36 59.2232 24.2775 59.2232 24.1951ZM23.4615 44.8917V43.9022L23.6403 43.9847C23.9086 44.1496 24.2661 44.232 24.5344 44.232C24.892 44.232 25.2496 44.1496 25.4284 43.9847C25.786 43.7373 25.9648 43.4075 25.9648 42.8303L26.0542 39.8618C26.0542 39.3671 25.9648 38.9548 25.6966 38.7074C25.4284 38.4601 25.1602 38.3776 24.7131 38.3776C24.445 38.3776 24.1768 38.4601 23.9086 38.5426L23.5509 38.7899L23.4615 38.8723L23.3721 38.7899V38.7074C23.2826 38.5426 23.1039 38.4601 22.9251 38.4601C22.8357 38.4601 22.6568 38.5426 22.6568 38.625L22.4781 38.9548V44.8093L22.5675 45.1391C22.6568 45.304 22.8357 45.304 23.0145 45.304C23.1933 45.304 23.4615 45.1391 23.4615 44.8917ZM23.5509 39.7794C23.6403 39.697 23.8191 39.6145 24.2661 39.6145H24.6237C24.7131 39.6145 24.892 39.6145 24.892 39.697C24.892 39.697 24.9813 39.8618 24.9813 40.1092V42.5005C24.9813 42.9952 24.892 43.0777 24.892 43.1601C24.892 43.1601 24.8026 43.2425 24.445 43.2425C24.2661 43.2425 24.0873 43.2425 23.9086 43.1601C23.7297 43.0777 23.6403 43.0777 23.6403 42.9952L23.5509 39.7794ZM49.3886 44.7268C49.2099 44.7268 49.031 44.6443 48.8523 44.5619C48.7628 44.4794 48.6735 44.3145 48.6735 44.1496L49.0311 39.9443C49.0311 39.6145 49.031 39.532 48.9417 39.4496C48.8523 39.3671 48.7628 39.3671 48.4946 39.3671H48.0476C47.4218 39.3671 47.1536 39.4496 47.0641 39.532L46.7066 44.1496L46.5278 44.4794C46.4383 44.6443 46.2596 44.6443 45.9914 44.6443C45.8125 44.6443 45.6337 44.5619 45.5443 44.4794C45.4549 44.3969 45.3655 44.232 45.3655 44.0672L45.7231 38.625C45.7231 38.5426 45.8125 38.1302 46.2596 38.1302C46.5277 38.1302 46.7066 38.2127 46.7959 38.3776C46.7959 38.4601 46.8854 38.4601 46.8854 38.5426V38.625L46.9748 38.5426C47.6901 38.2127 48.2264 37.9653 48.5841 37.9653C48.8523 37.9653 49.1205 38.0478 49.3886 38.1302C49.7463 38.2952 49.9251 38.4601 50.1039 38.7899C50.1933 38.9548 50.1933 39.1197 50.1933 39.3671C50.1933 39.532 50.1933 39.697 50.1933 39.8618C50.1933 39.8618 49.8357 43.9022 49.8357 44.1496L49.6569 44.4794C49.8357 44.6443 49.6569 44.7268 49.3886 44.7268ZM44.7396 39.532C44.7396 39.3671 44.7396 39.2022 44.7396 39.1197C44.6503 38.4601 44.2032 38.1302 43.6669 38.1302H42.5045C41.8787 38.1302 41.4317 38.2127 41.1635 38.2952C40.6271 38.5426 40.3589 39.1197 40.2695 39.8618L40.0907 42.7478C40.0907 42.8303 40.0907 42.9128 40.0907 42.9952C40.0907 43.6549 40.3589 44.0672 40.8059 44.3145L41.2529 44.4794C41.7 44.5619 42.4152 44.5619 43.2198 44.4794C43.5774 44.4794 43.935 44.3145 44.2032 43.9847C44.4714 43.6549 44.5609 43.2425 44.6503 42.8303C44.6503 42.5829 44.6503 42.5005 44.6503 42.418C44.6503 42.2531 44.7396 40.6864 44.7396 40.6864C44.7396 40.2741 44.7396 39.8618 44.7396 39.532ZM43.488 41.0162L43.3092 42.5005C43.3092 42.9952 43.2198 43.1601 43.1304 43.2425C43.041 43.4075 42.8622 43.4075 42.594 43.4075H41.9682C41.6105 43.4075 41.4317 43.325 41.3423 43.325C41.3423 43.2425 41.2529 43.0777 41.2529 42.6654C41.2529 42.418 41.2529 42.0881 41.2529 41.7584L41.3423 40.3566C41.3423 39.9443 41.4317 39.697 41.5211 39.6145C41.6105 39.4496 41.7893 39.4496 42.0576 39.4496H42.6834C43.041 39.4496 43.2198 39.4496 43.3092 39.532C43.3092 39.6145 43.3987 39.7794 43.3987 40.1917C43.488 40.3566 43.488 40.6864 43.488 41.0162ZM39.0178 27.988C39.3755 27.988 39.4648 27.988 39.6437 27.988C40.0907 27.9056 40.3589 27.9056 40.5377 27.9056C40.9847 27.988 41.2529 28.2354 41.2529 28.6477V28.7302C41.2529 28.9775 41.0741 29.2249 40.8953 29.3898L40.8059 29.5548H40.7165C39.0178 29.3898 38.5708 29.3898 38.392 29.3898C37.945 29.3898 37.6768 29.6372 37.5873 30.0494C37.4979 30.2968 37.4086 30.8741 37.4086 31.6162L37.3191 33.4302V33.76C37.3191 34.2548 37.4086 34.4196 37.4979 34.5021C37.4979 34.5021 37.6768 34.5846 38.0344 34.5846C38.392 34.5846 38.7496 34.5021 39.3755 34.4196C39.3755 34.4196 40.2695 34.2548 40.5377 34.1724L40.6271 34.2548C40.7165 34.3372 40.8953 34.5021 40.8953 34.832V34.9144L40.8059 35.1618V35.2443L40.7165 35.3268C40.3589 35.739 39.8224 35.9039 39.1966 35.9039L37.6768 35.9864C36.6039 35.9864 36.1568 35.4916 36.0675 34.9969C35.9781 34.832 35.9781 34.5846 35.9781 34.2548V33.8425C36.1568 30.4618 36.1568 30.4618 36.1568 30.4618C36.1568 29.6372 36.4251 29.06 36.8721 28.6477C37.2297 28.4003 37.6768 28.2354 38.392 28.153L39.0178 27.988ZM35.531 43.7373C35.531 43.4075 35.6204 43.2425 35.7993 43.0777C35.7993 43.0777 35.7993 43.0777 35.8886 42.9952H35.9781C36.4251 43.1601 36.9615 43.2425 37.4086 43.2425C37.7662 43.2425 37.945 43.1601 37.945 43.1601C38.1238 43.0777 38.1238 42.7478 38.2132 42.418V42.2531C38.2132 42.0057 38.1238 41.9233 38.1238 41.8408C38.1238 41.8408 38.0344 41.7584 37.945 41.7584H37.8555H37.3191L36.7828 41.9233C36.2463 41.9233 35.8886 41.7584 35.7099 41.3461C35.6204 41.0987 35.531 40.8514 35.531 40.439V39.9443C35.531 39.1197 35.8886 38.625 36.4251 38.3776C36.5145 38.2952 36.8721 38.2127 37.945 38.2127C39.1966 38.2127 39.286 38.2952 39.3755 38.4601C39.4648 38.625 39.5542 38.7899 39.5542 39.0372V39.1197C39.5542 39.2846 39.4648 39.532 39.286 39.6145C39.286 39.6145 39.1966 39.6145 39.1966 39.697H39.1073C38.6602 39.532 38.1238 39.4496 37.4979 39.4496C37.1403 39.4496 36.9615 39.532 36.9615 39.532C36.8721 39.6145 36.7828 39.7794 36.6933 40.1917V40.439C36.6933 40.604 36.6933 40.6864 36.7828 40.6864C36.7828 40.6864 36.8721 40.6864 36.9615 40.6864L37.945 40.604C38.4813 40.604 38.9284 40.7689 39.1073 41.0987C39.286 41.2636 39.286 41.511 39.3755 41.8408C39.3755 41.9233 39.3755 42.0057 39.3755 42.0881V42.8303C39.286 43.9022 38.7496 44.4794 37.8555 44.4794H36.8721C36.2463 44.4794 36.1568 44.4794 36.1568 44.4794C35.7099 44.3969 35.531 44.1496 35.531 43.7373ZM53.8589 27.081C54.0377 27.3284 54.1271 27.5758 54.1271 27.9056C54.1271 28.0705 54.0377 28.4003 53.68 28.5653C53.68 28.5653 53.5907 28.5653 53.5907 28.6477H53.5013C52.786 28.4003 51.9815 28.4003 51.0873 28.4003C50.551 28.4003 50.3721 28.5653 50.2828 28.5653C50.1039 28.7302 49.9251 29.06 49.9251 29.4723C49.9251 29.6372 49.9251 29.8021 49.9251 29.8846C49.9251 30.0494 49.9251 30.2144 50.0146 30.2968C50.0146 30.2968 50.1933 30.3793 50.3721 30.2968L51.7132 30.1319C52.5178 30.0494 53.0542 30.2968 53.3224 30.7091C53.5013 30.9565 53.5907 31.2038 53.5907 31.6162C53.5907 31.6986 53.5907 31.8636 53.5907 31.946C53.5013 32.6881 53.5013 32.9355 53.5013 32.9355C53.3224 34.3372 52.6073 35.1618 51.3555 35.2443L49.9251 35.3268C49.1205 35.3268 48.9417 35.3268 48.9417 35.3268C48.4946 35.2443 48.2264 34.9969 48.2264 34.5021C48.2264 34.4196 48.2264 34.4196 48.2264 34.3372C48.2264 34.0074 48.4052 33.76 48.5841 33.6776C48.5841 33.6776 48.6735 33.6776 48.6735 33.5951H48.7628C49.3886 33.76 50.1039 33.8425 50.8191 33.8425C51.3555 33.8425 51.5344 33.6776 51.6238 33.6776C51.8026 33.5126 51.9815 33.1004 51.9815 32.6056C51.9815 32.1933 51.9815 31.946 51.8026 31.7811C51.7132 31.6986 51.6238 31.6986 51.5344 31.6986L50.7297 31.7811L49.9251 31.8636C49.031 31.946 48.6735 31.5337 48.4946 31.2038C48.3159 30.7916 48.2264 30.2144 48.3159 29.3898C48.4052 28.3179 48.8523 27.5758 49.5675 27.2459C49.8357 27.081 50.551 26.9986 51.7132 26.9161C53.3224 26.8336 53.68 26.9161 53.8589 27.081ZM42.6834 28.0705C42.2364 28.4828 41.9682 29.06 41.9682 29.8846L41.7893 33.5126C41.7893 34.0899 41.8787 34.5846 42.0576 34.9144C42.3258 35.3268 42.6834 35.574 43.1304 35.574H44.5609C45.9914 35.4916 46.4383 35.3268 46.6172 35.2443C46.8854 34.9969 46.9748 34.7495 46.9748 34.5846V34.5021C46.9748 34.2548 46.8854 34.0899 46.7066 33.925C46.7066 33.925 46.7066 33.925 46.6172 33.8425H46.5278C45.2761 34.0899 44.4714 34.2548 44.0245 34.2548C43.5774 34.2548 43.3987 34.2548 43.3987 34.1724C43.3092 34.0899 43.2198 33.925 43.2198 33.3477C43.2198 33.1004 43.2198 32.853 43.2198 32.5232V32.1933L43.3092 32.2758C43.7562 32.5232 44.2927 32.6056 44.8291 32.5232C45.7231 32.4407 46.349 32.2758 46.7066 31.946C47.1536 31.5337 47.4218 30.7092 47.5112 29.6372C47.6006 28.7302 47.4218 28.153 46.9748 27.8231C46.6172 27.5758 46.1701 27.4933 45.3655 27.4933L44.1138 27.5758C43.488 27.6583 43.041 27.8231 42.6834 28.0705ZM45.0079 28.895C45.3655 28.895 45.6337 28.895 45.8125 29.06C45.9914 29.2249 45.9914 29.4723 45.9914 29.6372C45.9914 29.6372 45.9914 29.6372 45.9914 29.7197C45.9914 29.8021 45.9914 29.8846 45.9914 30.1319C45.9914 30.6267 45.8125 30.9565 45.6337 31.0389C45.5443 31.0389 45.2761 31.2038 44.5609 31.2038H43.7562C43.5774 31.2038 43.488 31.1214 43.2198 31.1214H43.1304L43.2198 29.967V29.8021C43.2198 29.5548 43.3987 29.3074 43.5774 29.2249C43.7562 29.1424 44.0245 29.06 44.3821 28.9775L45.0079 28.895ZM34.3688 28.4003C34.5476 28.4003 34.7264 28.4003 34.8159 28.5653C34.9946 28.5653 34.9946 28.7302 34.9946 28.895V28.9775C34.9946 28.9775 34.7264 35.0794 34.7264 35.3268L34.637 35.6565C34.5476 35.8214 34.3688 35.9039 34.1006 35.9039C33.9218 35.9039 33.743 35.8214 33.6536 35.739C33.5641 35.6565 33.4748 35.4916 33.4748 35.3268C33.4748 35.3268 33.743 29.2249 33.743 29.06L33.8324 28.7302C33.9218 28.4828 34.1006 28.4003 34.3688 28.4003ZM27.6635 44.3145L28.6469 44.3969C29.6304 44.3969 29.8986 44.3145 29.988 44.232C30.1668 44.0672 30.2562 43.9022 30.2562 43.7373V43.5724C30.2562 43.4075 30.1668 43.2425 29.988 43.0777L29.8986 42.9952H29.8092C29.0045 43.1601 28.3787 43.1601 28.1105 43.1601C27.8423 43.1601 27.7529 43.1601 27.7529 43.0777C27.7529 42.9952 27.6635 42.8303 27.6635 42.3355V41.9233V41.7584L27.8423 41.9233C28.1105 42.0881 28.4682 42.1706 28.8258 42.1706C29.4516 42.1706 29.8986 42.0881 30.0774 41.8408C30.3456 41.511 30.5245 41.0162 30.5245 40.1917C30.5245 39.532 30.435 39.0372 30.0774 38.7899C29.8092 38.5426 29.4516 38.4601 29.0045 38.4601H28.2C27.7529 38.4601 27.3953 38.5426 27.1271 38.7899C26.8589 39.0372 26.68 39.532 26.68 40.1092L26.5906 42.7478V42.9128C26.5906 43.2425 26.68 43.5724 26.8589 43.8198C27.1271 44.1496 27.4847 44.3145 27.6635 44.3145ZM27.7529 40.8513V40.1092V40.0267C27.7529 39.7794 27.8423 39.697 27.9317 39.6145C28.0211 39.532 28.1105 39.532 28.4682 39.4496H28.8258C29.094 39.4496 29.1834 39.532 29.3622 39.6145C29.5409 39.7794 29.541 39.9443 29.541 40.0267V40.3566C29.541 40.6864 29.4516 40.8514 29.3622 40.9337C29.2727 40.9337 29.1834 41.0162 28.6469 41.0162H28.1105C28.0211 41.0162 27.9317 40.9337 27.8423 40.9337L27.7529 40.8513ZM55.9152 44.6443C55.8258 44.8093 55.5576 44.8093 55.2894 44.8093C55.0211 44.8093 54.8423 44.7268 54.7529 44.5619L54.6635 44.232C55.0211 40.1092 55.1105 39.8618 55.1105 39.8618C55.1105 39.532 55.1105 39.4496 55.0211 39.3671C54.9318 39.2846 54.7529 39.2846 54.5742 39.2846H54.0377C53.4118 39.2846 53.0542 39.3671 52.9649 39.4496L52.5178 44.1496L52.339 44.4794C52.2496 44.6443 51.9815 44.6443 51.8026 44.6443C51.5344 44.6443 51.3555 44.5619 51.2662 44.4794C51.1768 44.3969 51.0873 44.232 51.0873 44.0672L51.5344 38.3776C51.5344 38.2952 51.6238 37.8828 52.0708 37.8828C52.339 37.8828 52.5178 37.9653 52.6966 38.1302C52.786 38.2127 52.786 38.2952 52.786 38.3776V38.4601L52.8755 38.3776C53.5907 37.9653 54.2165 37.8004 54.6635 37.8004C54.9318 37.8004 55.2894 37.8828 55.5576 37.9653C55.9152 38.1302 56.1834 38.3776 56.2728 38.625C56.3622 38.7899 56.3622 38.9548 56.3622 39.2022C56.3622 39.3671 56.3622 39.532 56.3622 39.697C56.3622 39.697 55.9152 43.8198 55.9152 44.0672V44.6443Z" fill="white"></path>
  <path d="M41.9956 15.4226C41.9956 20.7956 36.7455 25.1514 30.2691 25.1514C23.7928 25.1514 18.5427 21.7222 18.5427 16.3492C18.0541 9.86332 24.77 5.69385 31.2464 5.69385C37.7227 5.69385 41.9956 10.0496 41.9956 15.4226Z" fill="white"></path>
  <path d="M34.5253 26.5417C36.2935 26.5417 37.7268 25.2972 37.7268 23.7621C37.7268 22.2269 36.2935 20.9824 34.5253 20.9824C32.7571 20.9824 31.3237 22.2269 31.3237 23.7621C31.3237 25.2972 32.7571 26.5417 34.5253 26.5417Z" fill="#CF3173"></path>
  <path d="M26.6043 20.2874C25.0952 20.2874 22.8314 19.8608 22.7371 18.069C22.7371 17.7277 22.7371 17.4718 22.6428 17.1304H22.7371C23.3973 17.7277 24.9065 18.069 26.2271 18.069C27.6418 18.069 28.1135 17.7277 28.1135 17.1304C28.1135 16.5332 27.4533 16.2772 25.6611 16.0212C24.2463 15.8505 22.1712 15.2533 22.0769 13.5468C21.9826 11.1577 25.0009 10.0485 27.0759 9.87788C28.7737 9.79255 30.9431 10.0485 31.2261 11.9257C31.2261 12.3523 31.2261 12.6082 31.2261 13.0348H31.1318C30.3772 12.3523 28.868 12.0963 27.6418 12.0963C25.9441 12.1816 25.3782 12.5229 25.3782 13.1202C25.3782 13.5468 25.6611 13.8028 27.8305 14.1441C29.434 14.3147 31.4148 15.1679 31.3204 17.0451C31.2261 19.3489 28.6794 20.2874 26.6043 20.2874Z" fill="#CF3173"></path>
  <path d="M35.5405 19.5924C34.987 19.5095 34.7103 19.5095 34.1568 19.5095C32.7731 19.4267 32.0352 18.6808 32.0352 17.7691C32.0352 15.7799 32.0352 12.5477 32.0352 10.5586C32.8654 10.5586 33.3266 10.5586 34.1568 10.5586C35.6327 10.5586 36.463 11.3045 36.2784 12.2162C36.094 14.2882 35.8173 17.5205 35.5405 19.5924Z" fill="#CF3173"></path>
  <defs>
    <linearGradient id="paint0_linear_34_149075" x1="31.0519" y1="34.9326" x2="74.656" y2="-3.44324" gradientUnits="userSpaceOnUse">
      <stop stop-color="#2D56A5"></stop>
      <stop offset="1" stop-color="#3F69B9"></stop>
    </linearGradient>
  </defs>
</svg>
