<svg width="194" height="64" viewBox="0 0 194 64" fill="none" xmlns="http://www.w3.org/2000/svg">
<path d="M0 15.2614C0 20.1845 3.93846 24.123 8.86154 24.123C13.7846 24.123 17.7231 20.1845 17.7231 15.2614C17.7231 10.3384 13.7846 6.3999 8.86154 6.3999C3.93846 6.3999 0 10.3384 0 15.2614Z" fill="#3BC1CC"/>
<path d="M17.7231 24.123H35.4462C35.4462 33.9692 27.5693 41.8461 17.7231 41.8461V24.123Z" fill="#92B2DE"/>
<path d="M17.7231 24.123H35.4462V6.3999C25.7231 6.3999 17.7231 14.3999 17.7231 24.123Z" fill="#2B70B8"/>
<path d="M17.7231 24.123H0C0 33.9692 7.87692 41.8461 17.7231 41.8461V24.123Z" fill="#D1DDF1"/>
<path d="M76.4309 27.9384V6.39995H71.6309V28.0615C71.6309 33.1076 67.5693 37.1692 62.5232 37.1692C57.477 37.1692 53.4155 33.1076 53.4155 28.0615V6.39995H48.6155V28.0615C48.6155 35.6923 54.7693 41.9692 62.4001 41.9692C70.0309 41.9692 76.4309 35.6923 76.4309 27.9384ZM98.2155 21.6615H98.4616V17.2307C97.6001 16.7384 96.3693 16.2461 94.7693 16.2461C91.077 16.2461 88.4924 17.723 87.0155 20.6769H86.8924L86.7693 16.7384H82.9539V41.2307H87.3847V30.0307C87.3847 23.6307 89.6001 20.4307 94.4001 20.4307C95.7539 20.5538 97.1078 20.923 98.2155 21.6615ZM105.6 23.8769C105.6 21.6615 107.692 20.1846 110.769 20.1846C114.215 20.1846 116.8 21.0461 118.523 22.7692H118.769V18.0923C116.923 16.8615 113.969 16.2461 110.769 16.2461C105.108 16.2461 101.292 19.4461 101.292 24.123C101.292 28.5538 103.631 30.6461 110.154 31.0153C114.585 31.2615 115.939 32.2461 115.939 34.2153C115.939 36.4307 113.846 37.9076 110.523 37.9076C106.585 37.9076 103.508 36.8 101.539 34.4615H101.292V39.2615C103.385 40.9846 106.585 41.8461 110.646 41.8461C116.677 41.8461 120.369 38.8923 120.369 34.2153C120.369 29.4153 117.908 27.0769 111.139 26.7076C106.831 26.5846 105.6 25.723 105.6 23.8769ZM128 23.8769C128 21.6615 130.092 20.1846 133.169 20.1846C136.615 20.1846 139.2 21.0461 140.923 22.7692H141.169V18.0923C139.323 16.8615 136.369 16.2461 133.169 16.2461C127.508 16.2461 123.692 19.4461 123.692 24.123C123.692 28.5538 126.031 30.6461 132.554 31.0153C136.985 31.2615 138.339 32.2461 138.339 34.2153C138.339 36.4307 136.246 37.9076 132.923 37.9076C128.985 37.9076 125.908 36.8 123.939 34.4615H123.692V39.2615C125.785 40.9846 128.985 41.8461 133.046 41.8461C139.077 41.8461 142.769 38.8923 142.769 34.2153C142.769 29.4153 140.308 27.0769 133.539 26.7076C129.354 26.5846 128 25.723 128 23.8769ZM167.508 29.0461C167.508 34.2153 163.939 37.9076 159.015 37.9076C153.969 37.9076 150.523 34.3384 150.523 29.0461C150.523 23.7538 153.969 20.1846 159.015 20.1846C164.062 20.3076 167.508 23.8769 167.508 29.0461ZM168.123 41.3538H171.939V16.7384H168.123L168 20.6769H167.877C166.031 17.8461 162.708 16.2461 158.4 16.2461C151.262 16.2461 146.092 21.5384 146.092 29.0461C146.092 36.5538 151.262 41.8461 158.4 41.8461C162.708 41.8461 166.031 40.123 167.877 37.4153H168L168.123 41.3538ZM193.231 9.23072V5.04611C192.123 4.5538 190.4 4.18457 188.431 4.18457C183.139 4.18457 180.185 7.38457 180.185 12.923V16.8615H175.631V20.8H180.185V41.4769H184.739V20.6769H192.615V16.7384H184.739V12.8C184.739 9.59995 186.339 7.99995 189.046 7.99995C190.523 7.99995 192 8.36919 192.985 9.10765H193.231V9.23072Z" fill="#1E4488"/>
<path d="M7.01529 57.723L6.03068 55.3845H2.46145L1.59991 57.723H0.369141L3.69222 49.4768H4.92299L8.12299 57.723H7.01529ZM4.3076 50.7076L2.95376 54.3999H5.78452L4.3076 50.7076Z" fill="#2B70B8"/>
<path d="M12.677 56.9846C12.5539 57.2307 12.3077 57.4769 12.0616 57.6C11.6923 57.8461 11.3231 57.8461 10.9539 57.8461C10.3385 57.8461 9.84619 57.6 9.47696 57.2307C9.10773 56.8615 8.86157 56.2461 8.86157 55.6307V52.1846H9.96927V55.5076C9.96927 55.8769 10.0923 56.2461 10.2154 56.4923C10.4616 56.7384 10.7077 56.8615 11.2 56.8615C11.6923 56.8615 11.9385 56.7384 12.1846 56.4923C12.4308 56.2461 12.5539 55.8769 12.5539 55.5076V52.1846H13.6616V56.6153C13.6616 56.9846 13.6616 57.3538 13.6616 57.6H12.677C12.677 57.4769 12.677 57.3538 12.677 56.9846Z" fill="#2B70B8"/>
<path d="M17.2307 56.2458L18.2153 55.8766C18.2153 56.1228 18.3384 56.3689 18.5846 56.6151C18.8307 56.8612 19.0769 56.8612 19.4461 56.8612C19.6923 56.8612 19.9384 56.7381 20.1846 56.6151C20.3076 56.492 20.4307 56.2458 20.4307 56.1228C20.4307 55.7535 20.1846 55.5074 19.6923 55.3843L18.7076 55.1381C18.2153 55.0151 17.9692 54.892 17.723 54.5228C17.4769 54.2766 17.3538 53.9074 17.3538 53.5381C17.3538 53.0458 17.5999 52.6766 17.9692 52.3074C18.3384 51.9381 18.8307 51.8151 19.323 51.8151C19.6923 51.8151 19.9384 51.8151 20.3076 51.9381C20.5538 52.0612 20.7999 52.1843 20.923 52.3074C21.0461 52.4305 21.1692 52.6766 21.2922 52.7997C21.4153 52.9228 21.4153 53.0458 21.4153 53.292L20.4307 53.6612C20.4307 53.5381 20.4307 53.5381 20.3076 53.4151C20.3076 53.292 20.1846 53.1689 20.1846 53.1689C20.0615 53.0458 19.9384 52.9228 19.8153 52.9228C19.6923 52.9228 19.5692 52.9228 19.323 52.9228C19.0769 52.9228 18.8307 53.0458 18.7076 53.1689C18.4615 53.292 18.4615 53.4151 18.4615 53.6612C18.4615 54.0304 18.7076 54.2766 19.0769 54.2766L19.9384 54.5228C20.4307 54.6458 20.7999 54.7689 21.0461 55.1381C21.2923 55.3843 21.4153 55.7535 21.4153 56.2458C21.4153 56.7381 21.2923 57.1074 20.923 57.4766C20.5538 57.8458 20.0615 57.9689 19.4461 57.9689C18.7076 57.9689 18.2153 57.8458 17.8461 57.4766C17.4769 56.9843 17.2307 56.6151 17.2307 56.2458Z" fill="#2B70B8"/>
<path d="M26.8307 55.7535L27.8153 56.1228C27.6922 56.6151 27.323 57.1074 26.9537 57.3535C26.3384 57.7228 25.8461 57.8458 25.2307 57.8458C24.4922 57.8458 23.7537 57.5997 23.2614 56.9843C22.7691 56.492 22.3999 55.7535 22.3999 54.7689C22.3999 53.9074 22.6461 53.1689 23.1384 52.6766C23.6307 52.0612 24.2461 51.8151 24.9845 51.8151C25.8461 51.8151 26.4614 52.0612 26.9537 52.5535C27.4461 53.0458 27.6922 53.7843 27.6922 54.6458C27.6922 54.7689 27.6922 54.892 27.6922 55.0151H23.5076C23.5076 55.5074 23.6307 55.8766 23.9999 56.2458C24.3691 56.6151 24.7384 56.7381 25.2307 56.7381C26.0922 56.8612 26.5845 56.492 26.8307 55.7535ZM23.6307 54.3997H26.7076C26.7076 54.0305 26.5845 53.6612 26.3384 53.4151C26.0922 53.1689 25.723 53.0458 25.2307 53.0458C24.7384 53.0458 24.4922 53.1689 24.123 53.4151C23.7537 53.6612 23.6307 53.9074 23.6307 54.3997Z" fill="#2B70B8"/>
<path d="M32.2461 52.0613V53.169C32.123 53.169 31.8769 53.169 31.7538 53.169C30.7692 53.169 30.2769 53.7844 30.2769 54.892V57.7228H29.1692V52.1844H30.2769V53.169C30.6461 52.4305 31.1384 52.0613 32 52.0613C32 52.0613 32.123 52.0613 32.2461 52.0613Z" fill="#2B70B8"/>
<path d="M38.2767 52.1846L36.0614 57.723H34.9537L32.7383 52.1846H33.9691L35.569 56.4923L37.169 52.1846H38.2767Z" fill="#2B70B8"/>
<path d="M39.3846 50.5844C39.2615 50.4614 39.1384 50.2152 39.1384 50.0921C39.1384 49.9691 39.2615 49.7229 39.3846 49.4767C39.5077 49.3537 39.7538 49.2306 39.8769 49.2306C40.123 49.2306 40.2461 49.3537 40.4923 49.4767C40.6154 49.5998 40.7384 49.846 40.7384 50.0921C40.7384 50.3383 40.6154 50.4614 40.4923 50.5844C40.3692 50.7075 40.123 50.8306 39.8769 50.8306C39.6307 50.8306 39.5077 50.7075 39.3846 50.5844ZM40.4923 57.7229H39.3846V52.1844H40.4923V57.7229Z" fill="#2B70B8"/>
<path d="M44.5536 52.923C44.0613 52.923 43.6921 53.046 43.3228 53.4153C42.9536 53.7845 42.8305 54.2768 42.8305 54.8922C42.8305 55.5076 42.9536 55.9999 43.3228 56.3691C43.6921 56.7384 44.0613 56.8614 44.5536 56.8614C45.0459 56.8614 45.4152 56.7384 45.6613 56.4922C45.9075 56.246 46.0305 55.9999 46.1536 55.7537L47.1382 56.123C47.0152 56.6153 46.6459 56.9845 46.2767 57.3537C45.9075 57.723 45.2921 57.846 44.6767 57.846C43.8152 57.846 43.1998 57.5999 42.7075 56.9845C42.2152 56.3691 41.969 55.7537 41.969 54.8922C41.969 54.0307 42.2152 53.2922 42.7075 52.7999C43.1998 52.3076 43.9382 51.9384 44.6767 51.9384C45.4152 51.9384 45.9075 52.0614 46.2767 52.4307C46.6459 52.7999 47.0152 53.1691 47.1382 53.6614L46.1536 54.1537C46.0305 53.7845 45.9075 53.5384 45.6613 53.2922C45.4152 53.046 45.0459 52.923 44.5536 52.923Z" fill="#2B70B8"/>
<path d="M52.3077 55.7535L53.2923 56.1228C53.1692 56.6151 52.8 57.1074 52.4308 57.3535C51.9385 57.7228 51.4462 57.8458 50.8308 57.8458C50.0923 57.8458 49.3538 57.5997 48.8615 56.9843C48.3692 56.492 48 55.7535 48 54.7689C48 53.9074 48.2462 53.1689 48.7385 52.6766C49.2308 52.0612 49.8462 51.8151 50.5846 51.8151C51.4462 51.8151 52.0615 52.0612 52.5538 52.5535C53.0462 53.0458 53.2923 53.7843 53.2923 54.6458C53.2923 54.7689 53.2923 54.892 53.2923 55.0151H49.1077C49.1077 55.5074 49.2308 55.8766 49.6 56.2458C49.9692 56.6151 50.3385 56.7381 50.8308 56.7381C51.4462 56.8612 52.0615 56.492 52.3077 55.7535ZM49.1077 54.3997H52.1846C52.1846 54.0305 52.0615 53.6612 51.8154 53.4151C51.5692 53.1689 51.2 53.0458 50.7077 53.0458C50.2154 53.0458 49.9692 53.1689 49.6 53.4151C49.2308 53.6612 49.1077 53.9074 49.1077 54.3997Z" fill="#2B70B8"/>
<path d="M60.7999 56.9844C60.6768 57.2306 60.4307 57.3537 60.1845 57.5998C59.8153 57.7229 59.4461 57.846 59.0768 57.846C58.3384 57.846 57.5999 57.5998 57.1076 56.9844C56.6153 56.3691 56.3691 55.7537 56.3691 54.8921C56.3691 54.0306 56.6153 53.4152 57.1076 52.7998C57.5999 52.1844 58.2153 51.9383 58.9538 51.9383C59.4461 51.9383 59.8153 52.0614 60.0614 52.1844C60.3076 52.3075 60.5538 52.5537 60.6768 52.7998V49.2306H61.7845V56.6152C61.7845 56.9844 61.7845 57.3537 61.7845 57.5998H60.6768C60.7999 57.4767 60.7999 57.2306 60.7999 56.9844ZM57.4768 54.8921C57.4768 55.5075 57.5999 55.9998 57.9691 56.3691C58.3384 56.7383 58.7076 56.9844 59.1999 56.9844C59.6922 56.9844 60.0614 56.7383 60.3076 56.3691C60.5538 55.9998 60.7999 55.5075 60.7999 54.8921C60.7999 54.2767 60.6768 53.9075 60.4307 53.5383C60.1845 53.1691 59.8153 53.046 59.323 53.046C58.8307 53.046 58.4614 53.1691 58.0922 53.5383C57.5999 53.9075 57.4768 54.2767 57.4768 54.8921Z" fill="#2B70B8"/>
<path d="M67.5692 55.7535L68.5538 56.1228C68.4307 56.6151 68.0615 57.1074 67.6922 57.3535C67.1999 57.7228 66.7076 57.8458 66.0922 57.8458C65.3538 57.8458 64.6153 57.5997 64.123 56.9843C63.6307 56.492 63.2615 55.7535 63.2615 54.7689C63.2615 53.9074 63.5076 53.1689 63.9999 52.6766C64.4922 52.0612 65.1076 51.8151 65.8461 51.8151C66.7076 51.8151 67.323 52.0612 67.8153 52.5535C68.3076 53.0458 68.5538 53.7843 68.5538 54.6458C68.5538 54.7689 68.5538 54.892 68.5538 55.0151H64.3692C64.3692 55.5074 64.4922 55.8766 64.8615 56.2458C65.2307 56.6151 65.5999 56.7381 66.0922 56.7381C66.8307 56.8612 67.323 56.492 67.5692 55.7535ZM64.3692 54.3997H67.4461C67.4461 54.0305 67.323 53.6612 67.0769 53.4151C66.8307 53.1689 66.4615 53.0458 65.9692 53.0458C65.4769 53.0458 65.2307 53.1689 64.8615 53.4151C64.4922 53.6612 64.3692 53.9074 64.3692 54.3997Z" fill="#2B70B8"/>
<path d="M73.2307 54.523V57.723H72.123V52.1845H73.2307V52.923C73.6 52.3076 74.2154 51.9384 74.9538 51.9384C75.5692 51.9384 76.0615 52.1845 76.4307 52.5537C76.8 52.923 76.923 53.5384 76.923 54.1537V57.723H75.8154V54.3999C75.8154 53.4153 75.323 53.046 74.4615 53.046C74.0923 53.046 73.7231 53.1691 73.4769 53.5384C73.3538 53.6614 73.2307 54.0307 73.2307 54.523Z" fill="#2B70B8"/>
<path d="M79.0154 52.7999C79.5077 52.1845 80.2461 51.9384 81.1077 51.9384C81.9692 51.9384 82.5846 52.1845 83.2 52.7999C83.6923 53.4153 84.0615 54.0307 84.0615 54.8922C84.0615 55.7537 83.8154 56.4922 83.3231 56.9845C82.8307 57.5999 82.0923 57.846 81.2308 57.846C80.3692 57.846 79.7538 57.5999 79.1385 56.9845C78.6461 56.3691 78.4 55.7537 78.4 54.8922C78.1538 54.0307 78.4 53.4153 79.0154 52.7999ZM79.7538 56.3691C80.1231 56.7384 80.4923 56.8614 80.9846 56.8614C81.4769 56.8614 81.8461 56.7384 82.2154 56.3691C82.5846 55.9999 82.7077 55.5076 82.7077 54.8922C82.7077 54.2768 82.5846 53.7845 82.2154 53.4153C81.8461 53.046 81.4769 52.923 80.9846 52.923C80.4923 52.923 80.1231 53.046 79.7538 53.4153C79.3846 53.7845 79.2615 54.2768 79.2615 54.8922C79.2615 55.5076 79.3846 55.9999 79.7538 56.3691Z" fill="#2B70B8"/>
<path d="M86.646 50.3384V52.0615H87.8768V53.0461H86.646V55.8768C86.646 56.123 86.646 56.3691 86.7691 56.4922C86.8922 56.6153 87.1384 56.6153 87.3845 56.6153C87.5076 56.6153 87.6307 56.6153 87.7537 56.6153V57.5999C87.5076 57.723 87.2614 57.723 87.0153 57.723C86.523 57.723 86.1537 57.5999 85.9076 57.3538C85.6614 57.1076 85.5384 56.7384 85.5384 56.2461V53.1691H84.4307V52.1845H84.6768C84.923 52.1845 85.1691 52.0615 85.2922 51.9384C85.4153 51.8153 85.5384 51.5691 85.5384 51.323V50.4615H86.646V50.3384Z" fill="#2B70B8"/>
<path d="M92.3076 52.0613V53.169C92.1846 53.169 91.9384 53.169 91.8153 53.169C90.8307 53.169 90.3384 53.7844 90.3384 54.892V57.7228H89.2307V52.1844H90.3384V53.169C90.7076 52.4305 91.1999 52.0613 92.0615 52.0613C92.0615 52.0613 92.1846 52.0613 92.3076 52.0613Z" fill="#2B70B8"/>
<path d="M97.2308 55.7535L98.2154 56.1228C98.0923 56.6151 97.7231 57.1074 97.3539 57.3535C96.8616 57.7228 96.3693 57.8458 95.7539 57.8458C95.0154 57.8458 94.2769 57.5997 93.7846 56.9843C93.2923 56.492 92.9231 55.7535 92.9231 54.7689C92.9231 53.9074 93.1692 53.1689 93.6616 52.6766C94.1539 52.0612 94.7692 51.8151 95.5077 51.8151C96.3692 51.8151 96.9846 52.0612 97.4769 52.5535C97.9692 53.0458 98.2154 53.7843 98.2154 54.6458C98.2154 54.7689 98.2154 54.892 98.2154 55.0151H94.0308C94.0308 55.5074 94.1539 55.8766 94.5231 56.2458C94.8923 56.6151 95.2616 56.7381 95.7539 56.7381C96.4923 56.8612 96.9846 56.492 97.2308 55.7535ZM94.0308 54.3997H97.1077C97.1077 54.0305 96.9846 53.6612 96.7385 53.4151C96.4923 53.1689 96.1231 53.0458 95.6308 53.0458C95.1385 53.0458 94.8923 53.1689 94.5231 53.4151C94.1539 53.6612 94.1539 53.9074 94.0308 54.3997Z" fill="#2B70B8"/>
<path d="M102.892 59.9382H101.785V52.1844H102.892V53.0459C103.015 52.7997 103.262 52.5536 103.631 52.3074C104 52.1844 104.369 52.0613 104.739 52.0613C105.6 52.0613 106.215 52.3074 106.585 52.9228C107.077 53.4151 107.2 54.1536 107.2 55.0151C107.2 55.8767 106.954 56.6151 106.462 57.1074C105.969 57.7228 105.354 57.969 104.615 57.969C104.246 57.969 103.877 57.8459 103.508 57.7228C103.139 57.5997 102.892 57.3536 102.769 57.1074V59.9382H102.892ZM106.215 54.892C106.215 54.2767 106.092 53.9074 105.723 53.5382C105.477 53.169 104.985 53.0459 104.492 53.0459C104 53.0459 103.631 53.169 103.262 53.5382C103.015 53.9074 102.769 54.3997 102.769 54.892C102.769 55.5074 102.892 55.9997 103.262 56.2459C103.508 56.6151 104 56.7382 104.492 56.7382C104.985 56.7382 105.354 56.6151 105.723 56.2459C106.092 55.8767 106.215 55.5074 106.215 54.892Z" fill="#2B70B8"/>
<path d="M111.754 52.0613V53.169C111.631 53.169 111.384 53.169 111.261 53.169C110.277 53.169 109.784 53.7844 109.784 54.892V57.7228H108.677V52.1844H109.784V53.169C110.154 52.4305 110.646 52.0613 111.508 52.0613C111.508 52.0613 111.631 52.0613 111.754 52.0613Z" fill="#2B70B8"/>
<path d="M113.231 52.7999C113.723 52.1845 114.462 51.9384 115.323 51.9384C116.185 51.9384 116.8 52.1845 117.415 52.7999C117.908 53.4153 118.277 54.0307 118.277 54.8922C118.277 55.7537 118.031 56.4922 117.539 56.9845C117.046 57.5999 116.308 57.846 115.446 57.846C114.585 57.846 113.969 57.5999 113.354 56.9845C112.862 56.3691 112.615 55.7537 112.615 54.8922C112.369 54.0307 112.739 53.4153 113.231 52.7999ZM114.092 56.3691C114.462 56.7384 114.831 56.8614 115.323 56.8614C115.815 56.8614 116.185 56.7384 116.554 56.3691C116.923 55.9999 117.046 55.5076 117.046 54.8922C117.046 54.2768 116.923 53.7845 116.554 53.4153C116.185 53.046 115.815 52.923 115.323 52.923C114.831 52.923 114.462 53.046 114.092 53.4153C113.723 53.7845 113.6 54.2768 113.6 54.8922C113.477 55.5076 113.723 55.9999 114.092 56.3691Z" fill="#2B70B8"/>
<path d="M120.861 50.3384V52.0615H122.092V53.0461H120.861V55.8768C120.861 56.123 120.861 56.3691 120.984 56.4922C121.108 56.6153 121.354 56.6153 121.6 56.6153C121.723 56.6153 121.846 56.6153 121.969 56.6153V57.5999C121.846 57.723 121.477 57.723 121.231 57.723C120.738 57.723 120.369 57.5999 120.123 57.3538C119.877 57.1076 119.754 56.7384 119.754 56.2461V53.1691H118.646V52.1845H118.892C119.138 52.1845 119.384 52.0615 119.508 51.9384C119.631 51.8153 119.754 51.5691 119.754 51.323V50.4615H120.861V50.3384Z" fill="#2B70B8"/>
<path d="M127.385 55.7535L128.369 56.1228C128.246 56.6151 127.877 57.1074 127.508 57.3535C127.015 57.7228 126.523 57.8458 125.908 57.8458C125.169 57.8458 124.431 57.5997 123.938 56.9843C123.446 56.492 123.077 55.7535 123.077 54.7689C123.077 53.9074 123.323 53.1689 123.815 52.6766C124.308 52.0612 124.923 51.8151 125.662 51.8151C126.523 51.8151 127.138 52.0612 127.631 52.5535C128.123 53.0458 128.369 53.7843 128.369 54.6458C128.369 54.7689 128.369 54.892 128.369 55.0151H124.185C124.185 55.5074 124.308 55.8766 124.677 56.2458C125.046 56.6151 125.415 56.7381 125.908 56.7381C126.646 56.8612 127.138 56.492 127.385 55.7535ZM124.185 54.3997H127.262C127.262 54.0305 127.138 53.6612 126.892 53.4151C126.646 53.1689 126.277 53.0458 125.785 53.0458C125.292 53.0458 125.046 53.1689 124.677 53.4151C124.431 53.6612 124.185 53.9074 124.185 54.3997Z" fill="#2B70B8"/>
<path d="M132.061 52.923C131.569 52.923 131.2 53.046 130.831 53.4153C130.461 53.7845 130.338 54.2768 130.338 54.8922C130.338 55.5076 130.461 55.9999 130.831 56.3691C131.2 56.7384 131.569 56.8614 132.061 56.8614C132.554 56.8614 132.923 56.7384 133.169 56.4922C133.415 56.246 133.538 55.9999 133.661 55.7537L134.646 56.123C134.523 56.6153 134.154 56.9845 133.785 57.3537C133.415 57.723 132.8 57.846 132.185 57.846C131.323 57.846 130.708 57.5999 130.215 56.9845C129.723 56.3691 129.477 55.7537 129.477 54.8922C129.477 54.0307 129.723 53.2922 130.215 52.7999C130.708 52.3076 131.446 51.9384 132.185 51.9384C132.923 51.9384 133.415 52.0614 133.785 52.4307C134.154 52.7999 134.523 53.1691 134.646 53.6614L133.661 54.0307C133.538 53.6614 133.415 53.4153 133.169 53.1691C132.8 53.046 132.554 52.923 132.061 52.923Z" fill="#2B70B8"/>
<path d="M137.354 50.3384V52.0615H138.585V53.0461H137.354V55.8768C137.354 56.123 137.354 56.3691 137.477 56.4922C137.6 56.6153 137.846 56.6153 138.092 56.6153C138.215 56.6153 138.338 56.6153 138.461 56.6153V57.5999C138.338 57.723 137.969 57.723 137.723 57.723C137.231 57.723 136.861 57.5999 136.615 57.3538C136.369 57.1076 136.246 56.7384 136.246 56.2461V53.1691H135.138V52.1845H135.385C135.631 52.1845 135.877 52.0615 136 51.9384C136.123 51.8153 136.246 51.5691 136.246 51.323V50.4615H137.354V50.3384Z" fill="#2B70B8"/>
<path d="M139.939 50.5844C139.815 50.4614 139.692 50.2152 139.692 50.0921C139.692 49.9691 139.815 49.7229 139.939 49.4767C140.062 49.2306 140.308 49.2306 140.431 49.2306C140.677 49.2306 140.8 49.3537 141.046 49.4767C141.169 49.5998 141.292 49.846 141.292 50.0921C141.292 50.3383 141.169 50.4614 141.046 50.5844C140.923 50.7075 140.677 50.8306 140.431 50.8306C140.308 50.8306 140.062 50.7075 139.939 50.5844ZM141.046 57.7229H139.939V52.1844H141.046V57.7229Z" fill="#2B70B8"/>
<path d="M143.261 52.7999C143.754 52.1845 144.492 51.9384 145.354 51.9384C146.215 51.9384 146.831 52.1845 147.446 52.7999C147.938 53.4153 148.308 54.0307 148.308 54.8922C148.308 55.7537 148.061 56.4922 147.569 56.9845C147.077 57.5999 146.338 57.846 145.477 57.846C144.615 57.846 144 57.5999 143.385 56.9845C142.892 56.3691 142.646 55.7537 142.646 54.8922C142.4 54.0307 142.646 53.4153 143.261 52.7999ZM144 56.3691C144.369 56.7384 144.738 56.8614 145.231 56.8614C145.723 56.8614 146.092 56.7384 146.461 56.3691C146.831 55.9999 146.954 55.5076 146.954 54.8922C146.954 54.2768 146.831 53.7845 146.461 53.4153C146.092 53.046 145.723 52.923 145.231 52.923C144.738 52.923 144.369 53.046 144 53.4153C143.631 53.7845 143.508 54.2768 143.508 54.8922C143.508 55.5076 143.754 55.9999 144 56.3691Z" fill="#2B70B8"/>
<path d="M150.523 54.523V57.723H149.415V52.1845H150.523V52.923C150.892 52.3076 151.508 51.9384 152.246 51.9384C152.861 51.9384 153.354 52.1845 153.723 52.5537C154.092 52.923 154.215 53.5384 154.215 54.1537V57.723H153.108V54.3999C153.108 53.4153 152.615 53.046 151.754 53.046C151.385 53.046 151.015 53.1691 150.769 53.5384C150.646 53.6614 150.523 54.0307 150.523 54.523Z" fill="#2B70B8"/>
<path d="M157.661 56.2458L158.646 55.8766C158.646 56.1228 158.769 56.3689 159.015 56.6151C159.261 56.8612 159.508 56.8612 159.877 56.8612C160.123 56.8612 160.369 56.7381 160.615 56.6151C160.738 56.492 160.861 56.2458 160.861 56.1228C160.861 55.7535 160.615 55.5074 160.123 55.3843L159.138 55.1381C158.646 55.0151 158.4 54.892 158.154 54.5228C157.908 54.2766 157.784 53.9074 157.784 53.5381C157.784 53.0458 158.031 52.6766 158.4 52.3074C158.769 51.9381 159.261 51.8151 159.754 51.8151C160.123 51.8151 160.369 51.8151 160.738 51.9381C160.984 52.0612 161.231 52.1843 161.354 52.3074C161.477 52.4305 161.6 52.6766 161.723 52.7997C161.846 52.9228 161.846 53.0458 161.846 53.292L160.861 53.6612C160.861 53.5381 160.861 53.5381 160.738 53.4151C160.615 53.292 160.615 53.1689 160.615 53.1689C160.492 53.0458 160.369 52.9228 160.246 52.9228C160.123 52.7997 159.877 52.7997 159.754 52.7997C159.508 52.7997 159.261 52.9228 159.138 53.0458C159.015 53.1689 158.892 53.4151 158.892 53.5381C158.892 53.9074 159.138 54.1535 159.508 54.1535L160.369 54.3997C160.861 54.5228 161.231 54.6458 161.477 55.0151C161.723 55.2612 161.846 55.6304 161.846 56.1228C161.846 56.6151 161.723 56.9843 161.354 57.3535C160.984 57.7228 160.492 57.8458 159.877 57.8458C159.138 57.8458 158.646 57.7228 158.277 57.3535C158.031 56.9843 157.784 56.6151 157.661 56.2458Z" fill="#2B70B8"/>
<path d="M163.692 52.7999C164.184 52.1845 164.923 51.9384 165.784 51.9384C166.646 51.9384 167.261 52.1845 167.877 52.7999C168.369 53.4153 168.738 54.0307 168.738 54.8922C168.738 55.7537 168.492 56.4922 168 56.9845C167.508 57.5999 166.769 57.846 165.908 57.846C165.046 57.846 164.431 57.5999 163.815 56.9845C163.323 56.3691 163.077 55.7537 163.077 54.8922C162.954 54.0307 163.2 53.4153 163.692 52.7999ZM164.554 56.3691C164.923 56.7384 165.292 56.8614 165.784 56.8614C166.277 56.8614 166.646 56.7384 167.015 56.3691C167.384 55.9999 167.508 55.5076 167.508 54.8922C167.508 54.2768 167.384 53.7845 167.015 53.4153C166.646 53.046 166.277 52.923 165.784 52.923C165.292 52.923 164.923 53.046 164.554 53.4153C164.184 53.7845 164.061 54.2768 164.061 54.8922C164.061 55.5076 164.184 55.9999 164.554 56.3691Z" fill="#2B70B8"/>
<path d="M172.308 52.923C171.815 52.923 171.446 53.046 171.077 53.4153C170.708 53.7845 170.584 54.2768 170.584 54.8922C170.584 55.5076 170.708 55.9999 171.077 56.3691C171.446 56.7384 171.815 56.8614 172.308 56.8614C172.8 56.8614 173.169 56.7384 173.415 56.4922C173.661 56.246 173.784 55.9999 173.908 55.7537L174.892 56.123C174.769 56.6153 174.4 56.9845 174.031 57.3537C173.661 57.723 173.046 57.846 172.308 57.846C171.446 57.846 170.831 57.5999 170.338 56.9845C169.846 56.3691 169.6 55.7537 169.6 54.8922C169.6 54.0307 169.846 53.2922 170.338 52.7999C170.831 52.3076 171.569 51.9384 172.308 51.9384C173.046 51.9384 173.538 52.0614 173.908 52.4307C174.277 52.7999 174.646 53.1691 174.769 53.6614L173.784 54.0307C173.661 53.6614 173.538 53.4153 173.292 53.1691C173.046 53.046 172.8 52.923 172.308 52.923Z" fill="#2B70B8"/>
<path d="M176.123 50.5844C176 50.4614 175.877 50.2152 175.877 50.0921C175.877 49.9691 176 49.7229 176.123 49.4767C176.246 49.2306 176.492 49.2306 176.615 49.2306C176.861 49.2306 176.984 49.3537 177.231 49.4767C177.354 49.5998 177.477 49.846 177.477 50.0921C177.477 50.3383 177.354 50.4614 177.231 50.5844C177.107 50.7075 176.861 50.8306 176.615 50.8306C176.492 50.8306 176.246 50.7075 176.123 50.5844ZM177.231 57.7229H176.123V52.1844H177.231V57.7229Z" fill="#2B70B8"/>
<path d="M178.708 56.2459C178.708 55.7536 178.831 55.3844 179.2 55.1382C179.569 54.892 179.939 54.6459 180.431 54.6459L181.908 54.3997C182.154 54.3997 182.277 54.2767 182.277 54.0305C182.277 53.7844 182.154 53.5382 182.031 53.292C181.785 53.0459 181.539 53.0459 181.169 53.0459C180.8 53.0459 180.554 53.169 180.308 53.292C180.062 53.5382 179.939 53.7844 179.939 54.1536L178.954 53.9074C178.954 53.4151 179.2 52.9228 179.692 52.5536C180.185 52.1844 180.677 52.0613 181.292 52.0613C182.031 52.0613 182.646 52.3074 183.015 52.6767C183.385 53.0459 183.631 53.5382 183.631 54.1536V56.9844C183.631 57.3536 183.631 57.5997 183.754 57.8459H182.646C182.646 57.5997 182.646 57.3536 182.646 57.1074C182.523 57.3536 182.277 57.5997 182.031 57.7228C181.785 57.969 181.415 57.969 180.923 57.969C180.431 57.969 179.939 57.8459 179.569 57.4767C178.831 57.1074 178.708 56.6151 178.708 56.2459ZM180.677 56.9844C181.169 56.9844 181.539 56.8613 181.785 56.6151C182.031 56.369 182.277 55.8767 182.277 55.3844V55.1382L180.554 55.3844C180.308 55.3844 180.062 55.5074 179.939 55.6305C179.815 55.7536 179.692 55.9997 179.692 56.2459C179.692 56.4921 179.815 56.6151 179.939 56.8613C180.185 56.8613 180.431 56.9844 180.677 56.9844Z" fill="#2B70B8"/>
<path d="M186.215 57.7227H185.107V49.3535H186.215V57.7227Z" fill="#2B70B8"/>
<path d="M191.877 55.7535L192.861 56.1228C192.738 56.6151 192.369 57.1074 192 57.3535C191.508 57.7228 191.015 57.8458 190.4 57.8458C189.661 57.8458 188.923 57.5997 188.431 56.9843C187.938 56.492 187.569 55.7535 187.569 54.7689C187.569 53.9074 187.815 53.1689 188.308 52.6766C188.8 52.0612 189.415 51.8151 190.154 51.8151C191.015 51.8151 191.631 52.0612 192.123 52.5535C192.615 53.0458 192.861 53.7843 192.861 54.6458C192.861 54.7689 192.861 54.892 192.861 55.0151H188.677C188.677 55.5074 188.8 55.8766 189.169 56.2458C189.538 56.6151 189.908 56.7381 190.4 56.7381C191.138 56.8612 191.631 56.492 191.877 55.7535ZM188.677 54.3997H191.754C191.754 54.0305 191.631 53.6612 191.384 53.4151C191.138 53.1689 190.769 53.0458 190.277 53.0458C189.784 53.0458 189.538 53.1689 189.169 53.4151C188.923 53.6612 188.677 53.9074 188.677 54.3997Z" fill="#2B70B8"/>
</svg>
